<?xml version="1.0" encoding="UTF-8"?>
<svg data-bbox="0 0.815 179.998 180.006" xmlns="http://www.w3.org/2000/svg" viewBox="0 0 180 181" height="181" width="180" data-type="color">
    <g>
        <g clip-path="url(#f708f79a-eb2c-4864-b864-21f9f4db643c)">
            <path fill="#0A0C14" d="M104.66 88.636c3.21-2.312 6.349-4.523 9.417-6.818 7.022-5.252 14.6-5.262 22.49-2.492 8.37 2.94 14.99 8.381 20.922 14.79 12.498 13.494 20.114 29.291 22.21 47.627.734 6.412.162 12.735-2.228 18.821-1.771 4.5-4.609 8.131-8.635 10.796-2.82 1.868-5.756 3.57-8.529 5.5-6.898 4.801-14.249 4.964-21.742 1.959-3.942-1.58-7.636-3.777-11.564-5.757 0 1.336.014 2.926 0 4.517-.023 2.495-.376 2.844-2.844 2.854-14.499.048-28.998.109-43.497.133-18.282.03-36.563.03-54.845.04-2.668 0-2.705-.108-2.692-2.783.03-6.27-.04-12.542.014-18.811.014-1.391-.62-1.553-1.75-1.543-6.092.061-12.187.078-18.279.098-2.752.01-3.05-.288-3.057-2.963-.02-6.381-.044-12.766-.051-19.15 0-2.075.237-2.404 2.3-2.435 1.462-.023 1.455-.871 1.455-1.898q-.015-8.73 0-17.459c0-2.76.237-2.997 2.976-3.017 14.608-.119 29.216-.227 43.826-.349.715-.007 1.43-.095 2.212-.499-1.541-.495-3.058-1.098-4.633-1.461-5.13-1.177-7.954-4.71-9.518-9.402-2.99-8.979-3.078-18.215-1.9-27.471 1.812-14.237 5.31-28.037 11.533-41.036 3.271-6.836 6.867-13.492 12.126-19.062 2.492-2.638 5.204-5.008 8.685-6.31C71.69 4.075 74.324 4 77.016 4.8c3.508 1.041 7.01 2.12 10.558 3.011 3.413.855 5.848 2.832 7.426 5.903 2.874 5.585 4.063 11.61 4.117 17.815.206 23.764-5.685 45.881-18.126 66.187-2.85 4.652-6.284 8.779-11.1 12.305h22.501c2.533 0 2.428-.014 2.76-2.587.359-2.787.779-5.584 1.46-8.307 1.144-4.57 3.602-8.246 8.051-10.49m-32.74 66.665c1.67-.04 3.34-.081 5.306-.027 3.383-.01 6.766-.061 10.145-.013 1.283.017 1.663-.55 1.666-1.733.014-5.7.05-11.399.129-17.099.017-1.125-.281-1.651-1.507-1.634-6.197.088-12.397.125-18.593.159-.88.004-1.358.214-1.338 1.231a370 370 0 0 1 .028 10.121c.013 1.699.03 3.394-.01 5.391q-.02 3.991 4.178 3.604m-23.848 17.716v5.449c2.13 0 3.972 0 6.118.061 1.52-.024 3.044-.044 4.863-.024 2.31-.003 4.618.024 6.924-.027 1.66-.037 4.1.434 4.778-.431.853-1.091.267-3.312.356-5.35-.024-4.56-.058-9.121-.058-13.681 0-1.048-.203-1.678-1.487-1.655-4.662.092-9.328.092-14.309.082-2.022-.007-4.046-.078-6.061.03-.437.024-1.192.685-1.202 1.065-.068 3.031.01 6.066-.058 9.388.065 1.591.126 3.184.132 5.09m-10.212-15.526c-1.483.065-2.966.126-4.737.075-.227.38-.64.753-.647 1.136-.034 1.634.051 3.272.03 5.214-.013 4.347.014 8.697-.07 13.044-.024 1.275.396 1.682 1.642 1.658 3.325-.061 6.657-.078 9.982.003 1.53.038 2.09-.501 1.798-2.319a251 251 0 0 1-.075-6.588c-.02-1.498-.037-2.997 0-4.804-.006-2.011-.06-4.025 0-6.035.034-1.085-.335-1.519-1.435-1.472-2.062.088-4.128.095-6.481.085m136.015-31.831c-1.449-3.442-2.899-6.886-4.419-10.569-4.72-9.47-11.106-17.675-18.955-24.72-5.364-4.815-11.442-8.433-18.553-10.057-9.304-2.126-17.167 1.322-20.99 9.423-3.901 8.266-3.934 16.902-1.94 25.934.938 3.431 1.879 6.866 2.827 10.542 2.049 4.475 4.098 8.954 6.248 13.616 3.575 6.466 7.991 12.288 13.385 17.631 5.783 5.961 12.359 10.66 20.408 13.105 12.132 3.686 21.45-2.489 24.464-13.529 1.497-5.757 1.734-11.572.823-17.743-1.097-4.451-2.198-8.907-3.298-13.633M56.859 135.05c-1.7.014-3.403.031-5.404-.013-2.357 0-4.714.04-7.067-.024-1.178-.034-1.608.448-1.591 1.58.047 2.862.047 5.723.016 8.917-.03 2.747-.017 5.493-.108 8.239-.04 1.235.376 1.713 1.636 1.672 2.797-.092 5.597-.081 8.685-.075 3.61 0 7.219-.047 10.825.014 1.263.02 1.717-.417 1.642-1.668-.094-1.631-.067-3.269-.013-5.232-.027-1.695-.058-3.394-.024-5.428.007-2.252-.01-4.506.027-6.758.017-.908-.28-1.353-1.253-1.322a218 218 0 0 1-7.375.098m21.919-74.254c.832-3.607 1.662-7.215 2.583-11.08.687-6.609 1.653-13.2 1.978-19.825.277-5.69-.342-11.372-2.594-16.756-3.065-7.328-8.215-8.836-14.553-4.093-5.063 3.787-8.655 8.812-11.842 14.461-1.5 2.974-3.003 5.944-4.682 9.114-3.143 6.802-5.594 13.84-7.443 21.334-.877 4.373-1.754 8.747-2.777 13.369-.372 5.455-.992 10.907-1.05 16.363-.06 5.818.546 11.599 3.245 16.959 2.617 5.198 7.293 6.585 12.247 3.483 4.693-2.937 8.184-7.022 11.18-11.85 1.914-3.412 3.824-6.826 5.916-10.42 3.173-6.717 5.868-13.606 7.795-21.055M66.64 93.787c-.67 1.058-1.337 2.112-2.1 3.312 3.509.987 6.77 1.804 9.963 2.842 1.591.518 2.576.183 3.294-1.258.2-.4.447-.773.776-1.353 1.314-1.997 2.624-3.994 4.13-6.286-3.988-1.007-7.601-1.974-11.251-2.78-.525-.116-1.443.366-1.795.85-1.05 1.445-1.91 3.032-3.02 4.673m-36.346 66.947c.494-3.106.07-3.563-3.061-3.292-.166.013-.329.064-.755.04-1.284-.152-1.304.679-1.3 1.604.03 5.415.023 10.83.057 16.245.02 3.085.305 3.292 3.437 3.302 1.175.003 1.574-.38 1.56-1.56a588 588 0 0 1 .062-16.339m76.467-44.674c-.46-3.635-.917-7.273-1.388-10.996-1.954 1.244-3.775 2.349-5.543 3.543-2.228 1.502-3.135 3.608-2.665 6.283a289 289 0 0 1 1.151 6.92c.288 1.305.58 2.611.911 4.106 1.781-1.082 3.356-2.051 4.941-3.001q3.795-2.275 2.597-6.852M62.55 132.779c1.67-.021 3.342-.038 5.292.02q2.631.02 2.631-2.665c0-5.35-.037-10.701.027-16.051.017-1.458-.44-2.028-1.933-1.974-3.37.123-6.742.133-10.114.173-3.654.048-7.31.078-11.252.072-.979-.122-1.5.244-1.443 1.295.044.837.041 1.682.014 2.824.034 2.641.064 5.283.06 8.273-.023 2.191-.026 4.381-.084 6.568-.03 1.095.308 1.688 1.527 1.654 2.354-.067 4.71-.057 7.355-.023 2.553-.082 5.106-.163 7.92-.17m17.9-70.209q-1.186 3.61-2.36 7.225c-.207.635-.57 1.306.494 1.587 3.684.97 7.361 1.97 11.333 3.035.867-3.011 1.7-5.913 2.645-9.046.697-2.896 1.439-5.785 2.041-8.7.082-.4-.436-1.252-.836-1.37a210 210 0 0 0-9.745-2.696c-.346-.088-1.128.292-1.202.587-.792 3.041-1.483 6.11-2.374 9.385m3.959 24.822c1.564-3.53 3.128-7.055 4.628-10.443-.308-.356-.365-.491-.457-.515-3.62-1.01-7.236-2.034-10.876-2.963-.301-.078-.968.444-1.144.834-1.358 3.02-2.638 6.079-4.074 9.29l-1.097 2.177c3.667 1.007 7.199 1.905 10.68 2.97 1.293.397 1.906.075 2.34-1.353m43.69 69.918c-3.335-4.157-6.667-8.314-10.074-12.559l-8.556 4.903c3.166 4.804 6.22 9.317 10.297 13.335.531.308 1.266 1.017 1.564.864 2.845-1.464 5.614-3.075 8.58-4.74-.717-.685-1.195-1.142-1.811-1.803m-18.417-30.679-1.348-3.773c-1.94 1.166-3.721 2.22-5.482 3.302q-3.416 2.095-1.652 6.178c2.133 4.706 4.273 9.409 6.4 14.118.437.97 1.002 1.211 1.974.631a205 205 0 0 1 6.443-3.679c.877-.481.996-.956.552-1.885a626 626 0 0 1-6.883-14.892m-91.258 13.376q.06-5.133-5.066-4.906c-.054 0-.112.017-.467-.027-1.016 0-2.032.034-3.044-.014-.955-.044-1.3.384-1.304 1.306a3515 3515 0 0 1-.06 17.787c-.008.912.334 1.353 1.29 1.339a263 263 0 0 1 7.273-.024c1.029.014 1.395-.41 1.384-1.41a646 646 0 0 1-.006-14.047m2.6-24.013q.068-3.804-3.928-3.319c-1.524-.01-3.05.037-4.568-.051-1.12-.068-1.513.387-1.51 1.455.017 5.818.024 11.64-.003 17.458-.007 1.095.413 1.499 1.507 1.472 2.367-.058 4.74-.055 7.107-.007 1.073.02 1.534-.356 1.517-1.472-.078-5.082-.112-10.165-.122-15.539m12.854-3.53c-3.082.041-6.16.129-9.241.092-1.182-.014-1.463.553-1.425 1.529.064 1.624.145 3.245.148 5.212-.057 3.997-.111 7.998-.172 11.995-.014.929.101 1.689 1.33 1.672 4.274-.054 8.55-.075 13.128-.041 1.578.007 3.153 0 4.73.031.898.02 1.352-.282 1.335-1.265a369 369 0 0 1-.03-10.124c0-2.316-.045-4.632.023-6.947.047-1.631-.85-2.232-2.258-2.235-2.422-.007-4.846.085-7.572.078m-1.195 22.619c-3.535-.004-7.067.017-10.599-.027-.971-.011-1.449.23-1.411 1.312.077 2.187.06 4.377.023 6.869-.003 3.594.017 7.188-.03 10.786-.014.99.288 1.461 1.327 1.441a471 471 0 0 1 11.38-.105c1.971.013 3.942 0 5.91.047.998.024 1.415-.346 1.401-1.383a531 531 0 0 1-.027-11.664c.004-1.956-.034-3.916.027-5.873.034-1.101-.4-1.498-1.473-1.461-2.065.075-4.13.075-6.525.058m43.9 43.399c5.696-.013 11.395-.037 17.09-.04 1.9 0 2.14-.221 2.11-2.119-.075-5.137-.136-10.271-.23-15.407-.014-.726-.17-1.448-.268-2.17-.139-1.021-.711-1.38-1.744-1.377-6.318.034-12.633.037-18.952 0-1.07-.007-1.51.292-1.493 1.431.088 5.533.112 11.067.108 16.906q-.03 2.888 2.906 2.756c.054 0 .108-.017.474.024m.836-45.672c1.182-.023 2.37-.125 3.549-.05 1.212.074 1.578-.445 1.57-1.58-.026-5.815-.037-11.63.008-17.445.01-1.278-.485-1.675-1.71-1.634a89 89 0 0 1-6.427 0c-1.388-.058-1.89.413-1.866 1.841.068 4.797.027 9.599.027 14.396q0 4.476 4.85 4.476m7.668-95.076c-.474 3.635-.981 7.263-1.384 10.904-.058.516.27 1.472.62 1.577 3.338 1.027 6.714 1.936 10.097 2.8.287.075 1.009-.4 1.042-.681q.783-6.38 1.379-12.78c.03-.331-.464-.942-.82-1.043-3.46-.974-6.945-1.865-10.588-2.825a63 63 0 0 0-.342 2.048m4.209-3.37 7.34 1.96c0-3.126.079-6.086-.074-9.036-.027-.52-.941-1.22-1.581-1.438-1.646-.556-3.366-.878-5.052-1.312-1.49-.383-2.973-.797-4.487-1.204 0 2.262-.003 4.276 0 6.29q.01 3.722 3.854 4.737m.5 97.11c-.01-5.188-.084-10.376-.01-15.563.052-3.398.14-3.326-3.22-3.706-1.466-.166-1.902.295-1.889 1.715.054 5.083.102 10.169 0 15.251-.098 4.666.61 3.822 4.27 3.52.308-.027.576-.594.853-1.221M6.467 149.83v-11.688c0-.508.014-1.02-.064-1.519-.206-1.349-1.104-1.719-3.19-1.569-1.317.091-1.15.942-1.147 1.797.027 5.136.037 10.273.067 15.413.004.675.03 1.363.173 2.018.383 1.773 1.845 1.051 2.912 1.163 1.117.118 1.263-.668 1.253-1.546-.014-1.241 0-2.486 0-4.066m126.954 12.569c-.874-.461-2.039-1.536-2.577-1.281-2.821 1.332-5.486 3-8.394 4.662 1.368 1.197 2.516 2.275 3.741 3.258 3.051 2.445 3.068 2.434 6.39.519 1.825-1.051 3.633-2.133 5.594-3.286-1.69-1.37-3.132-2.536-4.754-3.872m-72.743-61.037-3.004 3.017c3.769 1.055 7.236 2.041 10.714 2.977.443.119 1.124.173 1.408-.071 1.72-1.488 3.356-3.072 5.327-4.91-3.508-.956-6.539-1.6-9.434-2.627-2.136-.76-3.65-.461-5.015 1.614m83.23 71.816 3.061-1.875c-2.215-1.217-4.175-2.309-6.159-3.36-.254-.132-.695-.17-.932-.037-2.773 1.559-5.519 3.16-8.712 5.004 2.587 1.275 4.656 2.811 6.928 3.214 1.31.234 2.946-1.359 4.432-2.139.4-.21.783-.448 1.382-.807M5.824 131.06c-.16 1.474.515 2.014 1.967 1.973 1.131-.034 1.463-.526 1.453-1.56-.058-5.689-.112-11.379-.112-17.068 0-1.458-.687-1.76-1.99-1.777-1.372-.017-1.396.736-1.39 1.723.038 5.465.048 10.928.069 16.709M93.215 17.45 83.714 15c.2 1.02.382 1.78.498 2.546.457 3.055 1.124 3.695 4.202 4.323 2.038.417 4.043.99 6.064 1.475.45.108.914.145 1.524.237-.315-2.42-.356-4.672-2.783-6.137m5.54 82.785c-1.318 2.309-1.372 4.828-1.474 7.819 2.895-2.092 5.442-3.906 7.951-5.771.271-.204.43-.668.484-1.038.311-2.038.575-4.086.89-6.37a3581 3581 0 0 0-7.852 5.36m3.47 73.077c-1.382-2.475-2.76-4.95-4.338-7.771 0 4.249-.02 8.107.04 11.966.004.315.56.874.874.888 2.154.078 4.311.041 6.769.041a728 728 0 0 1-3.349-5.124m40.938 2.842-1.781 1.122q.026.285.047.57c1.859.118 3.928.813 5.53.23 2.773-1.01 5.258-2.814 7.913-4.313-3.064-1.641-5.807-1.681-8.448.475-.904.739-2.025 1.21-3.264 1.919m-34.921-24.473-4.51-7.632c0 3.621-.027 6.713.03 9.802.01.44.42 1.241.681 1.254 1.913.109 3.833.058 6.058.058-.857-1.316-1.49-2.296-2.259-3.482M87.675 10.236c-2.295-.689-4.588-1.377-7.08-2.123.701 2.031 1.375 3.8 3.261 4.405 3.024.966 6.119 1.712 9.464 2.627-1.344-2.488-2.624-4.51-5.648-4.91M60.36 107.42c-1.012-.332-2.008-.729-3.04-.98-1.677-.41-3.285-.328-4.86 1.079 3.072.935 5.889 1.898 8.764 2.634 1.831.468 3.71.414 5.499-1.058a490 490 0 0 1-6.363-1.671m42.969-15.22c-1.757 1.152-3.22 2.519-3.616 5.106 3.474-2.865 8.052-4.062 9.417-9.24a3758 3758 0 0 0-5.801 4.133m-12.196 53.303c-.01 2.478-.024 4.957-.027 7.435-.004 2.445.436 2.737 2.956 1.882-.522-1.885-1.02-3.784-1.578-5.665-.386-1.306-.857-2.591-1.355-3.652m64.613 31.397 4.544-2.842-.342-.579-7.835 4.336.159.37c1.084-.387 2.171-.773 3.474-1.285" data-color="1"/>
            <path fill="#0A0C14" d="M64.423 5.23c-4.253 2.985-7.707 6.562-10.395 10.878-.437.705-.87 1.661-1.934.983-1.05-.668-.382-1.509.041-2.197 3.627-5.886 8.546-10.406 14.57-13.749.244-.135.515-.342.766-.329.656.03 1.31.163 1.967.255-.352.556-.59 1.268-1.084 1.637-1.212.906-2.543 1.651-3.931 2.526z" data-color="1"/>
            <path fill="#0A0C14" d="M49.897 12.422c-.247-.546-.653-1.203-.47-1.553 1.584-3.03 3.708-5.648 6.494-7.655.386-.278 1.097-.099 1.656-.13-.105.536-.037 1.218-.342 1.588-1.954 2.387-3.975 4.72-6.014 7.035-.298.34-.802.498-1.327.712z" data-color="1"/>
            <path fill="#2F54EC" d="M73.251 175.398c-.047-5.533-.071-11.067-.156-16.6-.017-1.139.424-1.434 1.493-1.431 6.319.037 12.634.034 18.952 0 1.033-.007 1.605.356 1.744 1.377.098.722.254 1.444.268 2.17.094 5.136.155 10.27.23 15.406.027 1.899-.21 2.12-2.11 2.12-5.695.003-11.394.027-17.285-.089-1.175-1.071-2.154-2.014-3.133-2.956z" data-color="2"/>
            <path fill="#2F54EC" d="M109.059 115.385c-2.022-8.751-1.988-17.387 1.913-25.654 3.826-8.1 11.685-11.548 20.99-9.422 7.111 1.624 13.189 5.242 18.552 10.057 7.846 7.045 14.235 15.25 18.82 24.856a23 23 0 0 1-3.785.105c-4.287-7.961-9.705-14.902-16.203-21.022-4.53-4.265-9.535-7.686-15.562-9.517-9.441-2.868-17.151 1.173-19.768 10.66-.698 2.526-1.168 5.235-1.077 7.836.142 4.034.857 8.046 1.162 12.077-1.788.017-3.414.024-5.039.03z" data-color="2"/>
            <path fill="#2F54EC" d="M67.806 145.998c-.02-3.272-.013-6.544-.078-9.815-.02-1.018.46-1.228 1.338-1.231a1987 1987 0 0 0 18.593-.16c1.225-.017 1.523.509 1.506 1.635a1516 1516 0 0 0-.128 17.098c0 1.184-.383 1.75-1.666 1.733-3.383-.044-6.762 0-10.352-.119-3.21-3.136-6.213-6.137-9.216-9.141z" data-color="2"/>
            <path fill="#2F54EC" d="M54.543 23.354c2.986-5.5 6.58-10.525 11.641-14.315 6.339-4.744 11.49-3.235 14.554 4.092 2.251 5.384 2.871 11.067 2.593 16.756-.325 6.626-1.29 13.217-2.116 19.903-1.097-.861-2.055-1.797-3.02-2.892.951-6.066 1.432-12.01 1.046-17.987-.26-4.052-.684-8.11-3.109-11.586-1.97-2.82-4.601-3.645-7.649-2.061-1.906.993-3.772 2.316-5.218 3.892-2.041 2.224-3.677 4.822-5.593 7.192a240 240 0 0 1-3.126-2.998z" data-color="2"/>
            <path fill="#2F54EC" d="M42.864 145.181c-.02-2.861-.02-5.726-.068-8.588-.017-1.133.413-1.614 1.592-1.58 2.353.064 4.71.02 7.266.159a2825 2825 0 0 1 13.748 13.617c.023 1.634-.007 3.272.091 4.903.075 1.251-.379 1.688-1.642 1.668-3.606-.061-7.216-.017-11.015-.146-3.45-3.431-6.711-6.734-9.972-10.036z" data-color="2"/>
            <path fill="#E2ECFF" d="M48.049 167.637c-.034-3.034-.109-6.066-.041-9.097.01-.379.765-1.041 1.202-1.064 2.015-.109 4.04-.038 6.264.095 5.337 5.228 10.467 10.331 15.596 15.434-.033 1.736.552 3.956-.3 5.048-.678.865-3.12.393-4.779.431a100 100 0 0 1-7.127-.102 1502 1502 0 0 1-10.812-10.741z" data-color="3"/>
            <path fill="#E2ECFF" d="M40.606 142.693c.02 3.777.017 7.55.074 11.328.017 1.037-.4 1.407-1.402 1.383-1.97-.048-3.941-.034-6.108-.183a2317 2317 0 0 1-12.42-12.288c-.024-2.19-.004-4.377-.085-6.564-.037-1.082.44-1.326 1.412-1.312 3.532.041 7.067.024 10.812.142a604 604 0 0 1 7.717 7.497z" data-color="3"/>
            <path fill="#2F54EC" d="M176.214 157.242c-2.868 10.826-12.186 17-24.319 13.315-8.048-2.445-14.624-7.144-20.292-13.224 2.84-.142 5.57-.173 8.407-.163 3.308 2.004 6.396 4.195 9.742 5.873 3.122 1.566 6.579 2.326 10.145 2.038 5.353-.427 9.057-3.313 11.753-7.9 1.635.027 3.098.044 4.564.057z" data-color="2"/>
            <path fill="#E2ECFF" d="M23.431 118.955c-.074-1.624-.155-3.245-.22-4.869-.037-.973.244-1.543 1.426-1.529 3.078.037 6.159-.054 9.45.024 3.322 3.177 6.427 6.238 9.535 9.3.028 3.269.03 6.541.088 9.809.017.983-.436 1.285-1.334 1.265-1.574-.034-3.152-.024-4.923-.16-4.805-4.699-9.413-9.27-14.022-13.84" data-color="3"/>
            <path fill="#2F54EC" d="M64.924 92.42c-2.854 4.683-6.345 8.765-11.038 11.705-4.954 3.099-9.63 1.715-12.248-3.483-2.698-5.36-3.304-11.141-3.243-16.96.057-5.458.677-10.91 1.229-16.413 1.303 1.068 2.424 2.187 3.542 3.465-.146 4.94-.454 9.724-.376 14.502.057 3.607.704 7.198 2.54 10.405 2.122 3.72 5.478 4.645 9.159 2.51 1.253-.726 2.478-1.611 3.467-2.659 1.652-1.753 3.102-3.692 4.71-5.459.8.858 1.527 1.624 2.258 2.387" data-color="2"/>
            <path fill="#2F54EC" d="M47.486 112.401c3.653-.037 7.31-.071 10.964-.119 3.372-.044 6.745-.054 10.114-.173 1.493-.054 1.95.516 1.934 1.974-.065 5.35-.024 10.701-.028 16.051q0 2.685-2.84 2.529c-.915-.861-1.609-1.597-2.323-2.316q-8.91-8.975-17.825-17.946z" data-color="2"/>
            <path fill="#2F54EC" d="M77.253 132.812q-4.68 0-4.68-4.475c0-4.798.045-9.599-.026-14.397-.02-1.424.477-1.895 1.865-1.841a86 86 0 0 0 6.427 0c1.222-.041 1.72.356 1.71 1.634-.044 5.815-.034 11.63-.007 17.445.007 1.132-.359 1.655-1.571 1.58-1.178-.071-2.363.027-3.718.051z" data-color="2"/>
            <path fill="#2F54EC" d="M20.983 116.287c.051 5.082.085 10.165.163 15.247.017 1.116-.444 1.492-1.517 1.472-2.367-.044-4.74-.051-7.108.006-1.097.028-1.513-.376-1.506-1.471.027-5.818.023-11.64.003-17.458 0-1.072.39-1.523 1.51-1.455 1.517.088 3.044.041 4.781.17 1.368 1.241 2.52 2.366 3.674 3.489" data-color="2"/>
            <path fill="#2F54EC" d="M18.346 140.343c.024 4.57.034 9.144.085 13.715.01 1-.356 1.424-1.385 1.41-2.425-.034-4.849-.01-7.273.024-.955.014-1.294-.427-1.29-1.339.033-5.93.057-11.857.06-17.787 0-.923.346-1.35 1.304-1.306 1.013.048 2.028.014 3.24.146 1.883 1.8 3.573 3.469 5.262 5.137z" data-color="2"/>
            <path fill="#2F54EC" d="M85.102 37.59c.111-.684.206-1.223.328-1.898 3.644.96 7.128 1.851 10.588 2.825.356.101.85.711.82 1.044A437 437 0 0 1 95.46 52.34c-.034.281-.759.753-1.043.681-3.386-.864-6.759-1.773-10.097-2.8-.35-.105-.678-1.061-.62-1.577.403-3.641.91-7.273 1.398-11.053z" data-color="2"/>
            <path fill="#2F54EC" d="M109.699 126.875c2.279 4.886 4.534 9.789 6.863 14.651.447.929.325 1.404-.552 1.885a207 207 0 0 0-6.443 3.679c-.972.58-1.538.339-1.974-.63-2.127-4.71-4.263-9.413-6.332-14.329 2.858-1.892 5.644-3.574 8.434-5.252z" data-color="2"/>
            <path fill="#E2ECFF" d="M119.687 162.755c-4.002-3.781-7.056-8.294-10.222-13.098l8.556-4.903c3.407 4.245 6.742 8.402 10.057 12.745-2.81 1.879-5.6 3.567-8.391 5.256" data-color="3"/>
            <path fill="#2F54EC" d="M72.617 83.435c1.304-3.048 2.584-6.103 3.942-9.127.176-.39.843-.913 1.144-.835 3.64.926 7.256 1.953 10.876 2.964.088.023.146.16.457.515-1.5 3.384-3.064 6.914-4.805 10.497-3.988-1.302-7.801-2.658-11.61-4.014z" data-color="2"/>
            <path fill="#E2ECFF" d="M139.902 157.136c-2.729.028-5.458.055-8.347.102a66.5 66.5 0 0 1-13.351-17.516 79 79 0 0 1 6.383-.115c4.409 6.541 9.535 12.322 15.315 17.529" data-color="3"/>
            <path fill="#E2ECFF" d="M80.619 62.352c.718-3.061 1.408-6.13 2.2-9.171.078-.295.857-.675 1.203-.587 3.267.831 6.521 1.716 9.745 2.696.4.122.92.973.836 1.37a108 108 0 0 1-2.228 8.798c-4.043-.97-7.9-2.041-11.76-3.109z" data-color="3"/>
            <path fill="#2F54EC" d="M71.097 172.849c-5.156-4.951-10.286-10.054-15.467-15.258 4.618-.136 9.285-.136 13.947-.231 1.283-.023 1.487.604 1.487 1.655 0 4.56.033 9.121.03 13.834z" data-color="2"/>
            <path fill="#2F54EC" d="M80.535 62.458c3.944.962 7.801 2.034 11.79 3.122-.708 2.92-1.54 5.822-2.408 8.833-3.971-1.065-7.649-2.065-11.333-3.035-1.066-.281-.7-.95-.494-1.587a373 373 0 0 1 2.448-7.333z" data-color="2"/>
            <path fill="#2F54EC" d="M89.165 34.332q-3.705-.98-3.718-4.699c-.006-2.014 0-4.028 0-6.29 1.514.407 2.997.821 4.487 1.204 1.686.434 3.41.756 5.052 1.312.64.217 1.554.92 1.581 1.438.153 2.95.075 5.91.075 9.036-2.39-.64-4.866-1.302-7.473-1.997z" data-color="2"/>
            <path fill="#2F54EC" d="M45.776 176.636c.373 1.481-.19 2.021-1.72 1.983-3.325-.081-6.654-.064-9.982-.003-1.246.024-1.666-.383-1.642-1.658.084-4.347.057-8.694.2-13.146 4.466 4.205 8.803 8.518 13.14 12.827z" data-color="2"/>
            <path fill="#2F54EC" d="M23.397 119.128c4.643 4.401 9.251 8.971 13.904 13.637-4.233.129-8.506.146-12.783.2-1.229.017-1.344-.743-1.33-1.672.06-3.997.115-7.998.206-12.165z" data-color="2"/>
            <path fill="#2F54EC" d="M45.867 124.404c-.033-2.642-.064-5.283.02-8.033 5.544 5.374 10.971 10.85 16.4 16.329-2.554.082-5.107.163-7.873.129-2.994-2.885-5.77-5.659-8.547-8.429z" data-color="2"/>
            <path fill="#2F54EC" d="M98.318 121.545c-.386-2.22-.762-4.441-1.155-6.659-.47-2.675.437-4.78 2.665-6.283 1.767-1.19 3.589-2.298 5.543-3.543.47 3.727.931 7.361 1.249 11.115-2.861 1.868-5.58 3.617-8.303 5.367z" data-color="2"/>
            <path fill="#2F54EC" d="M89.805 131.632c-.281.472-.549 1.038-.857 1.065-3.66.302-4.368 1.146-4.27-3.519.105-5.083.058-10.169 0-15.251-.013-1.421.424-1.882 1.89-1.716 3.359.38 3.27.312 3.22 3.706-.075 5.188 0 10.375.014 15.719z" data-color="2"/>
            <path fill="#2F54EC" d="M30.186 161.002c.007 5.357-.01 10.714.044 16.071.014 1.18-.386 1.567-1.56 1.56-3.13-.014-3.417-.217-3.437-3.303-.034-5.414-.027-10.829-.058-16.244-.003-.926.014-1.76 1.497-1.485 1.303 1.214 2.407 2.306 3.514 3.397z" data-color="2"/>
            <path fill="#2F54EC" d="M42.377 53.757c1.693-7.3 4.145-14.342 7.48-21.167a24.4 24.4 0 0 1 3.125 2.987c-.846 2.22-1.778 4.275-2.485 6.408-1.646 4.96-3.187 9.958-4.87 14.881a235 235 0 0 1-3.25-3.109" data-color="2"/>
            <path fill="#E2ECFF" d="M62.419 132.741c-5.56-5.516-10.988-10.995-16.507-16.519-.112-.888-.109-1.729-.153-2.566-.057-1.055.464-1.418 1.585-1.275 6.085 6.004 12.027 11.985 17.966 17.966a116 116 0 0 1 2.181 2.276c-1.602.115-3.271.135-5.072.115z" data-color="3"/>
            <path fill="#2F54EC" d="M6.467 149.999c0 1.411-.01 2.655 0 3.896.01.878-.135 1.665-1.252 1.546-1.067-.112-2.53.611-2.912-1.163-.143-.654-.17-1.342-.173-2.017-.034-5.137-.044-10.274-.068-15.414-.003-.854-.17-1.702 1.148-1.797 2.086-.146 2.983.221 3.19 1.57.078.498.06 1.014.064 1.519.003 3.896 0 7.792 0 11.857z" data-color="2"/>
            <path fill="#E2ECFF" d="M66.817 93.675c.935-1.53 1.795-3.116 2.848-4.56.352-.485 1.266-.967 1.795-.852 3.647.807 7.263 1.774 11.252 2.78-1.507 2.293-2.821 4.29-4.304 6.31-3.979-1.21-7.781-2.444-11.584-3.682z" data-color="3"/>
            <path fill="#2F54EC" d="M133.513 162.483c1.53 1.251 2.973 2.421 4.666 3.791-1.964 1.153-3.772 2.231-5.594 3.286-3.322 1.915-3.338 1.929-6.389-.519-1.223-.98-2.371-2.058-3.742-3.259 2.909-1.661 5.574-3.329 8.394-4.662.539-.254 1.7.821 2.665 1.367z" data-color="2"/>
            <path fill="#2F54EC" d="M124.526 139.533c-2.072.03-4.148.061-6.369.098a223 223 0 0 1-6.149-13.552c1.95-.139 3.748-.15 5.631-.078 2.353 4.567 4.618 9.049 6.887 13.532" data-color="2"/>
            <path fill="#E2ECFF" d="M45.817 176.47c-4.378-4.144-8.715-8.453-13.151-12.81-.139-1.685-.224-3.323-.19-4.957.007-.383.42-.756.854-.963 4.27 4.211 8.333 8.253 12.396 12.291.044 2.092.084 4.184.088 6.442z" data-color="3"/>
            <path fill="#2F54EC" d="M60.766 101.276c1.28-1.986 2.794-2.285 4.93-1.525 2.896 1.027 5.926 1.675 9.434 2.627-1.97 1.838-3.61 3.425-5.326 4.91-.285.247-.965.19-1.409.071-3.477-.936-6.945-1.922-10.713-2.977 1.08-1.085 2.041-2.051 3.088-3.106z" data-color="2"/>
            <path fill="#2F54EC" d="M20.722 143.083c4.104 3.899 8.178 7.947 12.305 12.101-3.643.159-7.34.203-11.038.278-1.036.02-1.338-.455-1.328-1.441.048-3.594.024-7.188.058-10.935z" data-color="2"/>
            <path fill="#2F54EC" d="M78.61 61.013c-1.76 7.232-4.455 14.125-7.825 20.862a15 15 0 0 1-2.458-2.356c2.506-7.148 4.978-14.176 7.544-21.13.976.925 1.86 1.776 2.74 2.624" data-color="2"/>
            <path fill="#E2ECFF" d="M176.289 157.136c-1.537.092-3 .075-4.615-.091.254-1.261.714-2.357 1.056-3.486 1.382-4.574 1.135-9.253 1.003-13.938 1.239-.014 2.333-.021 3.426-.027.938 5.869.701 11.684-.867 17.546z" data-color="3"/>
            <path fill="#2F54EC" d="M143.807 173.249c-.495.291-.877.529-1.277.739-1.486.78-3.122 2.373-4.432 2.139-2.272-.403-4.341-1.939-6.928-3.214 3.193-1.844 5.942-3.445 8.712-5.004.234-.133.677-.099.931.037 1.985 1.051 3.945 2.143 6.16 3.36-1.108.678-2.086 1.278-3.166 1.943" data-color="2"/>
            <path fill="#2F54EC" d="M5.824 130.9c-.02-5.621-.034-11.087-.068-16.549-.006-.987.017-1.74 1.389-1.723 1.303.017 1.99.319 1.99 1.777 0 5.689.055 11.379.113 17.068.01 1.034-.322 1.526-1.453 1.56-1.453.044-2.127-.499-1.967-2.129z" data-color="2"/>
            <path fill="#2F54EC" d="M93.33 17.512c2.31 1.404 2.353 3.651 2.668 6.076-.606-.092-1.073-.13-1.524-.238-2.021-.485-4.026-1.06-6.064-1.475-3.078-.627-3.745-1.268-4.202-4.323-.115-.77-.295-1.525-.498-2.546 3.27.844 6.386 1.648 9.616 2.512z" data-color="2"/>
            <path fill="#E2ECFF" d="M65.443 148.626c-4.554-4.33-9.071-8.822-13.64-13.423a39 39 0 0 1 5.26-.021 899 899 0 0 1 8.332 8.189c.028 1.695.058 3.394.048 5.255" data-color="3"/>
            <path fill="#E2ECFF" d="M117.554 125.919c-1.798.011-3.599.021-5.55.038-1.093-3.425-2.031-6.86-2.959-10.43 1.639-.146 3.264-.152 5.126-.068 1.287 3.55 2.337 7.005 3.383 10.46" data-color="3"/>
            <path fill="#E2ECFF" d="M42.299 53.852c1.127.922 2.174 1.94 3.338 3.14-.745 4.648-1.605 9.114-2.465 13.58a383 383 0 0 0-3.474-3.429c.772-4.448 1.65-8.822 2.6-13.29" data-color="3"/>
            <path fill="#2F54EC" d="M98.863 100.158c2.6-1.777 5.099-3.48 7.75-5.286-.315 2.285-.579 4.333-.89 6.371-.058.366-.214.834-.484 1.037-2.51 1.865-5.052 3.679-7.95 5.771.1-2.991.155-5.51 1.574-7.893" data-color="2"/>
            <path fill="#E2ECFF" d="M42.837 145.344c3.284 3.136 6.545 6.439 9.853 9.853-2.752.142-5.553.132-8.35.224-1.26.041-1.676-.438-1.635-1.672.091-2.743.078-5.492.132-8.402z" data-color="3"/>
            <path fill="#2F54EC" d="M177.169 139.438c-1.107.159-2.201.166-3.504.04a191 191 0 0 1-3.353-13.501c1.304-.027 2.438-.041 3.573-.051 1.097 4.452 2.197 8.907 3.281 13.512z" data-color="2"/>
            <path fill="#2F54EC" d="M45.753 169.872c-4.094-3.883-8.157-7.924-12.281-12.078a29 29 0 0 1 4.601-.183c2.692 2.618 5.17 5.113 7.65 7.609.02 1.498.037 2.997.027 4.652z" data-color="2"/>
            <path fill="#2F54EC" d="M102.286 173.415c1.07 1.641 2.079 3.177 3.288 5.014-2.458 0-4.615.038-6.769-.04-.315-.011-.87-.573-.873-.889-.061-3.858-.041-7.72-.041-11.965z" data-color="2"/>
            <path fill="#2F54EC" d="M66.729 93.732c3.89 1.18 7.697 2.415 11.62 3.723-.104.458-.351.831-.548 1.231-.718 1.438-1.706 1.773-3.294 1.258-3.19-1.038-6.454-1.855-9.962-2.841a119 119 0 0 1 2.184-3.367z" data-color="2"/>
            <path fill="#2F54EC" d="M43.653 121.725c-3.136-2.902-6.24-5.964-9.41-9.114 2.36-.139 4.785-.23 7.206-.224 1.408.004 2.306.604 2.258 2.235-.068 2.312-.02 4.631-.05 7.103z" data-color="2"/>
            <path fill="#E2ECFF" d="M52.995 35.445c-.982-.96-1.964-1.923-3.05-2.957 1.394-3.045 2.898-6.018 4.5-9.063 1.103.902 2.109 1.878 3.179 3.028-1.5 3.112-3.065 6.052-4.629 8.995z" data-color="3"/>
            <path fill="#E2ECFF" d="M98.317 121.678a164 164 0 0 1 8.296-5.361q1.351 4.326-2.448 6.598c-1.585.95-3.159 1.919-4.94 3.001-.332-1.495-.62-2.801-.908-4.235z" data-color="3"/>
            <path fill="#E2ECFF" d="M173.888 125.79c-1.134.146-2.268.156-3.629.092-1.693-3.543-3.16-7.012-4.629-10.48 1.188-.014 2.377-.031 3.738-.061 1.619 3.427 3.068 6.869 4.52 10.449" data-color="3"/>
            <path fill="#E2ECFF" d="M78.692 60.905c-.965-.74-1.845-1.587-2.803-2.642.72-3.872 1.517-7.54 2.312-11.206.959.936 1.917 1.875 2.97 2.865-.735 3.662-1.568 7.27-2.482 10.983z" data-color="3"/>
            <path fill="#2F54EC" d="M47.997 167.783c3.586 3.391 7.121 6.93 10.714 10.572-1.467.129-2.99.149-4.707.037-2.086-1.987-3.975-3.838-5.868-5.689-.064-1.59-.125-3.184-.139-4.92" data-color="2"/>
            <path fill="#E2ECFF" d="M68.294 79.634c.765.756 1.53 1.513 2.4 2.333-1.808 3.479-3.718 6.893-5.702 10.379a17 17 0 0 1-2.289-2.428c1.842-3.567 3.715-6.927 5.587-10.284z" data-color="3"/>
            <path fill="#E2ECFF" d="M109.688 126.753c-2.78 1.801-5.567 3.483-8.451 5.246q-1.802-3.736 1.611-5.839c1.764-1.081 3.546-2.136 5.482-3.302.468 1.305.908 2.539 1.358 3.892z" data-color="3"/>
            <path fill="#E2ECFF" d="M45.848 124.577c2.797 2.597 5.573 5.37 8.42 8.229-2.285.108-4.642.098-6.995.166-1.219.034-1.558-.556-1.527-1.655.058-2.19.058-4.381.102-6.744z" data-color="3"/>
            <path fill="#2F54EC" d="M143.268 176.09c1.131-.651 2.252-1.122 3.156-1.862 2.641-2.156 5.384-2.112 8.448-.474-2.655 1.498-5.14 3.302-7.913 4.313-1.605.583-3.671-.112-5.53-.231q-.026-.285-.047-.57a153 153 0 0 1 1.889-1.176z" data-color="2"/>
            <path fill="#E2ECFF" d="M67.78 146.151c3.03 2.851 6.033 5.852 9.094 8.941a40 40 0 0 1-5.15.074c-1.439-1.346-2.682-2.559-3.928-3.77-.013-1.699-.03-3.394-.017-5.242z" data-color="3"/>
            <path fill="#E2ECFF" d="M108.303 151.779c.701 1.082 1.337 2.062 2.194 3.377-2.225 0-4.144.051-6.058-.057-.26-.014-.673-.814-.68-1.255-.061-3.089-.031-6.177-.031-9.802 1.663 2.811 3.085 5.222 4.578 7.737z" data-color="3"/>
            <path fill="#2F54EC" d="M87.808 10.26c2.891.38 4.171 2.4 5.515 4.889-3.345-.916-6.44-1.662-9.464-2.628-1.886-.604-2.56-2.374-3.26-4.405 2.492.746 4.784 1.435 7.212 2.147z" data-color="2"/>
            <path fill="#2F54EC" d="M65.426 143.201c-2.74-2.516-5.452-5.204-8.215-7.995 2.303-.152 4.663-.176 7.023-.254.971-.031 1.27.414 1.253 1.322-.041 2.252-.024 4.503-.058 6.924z" data-color="2"/>
            <path fill="#2F54EC" d="M40.63 142.523c-2.527-2.292-5.029-4.754-7.575-7.307 2.018-.122 4.087-.122 6.149-.197 1.073-.037 1.51.357 1.473 1.462-.061 1.956-.024 3.916-.051 6.042z" data-color="2"/>
            <path fill="#E2ECFF" d="M45.752 165.064c-2.505-2.343-4.984-4.839-7.53-7.429 1.994-.136 4.06-.142 6.122-.231 1.104-.047 1.47.384 1.435 1.472-.06 2.011-.006 4.025-.027 6.191z" data-color="3"/>
            <path fill="#E2ECFF" d="M72.55 83.516c3.877 1.272 7.69 2.628 11.607 4.032-.186 1.275-.8 1.597-2.093 1.2-3.48-1.065-7.012-1.963-10.68-2.97.4-.794.75-1.485 1.166-2.262" data-color="3"/>
            <path fill="#2F54EC" d="M60.488 107.468c2.083.552 4.037 1.057 6.234 1.624-1.788 1.471-3.667 1.525-5.499 1.057-2.875-.732-5.692-1.698-8.763-2.634 1.575-1.407 3.183-1.488 4.859-1.078 1.033.254 2.028.647 3.17 1.031" data-color="2"/>
            <path fill="#2F54EC" d="M103.427 92.129c1.863-1.326 3.623-2.584 5.703-4.062-1.365 5.177-5.943 6.374-9.417 9.239.396-2.587 1.859-3.953 3.714-5.177" data-color="2"/>
            <path fill="#2F54EC" d="M119.725 162.873c2.753-1.807 5.543-3.495 8.421-5.272.566.37 1.043.827 1.758 1.512-2.967 1.665-5.736 3.276-8.581 4.74-.294.153-1.032-.556-1.601-.983z" data-color="2"/>
            <path fill="#E2ECFF" d="M48.11 172.859c1.916 1.695 3.808 3.546 5.739 5.503-1.798.105-3.637.105-5.767.105 0-1.818 0-3.632.027-5.605z" data-color="3"/>
            <path fill="#2F54EC" d="M91.163 145.388a46 46 0 0 1 1.32 3.767c.56 1.882 1.057 3.781 1.578 5.666-2.519.854-2.959.563-2.956-1.882.004-2.478.017-4.957.061-7.551z" data-color="2"/>
            <path fill="#E2ECFF" d="M18.383 140.177c-1.727-1.502-3.417-3.171-5.15-4.944.01-.115.067-.125.121-.129q5.127-.227 5.029 5.073" data-color="3"/>
            <path fill="#2F54EC" d="M155.634 176.965c-1.195.451-2.279.837-3.365 1.224-.055-.122-.105-.248-.16-.37l7.836-4.337.342.58c-1.514.946-3.031 1.896-4.656 2.903z" data-color="2"/>
            <path fill="#2F54EC" d="M67.772 151.545c1.27 1.062 2.516 2.276 3.81 3.584q-3.861.556-3.81-3.584" data-color="2"/>
            <path fill="#E2ECFF" d="M21.003 116.144c-1.175-.98-2.326-2.102-3.531-3.319q3.62-.631 3.531 3.319" data-color="3"/>
            <path fill="#E2ECFF" d="M30.237 160.869c-1.158-.959-2.262-2.051-3.433-3.238.098-.125.26-.172.426-.186 3.133-.275 3.556.183 3.01 3.424z" data-color="3"/>
            <path fill="#E2ECFF" d="M73.227 175.551c1.002.79 1.98 1.732 3 2.777-.01.112-.064.128-.122.128q-2.936.133-2.881-2.909z" data-color="3"/>
            <path fill="#0A0C14" d="M165.545 115.324c1.551 3.543 3.017 7.011 4.541 10.575 1.161 4.543 2.265 8.995 3.433 13.586.342 4.818.589 9.5-.796 14.074-.342 1.129-.802 2.221-1.229 3.472-2.543 4.74-6.247 7.626-11.6 8.053-3.569.285-7.023-.471-10.145-2.038-3.345-1.678-6.434-3.868-9.742-5.872-5.885-5.246-11.015-11.027-15.423-17.567-2.33-4.557-4.599-9.039-6.949-13.603-1.134-3.54-2.18-6.995-3.304-10.552-.545-4.123-1.26-8.134-1.399-12.168-.091-2.601.379-5.307 1.077-7.836 2.617-9.484 10.328-13.529 19.768-10.66 6.027 1.83 11.035 5.252 15.562 9.517 6.498 6.117 11.916 13.061 16.203 21.022m-49.881-5.022c.85 3.425 1.697 6.846 2.537 10.518 2.573 7.89 6.369 15.139 11.492 21.958 1.503 1.898 2.912 3.878 4.527 5.675 4.236 4.72 8.933 8.897 14.872 11.891 2.211.767 4.405 1.574 6.633 2.286 2.665.851 4.69 0 6.169-2.628 3.617-5.374 4.203-11.325 3.383-17.818-.105-.722-.179-1.448-.318-2.16-1.334-6.866-3.393-13.474-7.064-19.753-2.373-3.445-4.75-6.89-7.195-10.548-4.385-5.446-9.366-10.226-15.559-13.583-4.974-2.696-10.134-4.621-15.979-3.516-1.534.288-2.35 1.048-2.787 2.516-1.456 4.909-1.632 9.86-.707 15.166z" data-color="1"/>
            <path fill="#0A0C14" d="M68.327 79.519c-1.906 3.475-3.779 6.832-5.692 10.304-1.575 1.973-3.027 3.916-4.676 5.669-.989 1.048-2.215 1.933-3.467 2.658-3.684 2.133-7.037 1.207-9.16-2.509-1.832-3.21-2.482-6.801-2.54-10.406-.077-4.777.23-9.561.377-14.501.863-4.625 1.723-9.09 2.573-13.681 1.571-5.106 3.108-10.104 4.757-15.068.708-2.133 1.64-4.19 2.486-6.408 1.578-3.069 3.142-6.012 4.754-9.056 1.852-2.54 3.49-5.137 5.53-7.361 1.445-1.577 3.31-2.9 5.217-3.893 3.048-1.587 5.679-.76 7.65 2.062 2.427 3.475 2.847 7.534 3.108 11.585.386 5.978-.095 11.922-1.047 17.987-.788 3.825-1.584 7.49-2.4 11.284-2.492 7.158-4.96 14.19-7.467 21.337m8.577-41.29c.46-6.005.512-11.966-1.682-17.957-3.57 2.458-5.892 5.53-8.087 9.03a1927 1927 0 0 1-4.831 8.964c-2.147 6.188-4.294 12.379-6.593 18.753-.857 4.398-1.713 8.799-2.716 13.444-.098.84-.227 1.675-.294 2.52-.468 5.62-.915 11.253.23 16.837.359 1.756 1.134 3.431 1.855 5.54 4.616-4.123 7.514-8.748 10.078-13.922 1.55-3.699 3.101-7.401 4.821-11.273 1.802-6.5 3.6-13 5.5-19.717.548-3.97 1.096-7.944 1.723-12.223z" data-color="1"/>
            <path fill="#2F54EC" d="M157.916 120.521c3.647 6.032 5.703 12.641 7.037 19.507.138.715.213 1.441.142 2.302-9.755.135-19.331.125-28.907.129-2.194 0-4.388.061-6.583.095-5.038-6.592-8.834-13.841-11.245-21.863 13.294-.146 26.425-.159 39.553-.173z" data-color="2"/>
            <path fill="#E2ECFF" d="M129.646 142.669a97 97 0 0 1 6.538-.207c9.576-.007 19.152.007 28.884.003 1.022 6.219.436 12.169-3.42 17.581-4.406.064-8.57.088-12.735.115-5.77-2.804-10.463-6.981-14.703-11.701-1.615-1.797-3.023-3.781-4.567-5.791z" data-color="3"/>
            <path fill="#2F54EC" d="M115.678 110.011c-.944-5.012-.765-9.962.691-14.872.437-1.468 1.253-2.224 2.787-2.515 5.844-1.106 11.008.82 15.979 3.516 6.189 3.356 11.17 8.137 15.433 13.711-11.712.139-23.303.149-34.89.156z" data-color="2"/>
            <path fill="#E2ECFF" d="M115.668 110.16c11.597-.156 23.188-.166 34.934-.197 2.533 3.425 4.91 6.866 7.297 10.436-13.118.136-26.245.15-39.536.17-1.009-3.414-1.855-6.839-2.695-10.409" data-color="3"/>
            <path fill="#2F54EC" d="M149.001 160.256c4.08-.119 8.245-.146 12.576-.129-1.168 2.512-3.193 3.36-5.858 2.509-2.228-.712-4.422-1.519-6.718-2.38" data-color="2"/>
            <path fill="#2F54EC" d="M55.863 56.836c2.147-6.188 4.294-12.38 6.606-18.621 4.314 4.116 8.466 8.286 12.614 12.453-1.802 6.5-3.6 13-5.587 19.53-4.67-4.435-9.153-8.9-13.633-13.366z" data-color="2"/>
            <path fill="#E2ECFF" d="M55.789 56.93c4.557 4.374 9.037 8.84 13.622 13.36-1.45 3.753-3 7.456-4.734 11.192-3.969-3.73-7.75-7.493-11.536-11.26.856-4.398 1.713-8.799 2.648-13.291" data-color="3"/>
            <path fill="#2F54EC" d="M53.07 70.344c3.853 3.642 7.639 7.408 11.522 11.226-2.292 5.046-5.19 9.67-9.806 13.793-.72-2.112-1.496-3.784-1.855-5.54-1.141-5.584-.698-11.216-.23-16.838a29 29 0 0 1 .365-2.641z" data-color="2"/>
            <path fill="#E2ECFF" d="M75.133 50.563c-4.198-4.062-8.35-8.232-12.596-12.453a126 126 0 0 1 4.771-8.792c3.288 3.082 6.403 6.154 9.522 9.222-.549 3.97-1.097 7.944-1.697 12.023" data-color="3"/>
            <path fill="#2F54EC" d="M76.867 38.384c-3.156-2.916-6.275-5.987-9.474-9.147 1.94-3.435 4.263-6.507 7.832-8.962 2.19 5.991 2.143 11.952 1.645 18.113z" data-color="2"/>
        </g>
        <defs fill="none">
            <clipPath id="f708f79a-eb2c-4864-b864-21f9f4db643c">
                <path fill="#ffffff" d="M180 .816v180H0v-180z"/>
            </clipPath>
        </defs>
    </g>
</svg>
