<?xml version="1.0" encoding="UTF-8"?>
<svg data-bbox="0.652 0.175 147 159.002" xmlns="http://www.w3.org/2000/svg" viewBox="0 0 148 160" height="160" width="148" data-type="color">
    <g>
        <g clip-path="url(#a38b88ba-c654-43d8-ac0f-b0cae099ed4f)">
            <path fill="#0A0C14" d="M73.116 144.811c-.055 2.462-.137 4.792-.154 7.122-.008 1.041-.575 1.381-1.475 1.362-1.42-.03-2.836-.148-4.253-.151-18.39-.039-36.776-.074-55.165-.085-3.162 0-6.315-.354-9.482-.143-1.247.082-1.86-.601-1.866-1.836-.019-3.796-.03-7.592-.069-11.387-.008-.914.507-1.249 1.285-1.238 2.84.044 5.683-.167 8.52.123.363.039.731.064 1.095.064 11.372.013 22.745.024 34.117.024.44 0 .916.148 1.32-.181.166-.425-.15-.691-.324-.993-4.92-8.569-9.837-17.14-14.77-25.7-2.056-3.568-4.161-7.106-6.222-10.671-1.852-3.2-1.742-4.874.52-7.786 2.394-3.08 5.514-5.185 9.105-6.64.41-.167.812-.35 1.527-.66-2.152-.204-3.97-.212-5.784-.056-1.97.17-3.94.082-5.91.058-1.274-.017-1.866-.728-1.896-2.02-.261-11.2-.223-22.407-.283-33.61-.009-1.391.707-2.058 1.975-2.121 1.83-.094 3.67-.162 5.498-.075 7.561.366 15.128-.032 22.687.215 9.947.323 19.894.159 29.842.274.588.005 1.177.09 1.805.003-2.496-.695-4.986-1.4-7.488-2.08-14.008-3.805-28.017-7.598-42.025-11.399-1.882-.51-2.07-1.081-.751-2.478C43.06 23.648 51.64 14.56 60.215 5.468c1.287-1.367 2.575-2.731 3.835-4.12.957-1.054 2.075-1.405 3.47-1.023a618 618 0 0 0 10.351 2.769c1.357.346 2.086 1.142 2.441 2.473 2.102 7.898 4.246 15.786 6.367 23.68 1.613 5.996 3.258 11.988 4.793 18.004.323 1.262.854 1.699 2.147 1.696 8.345-.022 16.691.027 25.037.052 2.512.008 2.74.236 2.74 2.736 0 8.14-.008 16.284.014 24.424.006 2.053.124 4.109.185 6.162.019.636.107 1.281-.366 1.96 1.615.875 3.114 1.728 4.65 2.519 6.846 3.518 13.678 7.062 20.18 11.198 1.891 1.202 1.998 1.473.848 3.466-4.549 7.882-9.103 15.765-13.651 23.65-6.266 10.854-12.525 21.712-18.788 32.569-.985 1.707-1.351 1.864-3.032.914-7.655-4.328-15.294-8.689-22.938-13.039-1.035-.59-2.075-1.167-3.101-1.77-1.34-.788-1.442-1.161-.655-2.528 3.657-6.34 7.311-12.685 10.993-19.012 4.416-7.591 8.86-15.169 13.293-22.75 2.493-4.264 4.994-8.524 7.487-12.789.363-.62.685-1.265 1.035-1.91-.666-.445-1.274-.269-1.841-.244-5.214.244-10.426.51-15.64.776-1.464.075-2.925.204-4.39.248-1.846.057-2.099-.132-2.49-1.98-.786-3.73-2.3-7.13-4.58-10.176-3.184-4.251-7.359-7.21-12.243-9.238-1.112-.461-2.06-.069-3.032.346-8.153 3.49-13.39 9.523-15.789 18.031-1.06 3.76-.322 3.252-4.356 3.283-2.548.019-5.099.002-7.572.002 4.675 8.064 9.298 16.045 13.926 24.026 2.685 4.63 5.354 9.271 8.065 13.888 2.548 4.333 2.149 7.048-1.635 10.473-1.8 1.63-3.816 2.969-5.982 4.183.468.408.944.244 1.37.247 3.346.024 6.695.013 10.041.043 1.357.014 1.882.525 1.742 1.861-.143 1.378.047 2.739-.028 4.241m45.21-83.476c.302-1.979.209-4.012.949-5.936.217-.566.14-1.271.088-1.905-.187-2.3-.748-2.753-3.054-2.77-8.572-.062-17.146-.082-25.717-.186-13.524-.162-27.051-.118-40.578-.148-2.243-.006-2.972.722-2.977 2.937-.017 9.01-.023 18.018-.03 27.028 0 .412-.006.826.035 1.235.116 1.142.506 1.345 1.535.774 1.159-.645 2.262-1.389 3.545-1.798 1.645-.524 2.935-1.518 3.612-3.129.55-1.309 1.44-2.316 2.482-3.23a14.4 14.4 0 0 0 1.797-1.872c5.534-6.927 12.44-11.296 21.587-11.6 7.864-.262 14.82 2.06 20.832 7.08 3.786 3.162 6.197 7.309 7.908 11.865.52 1.38 1.442 1.877 2.752 1.633 1.535-.286 3.005-.79 4.16-1.96.507-.51.878-1.06.955-1.767.231-2.136.63-4.293.256-6.423-.564-3.194-.223-6.378-.137-9.825m-16.738 89.527c2.779 1.597 5.569 3.173 8.331 4.8 2.543 1.499 2.526 1.524 4.089-1.026.193-.313.388-.62.57-.939q9.648-16.765 19.3-33.53c3.695-6.419 7.391-12.842 11.114-19.247.393-.678.467-1.101-.289-1.548a427 427 0 0 0-14.834-8.369c-.862-.463-1.291-.197-1.737.58a3559 3559 0 0 1-9.683 16.744c-4.983 8.582-9.977 17.156-14.966 25.736-2.366 4.073-4.705 8.159-7.107 12.21-.592.994-.413 1.496.602 2.001 1.517.755 2.959 1.649 4.607 2.585M45.138 92.84c-4.158 5.528-9.906 8.166-16.625 8.857.013 1.013.509 1.587.866 2.21q3.965 6.897 7.964 13.777c3.747 6.444 7.528 12.869 11.254 19.325.701 1.218 1.656 1.696 3.024 1.723 2.451.047 4.713-.593 6.865-1.682 3.346-1.696 6.417-3.736 8.409-7.045.677-1.123.903-2.21.173-3.467-6.546-11.272-13.053-22.566-19.583-33.846-.278-.483-.418-1.141-1.125-1.246-.542.286-.735.835-1.217 1.392M68.99 40.933c1.673.92 3.473 1.356 5.371 1.54 1.789.175 3.511.505 4.551 2.33.529.925 2.804.99 3.701.453.886-.533 1.852-1.098 2.846-1.25 1.062-.161 1.263-.554.987-1.426-.404-1.277-.344-2.638-.696-3.9-.462-1.653.284-3.242.025-4.867-.24-1.495-.671-2.933-1.082-4.385-1.045-3.686-2.014-7.397-3.037-11.088-.22-.793-.537-1.587-1.112-2.185-1.178-1.224-1.722-2.736-1.805-4.339-.08-1.608-.484-3.014-1.508-4.287-.77.285-1.21.958-1.73 1.507a5587 5587 0 0 0-14.16 14.941 1155 1155 0 0 0-8.632 9.214c-.402.433-1.15.872-.79 1.589.316.625 1.037.892 1.747.941.82.06 1.662.16 2.468.047 3.297-.461 5.963.892 8.536 2.703 1.296.911 2.476 2.061 4.317 2.462M44.092 147.839c1.09.145 2.177.318 3.27.428 2.14.214 3.345-.234 3.783-1.666.803-2.632 3.04-3.412 5.239-4.136 1.599-.527 1.654-.363 2.482-1.878-5.748-.12-11.43-.17-17.11.011-1.098.036-1.943.752-2.782 1.455.51.436.947.771 1.332 1.156.374.373.966.702.746 1.35-.215.623-.883.609-1.404.678-1.092.142-2.193.219-3.238.587-.944.329-1.027.821-.237 1.444.834.658 1.855.801 2.865.787 1.601-.019 3.203-.137 5.054-.214m-19.776-7.322q-.407.051-.82.099c-2.559.277-3.384 1.172-3.381 3.68 0 .914 0 1.828.022 2.745.041 1.869.704 2.275 2.418 1.427 1.024-.508 1.946-1.375 3.016-1.603 2.463-.524 3.86-3.14 6.549-3.159.275 0 .567-.554.809-.881.253-.34.792-.585.5-1.153-.296-.576-.935-.568-1.334-.4-1.629.68-3.186.197-4.804-.006-.982-.123-1.753-.831-2.977-.749z" data-color="1"/>
            <path fill="#2F54EC" d="m78.507 5.267-32.96 31.62 44.778 12.345z" data-color="2"/>
            <path fill="#2F54EC" d="M46.098 49.625v34.949h9.96S58.806 61.34 82.76 61.34c17.66 0 28.625 20.532 28.625 20.532h8.038V49.907L46.1 49.623z" data-color="2"/>
            <path fill="#2F54EC" d="M18.882 140.154v11.911h52.355v-12.718z" data-color="2"/>
        </g>
        <defs fill="none">
            <clipPath id="a38b88ba-c654-43d8-ac0f-b0cae099ed4f">
                <path fill="#ffffff" d="M147.65.176v159H.65v-159z"/>
            </clipPath>
        </defs>
    </g>
</svg>
