<?xml version="1.0" encoding="UTF-8"?>
<svg data-bbox="0.741 0.598 147.998 59.302" xmlns="http://www.w3.org/2000/svg" viewBox="0 0 149 60" height="60" width="149" data-type="color">
    <g>
        <g clip-path="url(#be0941cc-6dbb-43fe-bbb7-30a921b30919)">
            <path fill="#E53238" d="M19.88 13.537C9.44 13.537.741 17.966.741 31.327c0 10.584 5.85 17.25 19.407 17.25 15.958 0 16.98-10.512 16.98-10.512h-7.732s-1.658 5.66-9.72 5.66c-6.566 0-11.29-4.436-11.29-10.653h29.551V29.17c0-6.15-3.905-15.633-18.059-15.633m-.27 4.986c6.25 0 10.512 3.83 10.512 9.57H8.559c0-6.094 5.562-9.57 11.05-9.57" data-color="1"/>
            <path fill="#0064D2" d="M37.933.6v41.267c0 2.343-.167 5.632-.167 5.632h7.375s.264-2.363.264-4.521c0 0 3.644 5.7 13.552 5.7 10.433 0 17.52-7.243 17.52-17.621 0-9.654-6.51-17.419-17.504-17.419-10.294 0-13.493 5.56-13.493 5.56V.598zM57.07 18.742c7.085 0 11.59 5.258 11.59 12.314 0 7.567-5.203 12.517-11.54 12.517-7.561 0-11.64-5.904-11.64-12.45 0-6.098 3.66-12.381 11.59-12.381" data-color="2"/>
            <path fill="#F5AF02" d="M94.805 13.537c-15.704 0-16.711 8.599-16.711 9.973h7.816s.41-5.02 8.356-5.02c5.163 0 9.164 2.363 9.164 6.907v1.617h-9.164c-12.166 0-18.598 3.559-18.598 10.781 0 7.108 5.943 10.976 13.974 10.976 10.945 0 14.47-6.048 14.47-6.048 0 2.405.186 4.776.186 4.776h6.949s-.27-2.938-.27-4.818V26.433c0-10.654-8.593-12.896-16.172-12.896m8.625 18.329v2.156c0 2.812-1.735 9.804-11.952 9.804-5.595 0-7.994-2.792-7.994-6.03 0-5.892 8.078-5.93 19.946-5.93" data-color="3"/>
            <path fill="#86B817" d="M106.768 14.886h8.794l12.62 25.284 12.591-25.284h7.966L125.804 59.9h-8.356l6.619-12.548z" data-color="4"/>
        </g>
        <defs fill="none">
            <clipPath id="be0941cc-6dbb-43fe-bbb7-30a921b30919">
                <path fill="#ffffff" d="M148.788.55v59.398H.693V.55z"/>
            </clipPath>
        </defs>
    </g>
</svg>
