<?xml version="1.0" encoding="UTF-8"?>
<svg data-bbox="0.405 0.37 295.715 65.773" xmlns="http://www.w3.org/2000/svg" viewBox="0 0 297 67" height="67" width="297" data-type="color">
    <g>
        <g clip-path="url(#0646c66e-27c1-4e40-9fd9-d8e7821d2b24)">
            <path fill="#000000" d="M63.202 43.058c5.756-16.861-3.248-35.195-20.11-40.95-16.86-5.755-35.195 3.25-40.949 20.11-5.755 16.86 3.248 35.195 20.11 40.95 16.861 5.754 35.195-3.25 40.95-20.11" data-color="1"/>
            <path fill="#FFC94C" d="M5.357 49.802c5.021-2.395 22.108-10.782 25.476-12.756 2.765-1.612 6.884-3.989 6.884-3.989l1.747 3.56 2.668 17.548 2.038-1.176 1.354-24.51c4.118-2.573 7.745-5.078 11.542-7.698 1.392-.96 2.806-1.938 4.275-2.938q-.698-1.35-1.518-2.625c-1.601.77-3.154 1.507-4.68 2.232-4.17 1.978-8.151 3.867-12.44 6.144l-21.901-11.08-2.038 1.177 13.862 11.083 2.206 3.288.004.006s-4.117 2.378-6.897 3.968C24.547 33.966 8.736 44.572 4.153 47.72q.565 1.065 1.204 2.082" data-color="2"/>
            <path fill="#000000" d="M289.88 25.458v-3.54h6.24v32.259h-6.421v-3.664c-2.29 2.67-5.513 4.432-10.169 4.432-9.172 0-15.065-7.31-15.065-16.878 0-9.503 5.893-16.88 15.065-16.88 4.074 0 7.853 1.539 10.35 4.271m-.432 6.332c-1.901-2.813-5.116-4.544-8.894-4.544-5.679 0-9.589 4.807-9.589 10.82 0 6.015 3.768 10.965 9.589 10.965 3.889 0 7.034-2.216 8.894-5.088z" data-color="1"/>
            <path fill="#000000" d="M251.54 13.612c0-2.48 2.03-4.483 4.537-4.483 2.427 0 4.484 2.057 4.484 4.483 0 2.506-2.005 4.537-4.484 4.537a4.536 4.536 0 0 1-4.537-4.537" data-color="1"/>
            <path fill="#000000" d="M252.714 54.178h6.673V21.916h-6.673z" data-color="1"/>
            <path fill="#000000" d="M239.673 9.955h6.527v44.222h-6.422v-3.664c-2.289 2.67-5.51 4.431-10.169 4.431-9.172 0-15.065-7.309-15.065-16.877 0-9.503 5.893-16.88 15.065-16.88 3.923 0 7.569 1.425 10.064 3.968zm-.144 21.835c-1.9-2.814-5.115-4.544-8.896-4.544-5.677 0-9.587 4.807-9.587 10.82 0 6.015 3.766 10.965 9.587 10.965 3.89 0 7.037-2.216 8.896-5.088z" data-color="1"/>
            <path fill="#000000" d="M203.68 53.363q-3.562 1.624-7.933 1.635c-9.603-.01-16.538-7.085-16.538-16.96 0-9.68 6.945-16.957 16.158-16.957 9.147 0 15.757 7.477 15.757 16.69 0 .777-.029 1.544-.087 2.315l-.002.018q-.005.1-.014.197h-25.085c.627 4.942 4.962 8.696 9.944 8.696 2.11 0 3.982-.414 5.626-1.234 1.658-.872 3.147-1.95 4.47-3.355l.009-.01 3.985 4.246q-2.704 3.082-6.29 4.718m-8.451-26.407c4.742 0 8.432 3.346 9.075 7.833h-18.209c.297-1.886 1.371-3.805 2.946-5.274 1.642-1.531 3.814-2.56 6.188-2.56" clip-rule="evenodd" fill-rule="evenodd" data-color="1"/>
            <path fill="#000000" d="M150.891 50.943v15.2h-6.53V21.92h6.422v3.664c2.291-2.668 5.512-4.432 10.17-4.432 9.171 0 15.065 7.31 15.065 16.878 0 9.503-5.894 16.88-15.065 16.88-3.922 0-7.569-1.424-10.062-3.968m.144-6.635c1.9 2.814 5.115 4.544 8.895 4.544 5.676 0 9.588-4.807 9.588-10.82s-3.768-10.965-9.588-10.965c-3.89 0-7.036 2.216-8.895 5.09z" data-color="1"/>
            <path fill="#000000" d="m121.21 37.593-11.379-15.674h8.056l7.589 10.69 7.59-10.69h7.948L129.586 37.66l11.957 16.518h-8.063l-8.09-11.417-8.088 11.417h-8.099z" data-color="1"/>
            <path fill="#000000" d="M88.334 35.252h16.759v-6.33H88.334v-11.5h18.209v-6.33h-25.5v43.086h25.632v-6.33H88.334z" data-color="1"/>
        </g>
        <defs fill="none">
            <clipPath id="0646c66e-27c1-4e40-9fd9-d8e7821d2b24">
                <path fill="#ffffff" d="M296.515.37v65.82H.324V.37z"/>
            </clipPath>
        </defs>
    </g>
</svg>
