<?xml version="1.0" encoding="UTF-8"?>
<svg data-bbox="0.164 0.37 293.782 56.875" xmlns="http://www.w3.org/2000/svg" viewBox="0 0 297 62" height="62" width="297" data-type="color">
    <g>
        <g clip-path="url(#2772c82e-8068-4946-b59b-175de84e447f)">
            <path fill="#1877F2" d="M23.15 9.277c-3.459 0-4.459 1.534-4.459 4.918v5.613h9.226l-.925 9.068h-8.297v27.52H7.623v-27.52H.164v-9.068h7.459v-5.46C7.623 5.203 11.311.37 21.602.37a52 52 0 0 1 6.451.384v8.534z" data-color="1"/>
            <path fill="#1877F2" d="M28.685 36.948c0-10.223 4.842-17.922 14.99-17.922 5.534 0 8.914 2.846 10.53 6.38v-5.598h10.606v36.588H54.205v-5.534c-1.538 3.538-4.996 6.304-10.53 6.304-10.148 0-14.99-7.688-14.99-17.92zm11.068 2.462c0 5.456 1.997 9.068 7.147 9.068 4.538 0 6.843-3.304 6.843-8.53v-3.674c0-5.226-2.305-8.53-6.843-8.53-5.15 0-7.147 3.612-7.147 9.068z" data-color="1"/>
            <path fill="#1877F2" d="M87.872 19.037c4.302 0 8.377.925 10.606 2.459l-2.459 7.842a17.4 17.4 0 0 0-7.38-1.692c-5.996 0-8.602 3.46-8.602 9.38v2.151c0 5.921 2.613 9.38 8.603 9.38a17.4 17.4 0 0 0 7.38-1.692l2.458 7.84c-2.229 1.537-6.301 2.462-10.606 2.462-12.993 0-18.91-6.997-18.91-18.22v-1.691c0-11.223 5.917-18.22 18.91-18.22" data-color="1"/>
            <path fill="#1877F2" d="M99.937 39.5v-3.227c0-10.376 5.917-17.204 17.989-17.204 11.377 0 16.373 6.917 16.373 17.065v5.842h-23.298c.233 4.996 2.463 7.226 8.603 7.226 4.154 0 8.534-.846 11.763-2.23l2.025 7.581c-2.921 1.541-8.917 2.692-14.218 2.692-14.012-.004-19.237-6.993-19.237-17.746m11.068-4.768h13.376v-.921c0-3.997-1.613-7.169-6.451-7.169-5 .004-6.925 3.158-6.925 8.076z" data-color="1"/>
            <path fill="#1877F2" d="M175.327 39.256c0 10.222-4.917 17.92-15.054 17.92-5.534 0-9.376-2.766-10.914-6.304v5.534h-10.452V1.434L149.976.431v24.444c1.612-3.225 5.15-5.842 10.301-5.842 10.147 0 15.054 7.688 15.054 17.922zm-11.068-2.538c0-5.15-1.997-8.993-7.301-8.993-4.538 0-6.997 3.226-6.997 8.455v3.843c0 5.226 2.459 8.455 6.997 8.455 5.304 0 7.301-3.842 7.301-8.993z" data-color="1"/>
            <path fill="#1877F2" d="M179.03 39.023V37.18c0-10.534 5.997-18.143 18.219-18.143s18.222 7.61 18.222 18.144v1.842c0 10.53-5.996 18.144-18.218 18.144-12.223 0-18.223-7.613-18.223-18.144m25.369-2.613c0-4.842-1.999-8.685-7.168-8.685s-7.151 3.842-7.151 8.685v3.384c0 4.842 2 8.684 7.151 8.684s7.168-3.842 7.168-8.684z" data-color="1"/>
            <path fill="#1877F2" d="M219.153 39.023V37.18c0-10.534 5.997-18.143 18.219-18.143s18.219 7.61 18.219 18.144v1.842c0 10.53-5.997 18.144-18.219 18.144s-18.219-7.613-18.219-18.144m25.369-2.613c0-4.842-2-8.685-7.15-8.685s-7.147 3.842-7.147 8.685v3.384c0 4.842 1.996 8.684 7.147 8.684s7.15-3.842 7.15-8.684z" data-color="1"/>
            <path fill="#1877F2" d="m270.809 37.256 10.915-17.449h11.759l-11.451 18.065 11.914 18.524h-11.76l-11.377-17.922v17.922h-11.072V1.433L270.809.431z" data-color="1"/>
        </g>
        <defs fill="none">
            <clipPath id="2772c82e-8068-4946-b59b-175de84e447f">
                <path fill="#ffffff" d="M296.355.37v61.119H.164V.37z"/>
            </clipPath>
        </defs>
    </g>
</svg>
