<?xml version="1.0" encoding="UTF-8"?>
<svg data-bbox="0.284 0.198 294.975 64.14" xmlns="http://www.w3.org/2000/svg" viewBox="0 0 297 65" height="65" width="297" data-type="ugc">
    <g>
        <g clip-path="url(#0bf49949-5988-4800-affb-9e0e3feec97c)">
            <path fill="url(#b31a5d91-8d3f-4c18-98ab-ec16067a39f6)" d="M17.727 44.155c-.003 13.3-.012 13.443-.924 15.387-2.098 4.472-7.05 6.064-11.572 3.719-1.516-.786-2.4-1.592-3.255-2.964 0 0-.797-.983-1.173-1.884-.377-.9-.508-4.973-.517-8.17-.01-3.35 0-6.881.517-8.563.254-.828 1.173-1.884 1.173-1.884 1.5-2.408 4.427-4.043 7.238-4.043h1.901v5.022H9.928c-1.438 0-3.3.9-3.63 1.756-.133.343-.242 3.814-.242 7.712 0 0-.442 6.056 0 6.825.442.768 1.026 1.063 1.026 1.063 1.359 1.062 2.949 1.143 4.289 0 0 0 .335-.17.93-1.063s.288-13.169.288-13.169l.113-13.169h5.029z" clip-rule="evenodd" fill-rule="evenodd"/>
            <path fill="url(#3bf1a0cc-423b-4b7c-aaa3-3704be5c4c1c)" d="M11.115 14.698c0 2.379-.048 2.511-.915 2.511-1.445 0-3.347.789-3.763 1.56-.685 1.272-.445 3.268.5 4.149.856.798 1.234.823 14.313.936 0 0 10.32.221 12.29.38 1.972.16 3.074.723 3.074.723 2.701 1.38 4.174 3.564 4.389 6.503.201 2.77-.387 4.684-2.003 6.511-2.232 2.524-3.358 2.786-12.026 2.795l-7.686.009v-5.023h7.23s6.332.043 7.023-.218 1.344-.91 1.344-.91c1.344-1.336 1.494-2.984.394-4.334 0 0-.54-.471-1.33-.664-.788-.194-13.198-.44-13.198-.44s-11.223.15-13.472-.557-2.21-.802-2.21-.802c-4.922-3.023-5.448-10.085-1.02-13.72 1.63-1.339 3.055-1.835 5.412-1.885l1.654-.035z" clip-rule="evenodd" fill-rule="evenodd"/>
            <path fill="url(#873969e4-2999-49ac-acd4-804003e2d472)" d="M43.671.787c2.19.645 4.328 2.476 5.322 4.557 1.391 2.909.498 7.365-1.928 9.624-2.309 2.149-2.965 2.241-15.895 2.241H19.288v-5.022h11.11c13.288 0 13.796-.13 13.796-3.526 0-.7-.955-2.093-.955-2.093s-.211-.247-1.143-.685-11.018-.25-11.018-.25c-8.195.008-11.372.138-11.824.482-1.344 1.025-1.523 2.097-1.523 9.137v6.98h-5.059V14.46c0-7.634.018-7.803 1.01-9.613 1.156-2.107 2.711-3.383 4.991-4.092 2.445-.76 22.4-.735 24.998.03" clip-rule="evenodd" fill-rule="evenodd"/>
            <path fill="#2B0866" d="M59.62 45.777v-27.21h19.212v5.089H65.054v7.61h12.862v4.763H65.054v9.747zm21.023-9.87q0-4.579 2.991-7.388 3.013-2.828 7.835-2.828 4.823 0 7.836 2.828 3.052 2.809 3.052 7.388 0 4.558-3.052 7.366-3.013 2.83-7.836 2.83-4.822 0-7.835-2.83-2.991-2.808-2.991-7.367m5.291 0q0 2.604 1.486 4.11 1.505 1.506 4.05 1.506 2.564 0 4.07-1.546 1.505-1.547 1.506-4.111 0-2.605-1.506-4.111-1.486-1.526-3.989-1.526-2.565 0-4.09 1.567-1.527 1.546-1.527 4.11m30.994-10.176q.712 0 .916.041v4.925h-.997q-5.251 0-5.251 6.085v8.995h-5.21v-19.72h4.579l.468 2.707q.53-1.405 1.994-2.219 1.466-.814 3.501-.814m22.691 8.873q0 1.364-.163 2.422H125.17q.122 2.157 1.852 3.378 1.73 1.2 4.721 1.2 4.233 0 7.265-1.79v4.721q-3.154 1.608-7.936 1.608-5.292 0-8.202-2.788-2.95-2.83-2.951-7.448 0-4.6 2.789-7.388 2.827-2.828 7.407-2.828 4.294 0 6.878 2.462 2.626 2.442 2.626 6.451m-14.327-1.16h9.117q-.122-1.486-1.343-2.38-1.22-.917-3.073-.917t-3.114.896a3.96 3.96 0 0 0-1.587 2.401m21.673 12.332V30.432h-5.047v-4.375h5.047v-5.291l5.17-.326v5.617h5.066v4.375h-5.066v15.345zm13.676 0V17.653h5.169V28.48q.874-1.323 2.503-2.056a8.4 8.4 0 0 1 3.5-.732q3.5 0 5.372 1.953 1.873 1.954 1.873 5.454v12.679h-5.21V34.014q0-3.867-3.663-3.867-2.075 0-3.236 1.262-1.139 1.242-1.139 3.276v11.091zm22.405-9.87q0-4.578 2.992-7.387 3.012-2.828 7.835-2.828t7.835 2.828q3.053 2.809 3.053 7.388 0 4.558-3.053 7.366-3.011 2.83-7.835 2.83t-7.835-2.83q-2.992-2.808-2.992-7.367m5.292 0q0 2.605 1.485 4.111 1.507 1.506 4.05 1.506 2.565 0 4.07-1.546t1.506-4.111q0-2.605-1.506-4.111-1.486-1.526-3.988-1.526-2.565 0-4.091 1.567-1.526 1.546-1.526 4.11m38.829-9.85v19.72h-4.783l-.427-2.462q-.875 1.282-2.544 2.056-1.669.773-3.663.773-3.357 0-5.21-1.934-1.831-1.932-1.831-5.23v-12.92h5.209v11.681q0 1.73.855 2.85.874 1.098 2.808 1.098 2.036 0 3.195-1.221 1.18-1.222 1.181-3.154V26.057zm4.192 9.586q0-4.457 2.747-7.204 2.808-2.747 7.204-2.747 4.538 0 6.878 2.584l.245-2.218h4.558v17.216q0 4.946-3.133 7.632-3.115 2.706-8.629 2.747-4.499.06-7.794-1.465v-4.823q3.602 1.75 7.346 1.75 3.236 0 5.128-1.363 1.914-1.344 1.913-3.643V42.48q-.997 1.363-2.869 2.157-1.873.773-4.131.773-4.315 0-6.919-2.727-2.544-2.666-2.544-7.041m16.463 0v-.407q0-2.28-1.587-3.683-1.566-1.405-4.05-1.405-2.421 0-3.989 1.486-1.546 1.485-1.546 3.887 0 2.421 1.506 3.927 1.546 1.486 3.988 1.486 2.483 0 4.05-1.445 1.629-1.506 1.628-3.846m10.542 10.134V17.653h5.169V28.48q.876-1.323 2.503-2.056a8.4 8.4 0 0 1 3.5-.732q3.501 0 5.373 1.953t1.872 5.454v12.679h-5.21V34.014q0-3.867-3.663-3.867-2.075 0-3.236 1.262-1.139 1.242-1.139 3.276v11.091zm26.659 0V30.432h-5.047v-4.375h5.047v-5.291l5.169-.326v5.617h5.067v4.375h-5.067v15.345z"/>
        </g>
        <defs fill="none">
            <linearGradient gradientUnits="userSpaceOnUse" y2="64.338" x2="9.008" y1="30.73" x1="9.008" id="b31a5d91-8d3f-4c18-98ab-ec16067a39f6">
                <stop stop-color="#C539F8"/>
                <stop stop-color="#913FF3" offset="1"/>
            </linearGradient>
            <linearGradient gradientUnits="userSpaceOnUse" y2="40.318" x2="38.236" y1="14.856" x1="3.448" id="3bf1a0cc-423b-4b7c-aaa3-3704be5c4c1c">
                <stop stop-color="#348EF6"/>
                <stop stop-color="#2AD4E6" offset=".656"/>
                <stop stop-color="#4AA3EB" offset="1"/>
            </linearGradient>
            <linearGradient gradientUnits="userSpaceOnUse" y2="10.074" x2="37.458" y1="16.887" x1="12.636" id="873969e4-2999-49ac-acd4-804003e2d472">
                <stop stop-color="#9B19FF"/>
                <stop stop-color="#3378F0" offset="1"/>
            </linearGradient>
            <clipPath id="0bf49949-5988-4800-affb-9e0e3feec97c">
                <path fill="#ffffff" d="M296.403.16v64.25H.212V.16z"/>
            </clipPath>
        </defs>
    </g>
</svg>
