<?xml version="1.0" encoding="UTF-8"?>
<svg data-bbox="0.372 0.159 295.806 80.819" xmlns="http://www.w3.org/2000/svg" viewBox="0 0 297 81" height="81" width="297" data-type="shape">
    <g>
        <g clip-path="url(#56c4ee33-92e4-4460-9d98-abb7b0381e6a)">
            <path d="M.372 26.693H26.94l27.18 27.142H26.94v27.143L.372 53.835zm0-26.534H54.12v26.534H26.94z"/>
            <path d="M104.681 57.49V17.279h24.683v8.103h-15.389v10.55h15.389v7.95h-15.389V57.49z"/>
            <path d="M134.938 57.49V29.83h9.251v6.231c.152-1.975 1.062-3.647 2.427-5.015 1.365-1.216 3.185-1.824 5.005-1.824 1.213 0 1.82.608 2.427.608v8.055h-2.427c-2.123-.304-4.246.76-5.612 2.431-1.213 1.216-1.82 3.648-1.82 6.687V57.49z"/>
            <path d="M171.373 51.394c1.972.304 3.944-.759 4.854-2.43 1.214-1.367 1.821-3.037 1.821-4.86 0-1.973-.607-3.948-1.821-5.466-1.213-1.367-3.034-1.974-4.854-1.822-1.82 0-3.64.607-5.006 1.822-1.213 1.518-1.972 3.493-1.82 5.467 0 1.822.607 3.645 1.82 4.86 1.214 1.518 3.034 2.43 5.006 2.43m-2.427 7.29a13.4 13.4 0 0 1-9.86-4.253c-2.123-3.037-3.185-6.681-3.033-10.478 0-2.43.455-5.011 1.213-7.29 1.062-2.277 2.882-4.1 4.854-5.618 1.972-1.215 4.399-1.823 6.826-1.823 1.821.152 3.793.456 5.461 1.215 1.517.76 2.579 2.126 3.034 3.645v-4.404h9.253v27.639h-9.253v-3.645c-.758 1.367-1.82 2.582-3.034 3.645-1.668.911-3.489 1.215-5.461 1.367"/>
            <path d="M193.86 57.58V29.683h8.675v4.446c.608-1.84 1.826-2.453 3.043-3.68 1.522-.766 3.196-1.072 5.022-1.226 4.262 0 7.457 1.84 8.675 5.059l3.652-3.679c1.826-.766 3.653-1.073 5.631-1.226 6.696 0 9.892 3.679 9.892 11.19v17.321h-8.675V42.1a8.3 8.3 0 0 0-1.217-4.292c-.913-.767-1.979-1.227-3.196-1.227-1.522-.153-2.891.613-3.652 1.84-.913 1.533-1.37 3.219-1.218 4.905V57.58h-8.674V42.099a8.3 8.3 0 0 0-1.218-4.292c-.761-.767-1.978-1.227-3.043-1.227-1.37.154-2.74.767-3.653 1.84-.913 1.533-1.369 3.219-1.217 4.905V57.58z"/>
            <path d="M251.755 40.837h11.882a8.26 8.26 0 0 0-1.234-4.308c-1.235-1.231-2.469-1.231-4.321-1.231-1.698 0-3.395.461-4.938 1.23-.926 1.232-1.389 2.77-1.389 4.309m20.524 1.23v4.308h-20.678c0 1.693.617 3.231 1.851 4.308 1.235.923 2.778 1.385 4.321 1.231 3.086 0 4.321-.616 5.556-2.462h8.796c-.618 2.924-2.469 5.385-4.939 6.77-2.932 1.538-6.172 2.462-9.413 2.462-4.938 0-8.796-1.231-11.265-4.308-2.777-2.77-4.475-6.616-4.475-10.616 0-4.154 1.543-8.154 4.475-11.232 2.469-2.461 6.173-3.692 11.265-3.692 3.858-.154 7.716 1.23 10.648 3.692 2.623 2.616 4.012 6 3.858 9.54"/>
            <path d="M277.068 57.49V29.83h8.714v6.231c.611-1.824 1.682-3.495 3.058-5.015 1.375-1.216 3.057-1.824 4.892-1.824.611 0 1.835.608 2.446.608v8.055h-3.058c-1.987-.152-3.821.912-4.892 2.431-1.834 1.216-2.446 3.648-2.446 6.687V57.49z"/>
        </g>
        <defs fill="none">
            <clipPath id="56c4ee33-92e4-4460-9d98-abb7b0381e6a">
                <path fill="#ffffff" d="M296.563.16v80.819H.372V.16z"/>
            </clipPath>
        </defs>
    </g>
</svg>
