<?xml version="1.0" encoding="UTF-8"?>
<svg data-bbox="0.923 0.16 295.8 97.605" xmlns="http://www.w3.org/2000/svg" viewBox="0 0 297 99" height="99" width="297" data-type="ugc">
    <g>
        <g clip-path="url(#3faaa038-b421-475d-b950-fc16e5a9cf1b)">
            <path fill="#001B38" d="M.924 16.401C.924 7.431 8.196.16 17.166.16h52.082v23.113a8.12 8.12 0 0 1-8.12 8.121H39.966a7.81 7.81 0 0 0-7.809 7.809v50.442a8.12 8.12 0 0 1-8.12 8.12H.923z"/>
            <path fill="url(#f61cd526-d962-4759-ae32-b0c3c03e3ca7)" d="M19.08 39.396c0 11.644 9.439 21.083 21.082 21.083s21.083-9.439 21.083-21.083-9.44-21.082-21.083-21.082S19.08 27.753 19.08 39.396"/>
            <path fill="url(#09e5534d-02b0-4f9d-84be-8fa4c91ac50c)" d="M19.08 39.396c0 11.644 9.439 21.083 21.082 21.083s21.083-9.439 21.083-21.083-9.44-21.082-21.083-21.082S19.08 27.753 19.08 39.396" opacity=".5"/>
            <path fill="#061B36" d="M154.447 47.795v-7.531h-10.385V82.91h7.004c.897 0 1.756-.356 2.391-.992a3.4 3.4 0 0 0 .99-2.395V62.77c0-8.123 2.616-13.794 9.205-13.794h6.67V40.26h-4.984c-5.487.003-8.778 2.116-10.891 7.533m39.938-8.208c-13.005 0-22.291 9.31-22.291 22s9.29 21.998 22.291 21.998c12.92 0 22.206-9.308 22.206-21.999s-9.286-21.999-22.206-21.999m0 35.031c-7.092 0-11.821-5.331-11.821-13.032s4.729-13.032 11.821-13.032c7.008 0 11.737 5.332 11.737 13.032s-4.729 13.032-11.737 13.032m52.183-35.03c-6.077 0-10.891 2.62-13.257 7.275v-6.598h-10.385v42.646h7.004c.896 0 1.756-.357 2.39-.992a3.4 3.4 0 0 0 .991-2.395v-19.88c0-6.26 4.053-10.83 9.877-10.83 5.321 0 8.866 4.061 8.866 9.901v24.201h7.004a3.38 3.38 0 0 0 2.39-.992 3.4 3.4 0 0 0 .992-2.395V56.512c.003-9.987-6.248-16.925-15.872-16.925m50.155 6.006v-5.329h-11.82V27.402h-10.384v10.069c0 2.03-1.016 2.79-2.703 2.79h-5.658v8.717h8.361v19.04c0 9.477 6.08 14.891 15.366 14.891h6.838v-9.394h-5.658c-3.884 0-6.165-2.199-6.165-6.514V48.978h8.44a3.37 3.37 0 0 0 3.126-2.088c.169-.41.257-.851.257-1.296m-194.287-11.17v48.488h7.765c.896 0 1.756-.357 2.39-.993.633-.635.99-1.496.99-2.395V58.032h22.628v-9.647h-22.628v-12.1a2.97 2.97 0 0 1 .865-2.094 2.96 2.96 0 0 1 2.09-.867h21.867a3.38 3.38 0 0 0 2.39-.993c.633-.635.99-1.497.99-2.395v-6.26h-28.624c-5.92.003-10.723 4.813-10.723 10.749"/>
        </g>
        <defs fill="none">
            <linearGradient gradientUnits="userSpaceOnUse" y2="55.516" x2="57.019" y1="23.592" x1="25.314" id="f61cd526-d962-4759-ae32-b0c3c03e3ca7">
                <stop stop-opacity=".16" stop-color="#FF0057"/>
                <stop stop-color="#FF0057" offset=".861"/>
            </linearGradient>
            <linearGradient gradientUnits="userSpaceOnUse" y2="55.516" x2="57.019" y1="23.592" x1="25.314" id="09e5534d-02b0-4f9d-84be-8fa4c91ac50c">
                <stop stop-opacity=".16" stop-color="#FF0057"/>
                <stop stop-color="#FF0057" offset=".861"/>
            </linearGradient>
            <clipPath id="3faaa038-b421-475d-b950-fc16e5a9cf1b">
                <path fill="#ffffff" d="M296.723.16v97.984H.532V.16z"/>
            </clipPath>
        </defs>
    </g>
</svg>
