<?xml version="1.0" encoding="UTF-8"?>
<svg data-bbox="0 0.896 265.999 99.149" xmlns="http://www.w3.org/2000/svg" viewBox="0 0 266 101" height="101" width="266" data-type="color">
    <g>
        <path fill="#FFFCF7" d="m85.615 49.416-5.223-1.922-5.224-1.922c-5.165 14.045-17.312 16.253-25.336 13.301L42.276 79.42S57.532 85.6 64.91 65.535l2.16.794c-2.538 9.154-8.592 15.957-16.917 18.695-11.88 3.908-27.919.968-34.2-10.717-2.243-4.172-3.34-9.155-3.172-14.41.28-8.74 3.933-17.1 9.928-23.55 4.734 5.986 11.77 10.136 20.285 11.876 9.379 1.916 22.059 2.173 29.214-7.486 2.755-3.721 3.752-7.914 2.88-12.127-1.034-4.997-4.76-9.678-10.225-12.843-8.133-4.712-18.312-5.558-28.664-2.384a54 54 0 0 0-7.929 3.166c-.457-3.994-.176-8.316.872-12.652L16.736.896c-1.945 8.042-1.884 16.209.072 23.395C6.728 33.3.451 46.046.023 59.491c-.238 7.498 1.382 14.712 4.688 20.862 7.16 13.32 21.34 19.062 34.949 19.061 5.032 0 9.99-.786 14.481-2.264 12.223-4.021 21.128-13.605 24.952-26.4l1.77.653c-7.38 20.065 7.05 23.984 7.05 23.984l7.556-20.546c-8.024-2.952-15.02-11.38-9.854-25.427zM34.6 27.669a41 41 0 0 1 5.341-2.082c4.007-1.23 11.742-2.703 18.524 1.225 2.524 1.463 3.89 3.255 4.123 4.384.056.273.174.843-.638 1.94-3.152 4.255-10.66 3.75-16.403 2.578-3.307-.676-8.93-2.473-12.722-7.158q.875-.466 1.775-.889z" data-color="1"/>
        <path fill="#FFFCF7" d="M150.803 45.96h-6.376l-2.227-4.95q-2.6 2.692-6.175 4.178a19.2 19.2 0 0 1-7.444 1.485q-5.448 0-10.306-2.754-4.86-2.755-7.83-7.83-3.126-5.2-3.126-12.38c0-4.788 1.037-8.645 3.111-12.132q3.11-5.231 8.495-8.016Q124.187.897 130.221.897c4.024 0 7.331.8 10.539 2.4q4.811 2.397 7.783 6.855l-9.192 6.777q-1.454-2.662-3.915-4.116-2.46-1.455-5.463-1.455a10.5 10.5 0 0 0-4.085.805q-1.92.806-3.419 2.29-1.502 1.485-2.368 3.823-.867 2.337-.867 5.184 0 3.062.975 5.525.975 2.46 2.599 3.991a11.6 11.6 0 0 0 3.667 2.352q2.043.821 4.302.82 3.002.001 5.432-1.361t3.699-3.775q-4.55-.092-7.861-.402-2.536-.247-5.695-1.207l2.352-8.046q3.219.773 6.655 1.053 3.435.278 8.789.278h6.654v23.273z" data-color="1"/>
        <path fill="#FFFCF7" d="M172.654 12.752q5.075 0 9.067 2.12t6.221 5.989q2.197 3.93 2.197 8.883 0 7.552-4.875 12.24-4.876 4.688-12.612 4.688c-5.158 0-9.3-1.562-12.55-4.688q-4.875-4.69-4.875-12.24 0-7.553 4.875-12.272t12.55-4.72zm-5.942 16.99q0 3.499 1.655 5.386t4.287 1.888c1.754 0 3.275-.623 4.379-1.872q1.656-1.873 1.655-5.4c0-2.351-.552-4.194-1.655-5.463q-1.657-1.903-4.379-1.903c-1.815 0-3.235.64-4.317 1.919q-1.625 1.92-1.625 5.447z" data-color="1"/>
        <path fill="#FFFCF7" d="M210.103 12.752q5.075 0 9.067 2.12t6.221 5.989q2.197 3.93 2.197 8.883 0 7.552-4.875 12.24t-12.612 4.688c-5.157 0-9.3-1.562-12.55-4.688q-4.875-4.69-4.875-12.24 0-7.553 4.875-12.272t12.55-4.72zm-5.942 16.99q.001 3.499 1.655 5.386 1.657 1.888 4.287 1.888c1.754 0 3.275-.623 4.379-1.872q1.656-1.873 1.656-5.4c0-2.351-.553-4.194-1.656-5.463q-1.656-1.903-4.379-1.903c-1.815 0-3.235.64-4.317 1.919q-1.626 1.92-1.625 5.447z" data-color="1"/>
        <path fill="#FFFCF7" d="M265.996 1.579V45.96h-11.018v-3.684q-3.745 4.395-10.151 4.395-3.496 0-6.328-1.392-2.832-1.394-4.643-3.776-1.81-2.383-2.769-5.493t-.96-6.608q0-3.87 1.208-7.071 1.207-3.203 3.264-5.262a14.8 14.8 0 0 1 4.72-3.188 14.3 14.3 0 0 1 5.633-1.13q6.035 0 9.626 4.488V1.58h11.421zm-24.326 28.35q0 3.28 1.811 5.214t4.502 1.934c1.795 0 3.384-.67 4.705-2.012q1.981-2.011 1.981-5.261 0-3.002-1.733-4.952-1.732-1.95-4.797-1.95c-2.044 0-3.605.646-4.751 1.935q-1.717 1.933-1.718 5.091" data-color="1"/>
        <path fill="#FFFCF7" d="M107.319 65.35V54.952h20.921q9.346 0 14.454-1.578l2.662 10.213q-3.189.99-6.16 1.377-2.971.386-7.52.386v33.983h-11.73V65.35z" data-color="1"/>
        <path fill="#FFFCF7" d="M157.705 66.124q5.075 0 9.068 2.12t6.22 5.988q2.198 3.931 2.198 8.883 0 7.552-4.876 12.24-4.875 4.689-12.611 4.689c-5.158 0-9.3-1.563-12.55-4.688q-4.876-4.69-4.876-12.24 0-7.553 4.876-12.272 4.874-4.72 12.55-4.72zm-5.942 16.99q0 3.498 1.656 5.385 1.656 1.89 4.286 1.889c1.754 0 3.275-.624 4.38-1.872q1.656-1.873 1.655-5.4c0-2.352-.553-4.194-1.655-5.463q-1.657-1.904-4.38-1.904c-1.815 0-3.235.64-4.317 1.92q-1.625 1.919-1.625 5.447z" data-color="1"/>
        <path fill="#FFFCF7" d="M226.66 99.333h-6.376l-2.228-4.952q-2.6 2.693-6.175 4.179a19.2 19.2 0 0 1-7.443 1.485q-5.448 0-10.306-2.754-4.86-2.755-7.831-7.83-3.125-5.2-3.125-12.38c0-4.789 1.036-8.646 3.11-12.133q3.111-5.231 8.495-8.016 5.262-2.661 11.297-2.661c4.023 0 7.33.8 10.539 2.4q4.811 2.397 7.783 6.855l-9.192 6.777q-1.455-2.662-3.915-4.116-2.462-1.455-5.463-1.455-2.167 0-4.086.805-1.92.806-3.419 2.29-1.501 1.485-2.367 3.823-.868 2.337-.868 5.184 0 3.063.976 5.525.975 2.46 2.599 3.991a11.6 11.6 0 0 0 3.667 2.353 11.4 11.4 0 0 0 4.301.82q3.002 0 5.433-1.362 2.429-1.362 3.699-3.775-4.55-.092-7.861-.402-2.537-.247-5.696-1.207l2.353-8.046q3.219.773 6.654 1.053 3.435.278 8.789.278h6.654v23.274z" data-color="1"/>
        <path fill="#FFFCF7" d="M248.51 66.124q5.075 0 9.067 2.12t6.221 5.988q2.197 3.931 2.197 8.883 0 7.552-4.875 12.24t-12.611 4.689c-5.158 0-9.301-1.563-12.551-4.688q-4.875-4.69-4.875-12.24 0-7.553 4.875-12.272t12.551-4.72zm-5.942 16.99q0 3.498 1.656 5.385 1.656 1.89 4.286 1.889c1.754 0 3.275-.624 4.379-1.872q1.656-1.873 1.656-5.4c0-2.352-.553-4.194-1.656-5.463q-1.656-1.904-4.379-1.904c-1.815 0-3.235.64-4.317 1.92q-1.625 1.919-1.625 5.447z" data-color="1"/>
    </g>
</svg>
