<?xml version="1.0" encoding="UTF-8"?>
<svg data-bbox="1.499 0.44 294.487 46.657" xmlns="http://www.w3.org/2000/svg" viewBox="0 0 297 48" height="48" width="297" data-type="color">
    <g>
        <g clip-path="url(#339ebedc-38c0-4645-ae73-ed1b4862e5dc)">
            <path fill="#757575" d="m178.86 16.84 4.119 10.813h-7.982zm-1.545-3.604-9.011 23.685h3.347l2.318-6.436h10.04l2.318 6.436h3.347l-9.011-23.685zm48.655 23.685h3.089V13.236h-3.089zm-31.675-13.903c1.03-1.545 3.089-2.831 5.149-2.831 4.119 0 6.179 2.831 6.179 6.951v10.04h-3.089v-9.526c0-3.347-1.801-4.633-4.119-4.633-2.574 0-4.376 2.575-4.376 4.892v9.01h-3.089V20.445h3.089l.257 2.574zm13.904 9.012c0-3.604 3.347-5.664 7.208-5.664 2.318 0 3.863.516 4.377 1.031v-.515c0-2.575-2.059-3.863-4.118-3.863-1.802 0-3.348.773-3.863 2.318l-2.824-1.289c.516-1.545 2.575-3.862 6.705-3.862 3.862 0 7.208 2.317 7.208 6.951v9.783h-2.832v-2.328h-.257c-.772 1.287-2.574 2.832-5.406 2.832-3.347 0-6.179-2.06-6.179-5.407zm11.604-2.072s-1.287-1.03-3.862-1.03c-3.089 0-4.377 1.8-4.377 3.088 0 1.801 1.801 2.575 3.347 2.575 2.318 0 4.891-2.06 4.891-4.633" data-color="1"/>
            <path fill="#757575" d="m233.427 44.128 3.604-8.505-6.436-14.932h3.089l4.891 11.328 4.892-11.328h3.088l-10.038 23.437zm45.309-18.02c-.773-2.06-2.574-3.346-4.376-3.346-2.574 0-4.891 2.317-4.891 5.663s2.318 5.664 4.891 5.664c1.802 0 3.605-1.287 4.377-3.09l2.575 1.546c-1.287 2.832-3.863 4.633-6.952 4.633-4.376 0-7.981-3.863-7.981-8.753 0-5.15 3.605-8.753 7.981-8.753 3.089 0 5.664 1.8 6.952 4.633l-2.575 1.8z" clip-rule="evenodd" fill-rule="evenodd" data-color="1"/>
            <path fill="#757575" d="M289.807 37.436c4.119 0 6.179-2.318 6.179-5.15 0-6.179-9.01-3.862-9.01-7.465 0-1.286 1.03-2.059 2.831-2.059 1.802 0 3.605.773 4.377 2.06l1.801-1.802c-1.03-1.286-3.862-3.089-6.436-3.089-3.862 0-5.921 2.318-5.921 5.15 0 5.92 9.268 3.862 9.268 6.951 0 1.545-1.03 2.575-3.089 2.575-2.058 0-3.089-1.287-4.118-2.575l-2.318 1.801c1.545 1.545 3.863 3.605 6.436 3.605zm-29.349-.516h3.089V20.445h-3.089z" data-color="1"/>
            <path fill="#757575" d="M261.746 12.464c1.287 0 2.06 1.03 2.06 2.06 0 1.286-1.031 2.058-2.06 2.058-1.028 0-2.059-1.03-2.059-2.059s1.031-2.06 2.059-2.06m-4.375 21.884.515 2.317h-3.089c-2.832 0-4.119-2.059-4.119-5.149v-7.981h-3.089v-3.09h3.089v-4.89h3.089v4.89h3.605v3.09h-3.605v8.505c0 2.318 1.801 2.318 3.605 2.318z" clip-rule="evenodd" fill-rule="evenodd" data-color="1"/>
            <path fill="#757575" d="M67.632 22.761v3.863h9.011c-.257 2.059-1.03 3.604-2.06 4.633-1.286 1.286-3.346 2.831-6.95 2.831-5.407 0-9.784-4.376-9.784-10.04 0-5.406 4.377-10.04 9.783-10.04 3.09 0 5.15 1.286 6.704 2.574l2.575-2.575c-2.317-2.059-5.15-3.862-9.268-3.862-7.465 0-13.902 6.179-13.902 13.645s6.426 13.644 13.892 13.644c4.119 0 7.209-1.287 9.526-3.863 2.575-2.575 3.347-5.92 3.347-8.754 0-.772 0-1.8-.257-2.317H67.641zm22.913-3.079c-4.891 0-8.754 3.605-8.754 8.754 0 5.15 3.863 8.752 8.754 8.752s8.754-3.862 8.754-8.752c0-5.15-3.863-8.754-8.754-8.754m0 14.16c-2.575 0-4.891-2.318-4.891-5.407s2.317-5.407 4.891-5.407 4.891 2.06 4.891 5.407-2.317 5.406-4.891 5.406m42.221-12.359c-1.03-1.03-2.574-2.059-4.891-2.059-4.377 0-8.238 3.863-8.238 8.754 0 4.89 3.862 8.752 8.238 8.752 2.059 0 3.863-1.03 4.633-2.06h.257v1.288c0 3.347-1.801 5.15-4.633 5.15-2.317 0-3.862-1.802-4.377-3.09l-3.347 1.287c1.031 2.317 3.605 5.15 7.723 5.15 4.633 0 8.506-2.575 8.506-9.269v-15.96h-3.605v2.06zm-4.377 12.358c-2.574 0-4.633-2.317-4.633-5.406 0-3.09 2.06-5.407 4.633-5.407s4.633 2.318 4.633 5.407-2.059 5.406-4.633 5.406m-18.794-14.159c-4.891 0-8.753 3.605-8.753 8.754 0 5.15 3.862 8.752 8.753 8.752s8.754-3.862 8.754-8.752c.257-5.15-3.863-8.754-8.754-8.754m0 14.16c-2.574 0-4.891-2.318-4.891-5.407s2.318-5.407 4.891-5.407 4.891 2.06 4.891 5.407-2.317 5.406-4.891 5.406m29.865-23.438h3.862v26.774h-3.862zm14.417 23.427c-2.06 0-3.347-1.03-4.377-2.574l11.843-4.892-.516-1.03c-.772-2.06-3.089-5.664-7.465-5.664-4.633 0-8.238 3.604-8.238 8.754 0 4.89 3.863 8.752 8.754 8.752 4.118 0 6.436-2.574 7.465-3.862l-3.089-2.06c-1.031 1.546-2.318 2.575-4.377 2.575zm-.257-10.813c1.545 0 2.831.773 3.347 2.06l-7.981 3.347c0-3.863 2.574-5.407 4.633-5.407z" data-color="1"/>
            <path fill="#F9AB00" d="M30.656 6.007V41c0 3.915 2.704 6.097 5.567 6.097 2.651 0 5.567-1.856 5.567-6.097V6.272c0-3.59-2.65-5.832-5.567-5.832-2.916 0-5.567 2.473-5.567 5.567" data-color="2"/>
            <path fill="#E37400" d="M16.076 23.768v17.231c0 3.916 2.704 6.098 5.567 6.098 2.65 0 5.567-1.856 5.567-6.098V24.033c0-3.59-2.651-5.832-5.567-5.832s-5.567 2.473-5.567 5.567" data-color="3"/>
            <path fill="#E37400" d="M7.062 47.097a5.567 5.567 0 1 0 0-11.134 5.567 5.567 0 0 0 0 11.134" data-color="3"/>
        </g>
        <defs fill="none">
            <clipPath id="339ebedc-38c0-4645-ae73-ed1b4862e5dc">
                <path fill="#ffffff" d="M296.836.37V47.4H.645V.37z"/>
            </clipPath>
        </defs>
    </g>
</svg>
