<?xml version="1.0" encoding="UTF-8"?>
<svg data-bbox="0.932 0.179 147.682 134.936" xmlns="http://www.w3.org/2000/svg" viewBox="0 0 149 136" height="136" width="149" data-type="color">
    <g>
        <g clip-path="url(#a14f5c04-d205-4f55-a7b6-96c8e1ed311b)">
            <path fill="#3C8BD9" d="M51.188 17.17c1.427-3.748 3.39-7.197 6.304-9.992C69.15-4.182 88.42-1.328 96.33 12.947c5.948 10.824 12.252 21.411 18.378 32.117 10.23 17.783 20.579 35.567 30.69 53.41 8.505 14.928-.714 33.782-17.605 36.339-10.349 1.547-20.043-3.211-25.396-12.49-8.981-15.642-18.022-31.284-27.002-46.867-.179-.357-.417-.654-.655-.952-.951-.773-1.367-1.903-1.962-2.914-3.985-7.018-8.089-13.977-12.074-20.935-2.557-4.52-5.234-8.981-7.791-13.501-2.32-4.045-3.39-8.446-3.271-13.085.178-2.38.475-4.758 1.546-6.9" data-color="1"/>
            <path fill="#FABC04" d="M51.188 17.17c-.535 2.14-1.01 4.282-1.13 6.542-.178 4.996 1.07 9.635 3.569 13.977a6286 6286 0 0 1 19.567 33.842c.595 1.011 1.07 2.022 1.665 2.974a2972 2972 0 0 1-10.765 18.497c-4.995 8.624-9.991 17.307-15.047 25.931-.238 0-.297-.119-.357-.297-.06-.476.12-.892.238-1.368 2.439-8.921.416-16.832-5.71-23.612-3.747-4.104-8.505-6.423-13.977-7.197-7.137-1.01-13.441.833-19.091 5.294-1.011.773-1.666 1.903-2.855 2.498-.238 0-.357-.12-.416-.298 2.854-4.936 5.65-9.873 8.505-14.81C27.16 58.685 38.936 38.225 50.772 17.825c.119-.238.297-.416.416-.654" data-color="2"/>
            <path fill="#34A852" d="M7.116 94.131c1.13-1.01 2.2-2.081 3.39-3.033 14.453-11.42 36.162-3.152 39.314 14.929.773 4.341.357 8.505-.952 12.668-.06.357-.119.654-.238 1.011-.535.952-1.01 1.963-1.605 2.914-5.294 8.743-13.085 13.085-23.315 12.431-11.717-.833-20.936-9.635-22.541-21.292-.774-5.651.356-10.944 3.27-15.821.596-1.07 1.31-2.022 1.963-3.093.298-.238.179-.714.714-.714" data-color="3"/>
            <path fill="#FABC04" d="M7.116 94.132c-.238.238-.238.654-.654.713-.06-.416.178-.654.416-.951z" data-color="2"/>
            <path fill="#E1C025" d="M48.63 119.706c-.237-.416 0-.714.238-1.011l.238.238z" data-color="4"/>
        </g>
        <defs fill="none">
            <clipPath id="a14f5c04-d205-4f55-a7b6-96c8e1ed311b">
                <path fill="#ffffff" d="M148.788.16v135.011H.693V.16z"/>
            </clipPath>
        </defs>
    </g>
</svg>
