<?xml version="1.0" encoding="UTF-8"?>
<svg data-bbox="1.035 0.546 294.55 42.787" xmlns="http://www.w3.org/2000/svg" viewBox="0 0 297 44" height="44" width="297" data-type="color">
    <g>
        <g clip-path="url(#2c1cc1e4-bd18-4910-8407-aab288613425)">
            <path fill="#5F6368" d="M212.674 22.262v11.62h-3.481v-27.1h15.819v3.329h-12.338v8.894h11.129v3.256z" data-color="1"/>
            <path fill="#5F6368" d="M226.591 24.609q0-4.276 2.687-7.077 2.725-2.801 6.85-2.801t6.812 2.8q2.725 2.802 2.725 7.078 0 4.315-2.725 7.077-2.687 2.801-6.812 2.801t-6.85-2.8q-2.688-2.802-2.687-7.078m3.481 0q0 2.99 1.741 4.843 1.74 1.855 4.315 1.854 2.574 0 4.314-1.854t1.741-4.843q0-2.952-1.741-4.807-1.779-1.892-4.314-1.892-2.538 0-4.315 1.892-1.74 1.855-1.741 4.807" data-color="1"/>
            <path fill="#5F6368" d="M248.625 15.337h3.331v2.572h.151q.796-1.36 2.442-2.27t3.426-.908q3.406-.001 5.24 1.948 1.836 1.949 1.836 5.546V33.88h-3.482V22.45q-.113-4.543-4.579-4.542-2.083 0-3.482 1.685-1.402 1.684-1.401 4.03V33.88h-3.482z" data-color="1"/>
            <path fill="#5F6368" d="M275.765 34.184q-2.272 0-3.767-1.402-1.495-1.399-1.533-3.896v-10.37h-3.253v-3.178h3.253V9.66h3.483v5.678h4.54v3.178h-4.54v9.234q0 1.855.719 2.518c.479.443 1.022.66 1.626.66q.417 0 .815-.092a4 4 0 0 0 .738-.249l1.098 3.104q-1.364.492-3.179.493" data-color="1"/>
            <path fill="#5F6368" d="M295.585 28.734q-.001 2.423-2.12 4.088-2.12 1.664-5.336 1.665-2.803 0-4.922-1.458a8 8 0 0 1-3.027-3.84l3.101-1.325q.684 1.665 1.988 2.593 1.307.926 2.86.927 1.666 0 2.781-.72 1.116-.717 1.116-1.703 0-1.778-2.724-2.611l-3.18-.795q-5.413-1.363-5.413-5.223 0-2.536 2.062-4.067 2.064-1.534 5.282-1.534 2.459 0 4.447 1.173c1.324.784 2.251 1.828 2.779 3.142l-3.102 1.286q-.53-1.172-1.721-1.836-1.194-.661-2.669-.662-1.363 0-2.442.682-1.078.68-1.078 1.665 0 1.59 2.988 2.27l2.804.72q5.525 1.363 5.526 5.563" data-color="1"/>
            <path fill="#5F6368" d="M89.87 34.477c-8.479 0-15.61-6.874-15.61-15.318S81.39 3.84 89.87 3.84c4.694 0 8.032 1.831 10.548 4.222l-2.968 2.95c-1.8-1.68-4.24-2.988-7.58-2.988-6.192 0-11.033 4.97-11.033 11.134s4.841 11.135 11.034 11.135c4.014 0 6.305-1.608 7.77-3.064 1.2-1.196 1.989-2.914 2.287-5.269H89.87v-4.184h14.149c.15.746.224 1.645.224 2.616 0 3.138-.864 7.023-3.642 9.789-2.702 2.8-6.152 4.295-10.731 4.295" data-color="1"/>
            <path fill="#5F6368" d="M126.131 24.614c0 5.678-4.387 9.863-9.768 9.863-5.379 0-9.764-4.185-9.764-9.863 0-5.717 4.385-9.863 9.764-9.863 5.381 0 9.768 4.146 9.768 9.863m-4.275 0c0-3.55-2.546-5.978-5.493-5.978s-5.491 2.428-5.491 5.978c0 3.511 2.544 5.978 5.491 5.978s5.493-2.467 5.493-5.978" data-color="1"/>
            <path fill="#5F6368" d="M148.021 24.614c0 5.678-4.387 9.863-9.768 9.863-5.377 0-9.764-4.185-9.764-9.863 0-5.717 4.387-9.863 9.764-9.863 5.381 0 9.768 4.146 9.768 9.863m-4.275 0c0-3.55-2.544-5.978-5.493-5.978-2.947 0-5.489 2.428-5.489 5.978 0 3.511 2.542 5.978 5.489 5.978 2.949 0 5.493-2.467 5.493-5.978" data-color="1"/>
            <path fill="#5F6368" d="M169.361 15.348v17.71c0 7.287-4.314 10.275-9.418 10.275-4.804 0-7.693-3.214-8.781-5.828l3.788-1.57c.676 1.606 2.327 3.511 4.993 3.511 3.264 0 5.292-2.015 5.292-5.79v-1.42h-.15c-.976 1.196-2.853 2.24-5.216 2.24-4.955 0-9.497-4.294-9.497-9.824 0-5.567 4.542-9.901 9.497-9.901 2.363 0 4.24 1.046 5.216 2.205h.15v-1.608zm-3.827 9.303c0-3.473-2.327-6.015-5.29-6.015-3.003 0-5.518 2.542-5.518 6.015 0 3.438 2.515 5.94 5.518 5.94 2.963 0 5.29-2.502 5.29-5.94" data-color="1"/>
            <path fill="#5F6368" d="M176.993 33.878h-4.354V4.888h4.354z" data-color="1"/>
            <path fill="#5F6368" d="m194.105 27.864 3.378 2.24c-1.086 1.608-3.715 4.371-8.255 4.371-5.628 0-9.694-4.33-9.694-9.86 0-5.866 4.101-9.863 9.207-9.863 5.142 0 7.656 4.071 8.481 6.275l.449 1.12-13.247 5.455c1.014 1.98 2.589 2.99 4.804 2.99 2.213 0 3.753-1.084 4.877-2.728m-10.395-3.55 8.858-3.66c-.489-1.232-1.951-2.092-3.679-2.092-2.213 0-5.289 1.941-5.179 5.752" data-color="1"/>
            <path fill="#FBBC04" d="M1.035 38.396 24.895.55h14.809v5.265L19.135 38.396" data-color="2"/>
            <path fill="#1A73E8" d="M39.704 38.396h-14.81V.55h14.81z" data-color="3"/>
            <path fill="#34A853" d="M50.4 27.7c0 5.908-4.789 10.696-10.696 10.696V17.005c5.907 0 10.696 4.788 10.696 10.696" data-color="4"/>
            <path fill="#0D652D" d="M39.704 38.396c-5.907 0-10.696-4.788-10.696-10.695 0-5.908 4.789-10.696 10.696-10.696z" data-color="5"/>
            <path fill="#1A73E8" d="M47.931 8.777a8.227 8.227 0 0 1-8.227 8.228V.55a8.227 8.227 0 0 1 8.227 8.227" data-color="3"/>
            <path fill="#174EA6" d="M39.704 17.005a8.227 8.227 0 1 1 0-16.455z" data-color="6"/>
            <path fill="#EA4335" d="M1.857 7.955a7.405 7.405 0 1 1 14.811 0 7.405 7.405 0 0 1-14.81 0" data-color="7"/>
        </g>
        <defs fill="none">
            <clipPath id="2c1cc1e4-bd18-4910-8407-aab288613425">
                <path fill="#ffffff" d="M296.403.55v42.783H.212V.55z"/>
            </clipPath>
        </defs>
    </g>
</svg>
