<?xml version="1.0" encoding="UTF-8"?>
<svg data-bbox="0.64 12.376 860.608 343.664" xmlns="http://www.w3.org/2000/svg" viewBox="0 0 919 357" height="357" width="919" data-type="color">
    <g>
        <path fill="#2F54EC" d="M9.344 103V12.376h19.584V103zm37.098 0V35.416H63.21v13.312c3.328-9.344 11.136-15.232 20.864-15.232 9.6 0 16.768 5.76 19.584 14.976 3.328-9.216 11.136-14.976 20.736-14.976 12.416 0 20.736 9.472 20.736 23.808V103h-18.048V59.48c0-8.704-3.712-13.44-10.496-13.44-6.912 0-11.776 6.528-11.776 17.664V103H86.762V59.48c0-8.704-3.712-13.44-10.496-13.44-6.912 0-11.776 6.528-11.776 17.664V103zm151.62 1.92c-9.344 0-16.896-4.864-20.352-12.672V103h-16.768V12.376h18.048v32.512c3.712-7.168 11.008-11.392 19.712-11.392 14.976 0 26.24 13.952 26.24 35.2 0 22.656-11.648 36.224-26.88 36.224m-6.016-11.136c8.32 0 13.696-7.296 13.696-24.448 0-17.536-6.016-24.96-14.592-24.96-6.4 0-12.16 5.248-12.16 16.896v15.104c0 11.776 5.504 17.408 13.056 17.408m45.143-67.072V12.376h18.432v14.336zm.128 76.288V35.416h18.048V103zm34.5 0V35.416h16.768v13.44c3.456-9.344 11.648-15.36 21.888-15.36 12.928 0 21.76 9.472 21.76 23.808V103h-18.048V59.48c0-8.704-4.096-13.44-11.648-13.44-7.424 0-12.672 6.528-12.672 17.664V103zm91.101 1.792c-11.776 0-19.84-7.296-19.84-17.664 0-10.624 6.144-17.152 21.632-20.608 14.72-3.2 18.432-6.4 18.432-11.776 0-4.992-4.48-9.216-12.16-9.216-8.064 0-14.208 5.12-15.744 13.824h-10.112c1.92-15.744 13.824-25.856 30.464-25.856 16.384 0 26.752 9.728 26.752 24.192v28.928c0 5.12 1.92 7.168 6.656 7.424V103c-2.048.768-5.248 1.28-8.704 1.28-9.216 0-14.336-4.48-15.616-11.776-3.84 7.68-11.52 12.288-21.76 12.288m7.552-11.904c8.064 0 13.824-5.888 13.824-14.976V66.008c-2.176 3.328-6.144 5.888-12.416 8.064-7.552 2.688-10.496 6.272-10.496 10.88 0 4.736 3.456 7.936 9.088 7.936M418.692 103V35.416h16.768v13.312c3.328-9.344 11.136-15.232 20.864-15.232 9.6 0 16.768 5.76 19.584 14.976 3.328-9.216 11.136-14.976 20.736-14.976 12.416 0 20.736 9.472 20.736 23.808V103h-18.048V59.48c0-8.704-3.712-13.44-10.496-13.44-6.912 0-11.776 6.528-11.776 17.664V103h-18.048V59.48c0-8.704-3.712-13.44-10.496-13.44-6.912 0-11.776 6.528-11.776 17.664V103zM34.56 219.536c-15.104 0-22.912-8.064-22.912-23.296v-34.432H.64v-8.832c11.264-1.664 16.512-6.656 18.944-19.712h10.112v17.152h15.232v11.392H29.696v32.256c0 10.624 3.968 14.592 11.264 14.592 1.92 0 3.584-.256 5.12-.768V218c-2.816 1.024-6.784 1.536-11.52 1.536m49.816.384c-19.584 0-33.28-13.696-33.28-35.456 0-21.376 14.336-35.968 33.024-35.968 18.048 0 31.104 12.8 31.104 36.48H70.04c.512 15.616 7.68 23.04 18.56 23.04 8.192 0 14.848-5.248 17.28-14.208h10.112c-3.2 16.512-15.232 26.112-31.616 26.112m-.64-61.312c-6.784 0-11.648 5.376-13.184 16.64h25.472c-.896-11.136-5.504-16.64-12.288-16.64m73.012 61.312c-19.2 0-33.152-13.696-33.152-35.328 0-22.016 14.208-36.096 34.048-36.096 19.328 0 33.024 13.824 33.024 35.2 0 22.272-14.336 36.224-33.92 36.224m.64-10.24c8.192 0 14.08-7.04 14.08-25.088 0-17.664-6.016-25.856-14.592-25.856-8.32 0-14.08 7.168-14.08 24.96s6.016 25.984 14.592 25.984m85.234-41.344c-2.432-.64-4.992-1.024-7.68-1.024-8.96 0-13.952 5.376-13.952 16.384V218h-18.048v-67.584h17.024v18.56c3.328-12.672 12.032-20.352 22.656-20.48zm9.317-26.624v-14.336h18.432v14.336zm.128 76.288v-67.584h18.048V218zm49.476 1.792c-11.776 0-19.84-7.296-19.84-17.664 0-10.624 6.144-17.152 21.632-20.608 14.72-3.2 18.432-6.4 18.432-11.776 0-4.992-4.48-9.216-12.16-9.216-8.064 0-14.208 5.12-15.744 13.824h-10.112c1.92-15.744 13.824-25.856 30.464-25.856 16.384 0 26.752 9.728 26.752 24.192v28.928c0 5.12 1.92 7.168 6.656 7.424V218c-2.048.768-5.248 1.28-8.704 1.28-9.216 0-14.336-4.48-15.616-11.776-3.84 7.68-11.52 12.288-21.76 12.288m7.552-11.904c8.064 0 13.824-5.888 13.824-14.976v-11.904c-2.176 3.328-6.144 5.888-12.416 8.064-7.552 2.688-10.496 6.272-10.496 10.88 0 4.736 3.456 7.936 9.088 7.936" data-color="1"/>
        <path fill="#2F54EC" d="M407.792 219.92c-18.048 0-28.544-8.576-30.976-24.064h10.496c2.304 8.32 9.088 12.8 19.968 12.8 7.168 0 12.032-3.072 12.032-7.68 0-3.456-2.304-6.016-9.856-7.808l-9.984-2.304c-13.44-3.2-19.84-10.624-19.84-20.608 0-12.672 10.112-21.76 25.984-21.76 15.488 0 25.6 8.32 27.904 21.632h-10.496c-2.048-6.784-7.68-10.752-16.512-10.752-6.656 0-10.368 2.944-10.368 7.296 0 3.456 2.176 6.272 8.96 7.808l9.728 2.048c15.744 3.328 21.632 9.984 21.632 21.12 0 13.056-11.264 22.272-28.672 22.272m40.147-78.208v-14.336h18.432v14.336zm.128 76.288v-67.584h18.048V218zm-65.875 138.04v-90.624h16.768v12.16c3.2-8.704 11.136-14.08 20.864-14.08 14.848 0 26.368 13.312 26.368 35.072 0 22.656-12.16 36.352-26.624 36.352-8.448 0-15.616-4.352-19.328-11.52v32.64zm31.104-32.256c8.064 0 13.696-7.168 13.696-24.064 0-17.792-6.272-25.088-14.464-25.088-6.4 0-12.288 6.016-12.288 17.024v14.72c0 11.008 5.504 17.408 13.056 17.408m84.951-40.448c-2.432-.64-4.992-1.024-7.68-1.024-8.96 0-13.952 5.376-13.952 16.384V333h-18.048v-67.584h17.024v18.56c3.328-12.672 12.032-20.352 22.656-20.48zm22.921 51.456c-11.776 0-19.84-7.296-19.84-17.664 0-10.624 6.144-17.152 21.632-20.608 14.72-3.2 18.432-6.4 18.432-11.776 0-4.992-4.48-9.216-12.16-9.216-8.064 0-14.208 5.12-15.744 13.824h-10.112c1.92-15.744 13.824-25.856 30.464-25.856 16.384 0 26.752 9.728 26.752 24.192v28.928c0 5.12 1.92 7.168 6.656 7.424V333c-2.048.768-5.248 1.28-8.704 1.28-9.216 0-14.336-4.48-15.616-11.776-3.84 7.68-11.52 12.288-21.76 12.288m7.552-11.904c8.064 0 13.824-5.888 13.824-14.976v-11.904c-2.176 3.328-6.144 5.888-12.416 8.064-7.552 2.688-10.496 6.272-10.496 10.88 0 4.736 3.456 7.936 9.088 7.936m76.638 12.032c-18.688 0-32.512-13.824-32.512-35.328 0-21.888 14.336-36.096 32.64-36.096 15.744 0 27.776 10.624 29.824 26.88h-17.92c-1.28-11.648-5.888-16.64-12.032-16.64-7.424 0-13.312 7.296-13.312 24.832 0 16.384 7.168 24.448 17.792 24.448 8.448 0 14.976-5.248 17.152-15.232h9.728c-2.944 16.512-15.104 27.136-31.36 27.136m68.702-.384c-15.104 0-22.912-8.064-22.912-23.296v-34.432H640.14v-8.832c11.264-1.664 16.512-6.656 18.944-19.712h10.112v17.152h15.232v11.392h-15.232v32.256c0 10.624 3.968 14.592 11.264 14.592 1.92 0 3.584-.256 5.12-.768V333c-2.816 1.024-6.784 1.536-11.52 1.536m20.754-77.824v-14.336h18.432v14.336zm.128 76.288v-67.584h18.048V333zm62.916 1.92c-18.688 0-32.512-13.824-32.512-35.328 0-21.888 14.336-36.096 32.64-36.096 15.744 0 27.776 10.624 29.824 26.88h-17.92c-1.28-11.648-5.888-16.64-12.032-16.64-7.424 0-13.312 7.296-13.312 24.832 0 16.384 7.168 24.448 17.792 24.448 8.448 0 14.976-5.248 17.152-15.232h9.728c-2.944 16.512-15.104 27.136-31.36 27.136m57.31-.128c-11.776 0-19.84-7.296-19.84-17.664 0-10.624 6.144-17.152 21.632-20.608 14.72-3.2 18.432-6.4 18.432-11.776 0-4.992-4.48-9.216-12.16-9.216-8.064 0-14.208 5.12-15.744 13.824h-10.112c1.92-15.744 13.824-25.856 30.464-25.856 16.384 0 26.752 9.728 26.752 24.192v28.928c0 5.12 1.92 7.168 6.656 7.424V333c-2.048.768-5.248 1.28-8.704 1.28-9.216 0-14.336-4.48-15.616-11.776-3.84 7.68-11.52 12.288-21.76 12.288m7.552-11.904c8.064 0 13.824-5.888 13.824-14.976v-11.904c-2.176 3.328-6.144 5.888-12.416 8.064-7.552 2.688-10.496 6.272-10.496 10.88 0 4.736 3.456 7.936 9.088 7.936" data-color="1"/>
    </g>
</svg>
