<?xml version="1.0" encoding="UTF-8"?>
<svg data-bbox="0 0.421 627 917.755" xmlns="http://www.w3.org/2000/svg" viewBox="0 0 627 919" height="919" width="627" data-type="color">
    <g>
        <path fill="#0A0C14" d="M391.476 272.538v-39.11a2.724 2.724 0 0 1 2.724-2.724h217.344a2.724 2.724 0 0 1 2.724 2.724v39.11a2.724 2.724 0 0 1-2.724 2.724H394.2a2.724 2.724 0 0 1-2.724-2.724" data-color="1"/>
        <path fill="#0A0C14" d="M47.74 272.538v-39.11a2.724 2.724 0 0 1 2.724-2.724h217.344a2.724 2.724 0 0 1 2.724 2.724v39.11a2.724 2.724 0 0 1-2.724 2.724H50.464a2.724 2.724 0 0 1-2.724-2.724" data-color="1"/>
        <path fill="#2F54EC" d="M399 267.276v-29.552a2.724 2.724 0 0 1 2.724-2.724h146.552a2.724 2.724 0 0 1 2.724 2.724v29.552a2.724 2.724 0 0 1-2.724 2.724H401.724a2.724 2.724 0 0 1-2.724-2.724" data-color="2"/>
        <path fill="#2F54EC" d="M55 267.276v-29.552A2.724 2.724 0 0 1 57.724 235h146.552a2.724 2.724 0 0 1 2.724 2.724v29.552a2.724 2.724 0 0 1-2.724 2.724H57.724A2.724 2.724 0 0 1 55 267.276" data-color="2"/>
        <path fill="#0A0C14" d="M436.036 501.696V287.535a2.724 2.724 0 0 1 2.724-2.724h105.948a2.724 2.724 0 0 1 2.724 2.724v214.161a2.724 2.724 0 0 1-2.724 2.724H438.76a2.724 2.724 0 0 1-2.724-2.724" data-color="1"/>
        <path fill="#2F54EC" d="M442.399 495.33V293.9a2.724 2.724 0 0 1 2.724-2.724h61.39a2.724 2.724 0 0 1 2.724 2.724v201.43a2.724 2.724 0 0 1-2.724 2.724h-61.39a2.724 2.724 0 0 1-2.724-2.724" data-color="2"/>
        <path fill="#0A0C14" d="M2.724 517.151h621.552a2.724 2.724 0 0 1 2.724 2.724v77.303a2.724 2.724 0 0 1-2.724 2.724H2.724A2.724 2.724 0 0 1 0 597.178v-77.303a2.724 2.724 0 0 1 2.724-2.724" data-color="1"/>
        <path fill="#0A0C14" d="M90.303 81.378 565.141.46a2.724 2.724 0 0 1 3.143 2.228l12.994 76.248a2.724 2.724 0 0 1-2.228 3.143l-474.838 80.918a2.724 2.724 0 0 1-3.143-2.227L88.076 84.52a2.724 2.724 0 0 1 2.227-3.142" data-color="1"/>
        <path fill="#0A0C14" d="M2.724 835.425h621.552a2.724 2.724 0 0 1 2.724 2.724v77.303a2.724 2.724 0 0 1-2.724 2.724H2.724A2.724 2.724 0 0 1 0 915.452v-77.303a2.724 2.724 0 0 1 2.724-2.724" data-color="1"/>
        <path fill="#2F54EC" d="M15.724 527h458.552a2.724 2.724 0 0 1 2.724 2.724v56.552a2.724 2.724 0 0 1-2.724 2.724H15.724A2.724 2.724 0 0 1 13 586.276v-56.552A2.724 2.724 0 0 1 15.724 527" data-color="2"/>
        <path fill="#2F54EC" d="M101.432 89.267 451.86 29.549a2.724 2.724 0 0 1 3.143 2.228l10.293 60.4a2.724 2.724 0 0 1-2.228 3.143L112.64 155.037a2.724 2.724 0 0 1-3.143-2.227l-10.293-60.4a2.724 2.724 0 0 1 2.228-3.143" data-color="2"/>
        <path fill="#2F54EC" d="M15.724 845h511.552a2.724 2.724 0 0 1 2.724 2.724v58.552a2.724 2.724 0 0 1-2.724 2.724H15.724A2.724 2.724 0 0 1 13 906.276v-58.552A2.724 2.724 0 0 1 15.724 845" data-color="2"/>
        <path fill="#0A0C14" d="M92.298 501.695V287.534a2.724 2.724 0 0 1 2.724-2.724H200.97a2.724 2.724 0 0 1 2.724 2.724v214.161a2.724 2.724 0 0 1-2.724 2.724H95.022a2.724 2.724 0 0 1-2.724-2.724" data-color="1"/>
        <path fill="#2F54EC" d="M98.662 495.33V293.9a2.724 2.724 0 0 1 2.724-2.724h61.39a2.724 2.724 0 0 1 2.724 2.724v201.43a2.724 2.724 0 0 1-2.724 2.724h-61.39a2.724 2.724 0 0 1-2.724-2.724" data-color="2"/>
        <path fill="#0A0C14" d="M486.958 819.97V605.809a2.724 2.724 0 0 1 2.724-2.724H595.63a2.724 2.724 0 0 1 2.724 2.724V819.97a2.724 2.724 0 0 1-2.724 2.724H489.682a2.724 2.724 0 0 1-2.724-2.724" data-color="1"/>
        <path fill="#2F54EC" d="M493.321 813.604v-201.43a2.724 2.724 0 0 1 2.724-2.724h61.39a2.724 2.724 0 0 1 2.724 2.724v201.43a2.724 2.724 0 0 1-2.724 2.724h-61.39a2.724 2.724 0 0 1-2.724-2.724" data-color="2"/>
        <path fill="#0A0C14" d="M260.981 819.97V605.809a2.724 2.724 0 0 1 2.724-2.724h105.948a2.724 2.724 0 0 1 2.724 2.724V819.97a2.724 2.724 0 0 1-2.724 2.724H263.705a2.724 2.724 0 0 1-2.724-2.724" data-color="1"/>
        <path fill="#2F54EC" d="M267.345 813.604v-201.43a2.724 2.724 0 0 1 2.724-2.724h61.39a2.724 2.724 0 0 1 2.724 2.724v201.43a2.724 2.724 0 0 1-2.724 2.724h-61.39a2.724 2.724 0 0 1-2.724-2.724" data-color="2"/>
        <path fill="#0A0C14" d="M35.01 819.97V605.809a2.724 2.724 0 0 1 2.724-2.724h105.948a2.724 2.724 0 0 1 2.724 2.724V819.97a2.724 2.724 0 0 1-2.724 2.724H37.734a2.724 2.724 0 0 1-2.724-2.724" data-color="1"/>
        <path fill="#2F54EC" d="M41.375 813.604v-201.43a2.724 2.724 0 0 1 2.724-2.724h61.39a2.724 2.724 0 0 1 2.724 2.724v201.43a2.724 2.724 0 0 1-2.724 2.724h-61.39a2.724 2.724 0 0 1-2.724-2.724" data-color="2"/>
        <path fill="#BECEFB" d="M147.552 459.272c0 5.428-2.898 8.234-8.372 8.234h-12.374v3.956h-3.174c-.598-4.048-2.392-5.934-7.084-6.808v-3.634h6.164v-5.474h4.094v5.474h11.592c3.818 0 5.244-1.426 5.244-4.048 0-.69-.092-1.288-.276-1.84H147c.368 1.012.552 2.438.552 4.14m-18.4-21.764c-.23.874-.368 1.794-.368 2.76 0 3.22 1.932 5.014 5.888 5.014H147v6.486h-24.288v-6.118h6.67c-4.554-1.196-7.314-4.324-7.36-8.142zm18.492-8.237c0 4.232-2.622 7.13-6.348 7.13-3.818 0-6.164-2.208-7.406-7.774-1.15-5.29-2.3-6.624-4.232-6.624-1.794 0-3.312 1.61-3.312 4.37 0 2.898 1.84 5.106 4.968 5.658v3.634c-5.658-.69-9.292-4.968-9.292-10.948 0-5.888 3.496-9.614 8.694-9.614h10.396c1.84 0 2.576-.69 2.668-2.392H147c.276.736.46 1.886.46 3.128 0 3.312-1.61 5.152-4.232 5.612 2.76 1.38 4.416 4.14 4.416 7.82m-4.278-2.714c0-2.898-2.116-4.968-5.382-4.968h-4.278c1.196.782 2.116 2.208 2.898 4.462.966 2.714 2.254 3.772 3.91 3.772 1.702 0 2.852-1.242 2.852-3.266m-23.782-17.284h-5.152v-6.624h5.152zm27.416-.046h-24.288v-6.486H147zm0-12.398h-24.288v-6.026h4.83c-3.358-1.242-5.52-4.186-5.52-7.866 0-4.646 3.404-7.82 8.556-7.82H147v6.486h-15.64c-3.128 0-4.83 1.472-4.83 4.186 0 2.668 2.346 4.554 6.348 4.554H147zm.69-37.846c0 7.038-4.922 11.96-12.742 11.96-7.682 0-12.926-5.152-12.926-11.868 0-6.486 4.6-11.178 13.11-11.178v16.238c5.612-.184 8.28-2.76 8.28-6.67 0-2.944-1.886-5.336-5.106-6.21v-3.634c5.934 1.15 9.384 5.474 9.384 11.362m-22.034.23c0 2.438 1.932 4.186 5.98 4.738v-9.154c-4.002.322-5.98 1.978-5.98 4.416m3.496-30.057c-.23.874-.368 1.794-.368 2.76 0 3.22 1.932 5.014 5.888 5.014H147v6.486h-24.288v-6.118h6.67c-4.554-1.196-7.314-4.324-7.36-8.142zm-9.568-3.348h-5.152v-6.624h5.152zm27.416-.046h-24.288v-6.486H147z" data-color="3"/>
        <path fill="#BECEFB" d="M93.2 797.014H64.88v-5.24h3.8c-2.72-1-4.4-3.48-4.4-6.52 0-4.64 4.16-8.24 10.96-8.24 7.08 0 11.36 3.8 11.36 8.32 0 2.64-1.36 4.88-3.6 6.04h10.2zm-10.08-9.72c0-2.52-2.24-4.28-7.52-4.28-5.56 0-7.84 1.96-7.84 4.52 0 2 1.88 3.84 5.32 3.84h4.6c3.44 0 5.44-1.72 5.44-4.08m3.44-18.827c0 3.68-2.28 6.2-5.52 6.2-3.32 0-5.36-1.92-6.44-6.76-1-4.6-2-5.76-3.68-5.76-1.56 0-2.88 1.4-2.88 3.8 0 2.52 1.6 4.44 4.32 4.92v3.16c-4.92-.6-8.08-4.32-8.08-9.52 0-5.12 3.04-8.36 7.56-8.36h9.04c1.6 0 2.24-.6 2.32-2.08H86c.24.64.4 1.64.4 2.72 0 2.88-1.4 4.48-3.68 4.88 2.4 1.2 3.84 3.6 3.84 6.8m-3.72-2.36c0-2.52-1.84-4.32-4.68-4.32h-3.72c1.04.68 1.84 1.92 2.52 3.88.84 2.36 1.96 3.28 3.4 3.28 1.48 0 2.48-1.08 2.48-2.84m-12.36-27.469c-.2.76-.32 1.56-.32 2.4 0 2.8 1.68 4.36 5.12 4.36H86v5.64H64.88v-5.32h5.8c-3.96-1.04-6.36-3.76-6.4-7.08zm16-12.09c0 4.72-2.52 7.16-7.28 7.16H68.44v3.44h-2.76c-.52-3.52-2.08-5.16-6.16-5.92v-3.16h5.36v-4.76h3.56v4.76h10.08c3.32 0 4.56-1.24 4.56-3.52 0-.6-.08-1.12-.24-1.6H86c.32.88.48 2.12.48 3.6m.12-15.568c0 6.12-4.28 10.4-11.08 10.4-6.68 0-11.24-4.48-11.24-10.32 0-5.64 4-9.72 11.4-9.72v14.12c4.88-.16 7.2-2.4 7.2-5.8 0-2.56-1.64-4.64-4.44-5.4v-3.16c5.16 1 8.16 4.76 8.16 9.88m-19.16.2c0 2.12 1.68 3.64 5.2 4.12v-7.96c-3.48.28-5.2 1.72-5.2 3.84M86 697.444H64.88v-5.24h4.2c-2.92-1.08-4.8-3.64-4.8-6.84 0-4.04 2.96-6.8 7.44-6.8H86v5.64H72.4c-2.72 0-4.2 1.28-4.2 3.64 0 2.32 2.04 3.96 5.52 3.96H86zm.6-32.909c0 6.12-4.28 10.4-11.08 10.4-6.68 0-11.24-4.48-11.24-10.32 0-5.64 4-9.72 11.4-9.72v14.12c4.88-.16 7.2-2.4 7.2-5.8 0-2.56-1.64-4.64-4.44-5.4v-3.16c5.16 1 8.16 4.76 8.16 9.88m-19.16.2c0 2.12 1.68 3.64 5.2 4.12v-7.96c-3.48.28-5.2 1.72-5.2 3.84m3.04-26.136c-.2.76-.32 1.56-.32 2.4 0 2.8 1.68 4.36 5.12 4.36H86v5.64H64.88v-5.32h5.8c-3.96-1.04-6.36-3.76-6.4-7.08zm-8.32-2.912h-4.48v-5.76h4.48zm23.84-.04H64.88v-5.64H86z" data-color="3"/>
        <path fill="#BECEFB" d="M314 795.176h-20.064v-4.978h3.952c-2.774-.988-4.522-3.306-4.522-6.194 0-2.85 1.71-4.978 4.446-5.814-2.736-.988-4.446-3.306-4.446-6.156 0-3.686 2.812-6.156 7.068-6.156H314v5.358h-12.92c-2.584 0-3.99 1.102-3.99 3.116 0 2.052 1.938 3.496 5.244 3.496H314v5.358h-12.92c-2.584 0-3.99 1.102-3.99 3.116 0 2.052 1.938 3.496 5.244 3.496H314zm.532-38.439c0 3.496-2.166 5.89-5.244 5.89-3.154 0-5.092-1.824-6.118-6.422-.95-4.37-1.9-5.472-3.496-5.472-1.482 0-2.736 1.33-2.736 3.61 0 2.394 1.52 4.218 4.104 4.674v3.002c-4.674-.57-7.676-4.104-7.676-9.044 0-4.864 2.888-7.942 7.182-7.942h8.588c1.52 0 2.128-.57 2.204-1.976H314c.228.608.38 1.558.38 2.584 0 2.736-1.33 4.256-3.496 4.636 2.28 1.14 3.648 3.42 3.648 6.46m-3.534-2.242c0-2.394-1.748-4.104-4.446-4.104h-3.534c.988.646 1.748 1.824 2.394 3.686.798 2.242 1.862 3.116 3.23 3.116 1.406 0 2.356-1.026 2.356-2.698M314 740.179h-20.064v-4.978h3.99c-2.774-1.026-4.56-3.458-4.56-6.498 0-3.838 2.812-6.46 7.068-6.46H314v5.358h-12.92c-2.584 0-3.99 1.216-3.99 3.458 0 2.204 1.938 3.762 5.244 3.762H314zm.532-27.045c0 3.496-2.166 5.89-5.244 5.89-3.154 0-5.092-1.824-6.118-6.422-.95-4.37-1.9-5.472-3.496-5.472-1.482 0-2.736 1.33-2.736 3.61 0 2.394 1.52 4.218 4.104 4.674v3.002c-4.674-.57-7.676-4.104-7.676-9.044 0-4.864 2.888-7.942 7.182-7.942h8.588c1.52 0 2.128-.57 2.204-1.976H314c.228.608.38 1.558.38 2.584 0 2.736-1.33 4.256-3.496 4.636 2.28 1.14 3.648 3.42 3.648 6.46m-3.534-2.242c0-2.394-1.748-4.104-4.446-4.104h-3.534c.988.646 1.748 1.824 2.394 3.686.798 2.242 1.862 3.116 3.23 3.116 1.406 0 2.356-1.026 2.356-2.698m10.412-22.786c0 6.84-2.014 10.07-4.826 10.07-1.596 0-2.85-1.14-3.382-3.002-.76 1.444-2.052 2.242-3.534 2.242-1.862 0-3.496-1.368-4.028-3.724a6.15 6.15 0 0 1-5.244 2.926c-4.18 0-7.03-3.496-7.03-8.626 0-2.66.57-3.534.57-6.118V677.2h3.458v.342c0 1.254-.304 2.166-1.14 3.306 1.178-.988 2.508-1.52 4.066-1.52 4.066 0 6.878 3.572 6.878 8.74 0 2.052-.342 2.926-.342 4.066 0 .988.57 1.596 1.406 1.596.874 0 1.558-.798 1.558-2.394v-8.094c0-4.256 1.938-6.498 5.054-6.498 3.876 0 6.536 4.142 6.536 11.362m-16.91-.228c0-2.014-1.558-3.306-4.104-3.306-2.66 0-4.256 1.33-4.256 3.42s1.482 3.382 4.066 3.382c2.698 0 4.294-1.33 4.294-3.496m13.832.722c0-4.826-1.102-6.878-2.508-6.878-.874 0-1.444.76-1.444 2.622v8.36c0 1.786.646 2.698 1.558 2.698 1.368 0 2.394-1.938 2.394-6.802m-3.762-22.954c0 5.814-4.066 9.88-10.526 9.88-6.346 0-10.678-4.256-10.678-9.804 0-5.358 3.8-9.234 10.83-9.234v13.414c4.636-.152 6.84-2.28 6.84-5.51 0-2.432-1.558-4.408-4.218-5.13v-3.002c4.902.95 7.752 4.522 7.752 9.386m-18.202.19c0 2.014 1.596 3.458 4.94 3.914v-7.562c-3.306.266-4.94 1.634-4.94 3.648m2.888-24.829a9 9 0 0 0-.304 2.28c0 2.66 1.596 4.142 4.864 4.142H314v5.358h-20.064v-5.054h5.51c-3.762-.988-6.042-3.572-6.08-6.726zm-7.904-2.766h-4.256v-5.472h4.256zm22.648-.038h-20.064v-5.358H314z" data-color="3"/>
        <path fill="#BECEFB" d="M543.616 768.86c0 4.048-2.508 6.82-6.072 6.82-3.652 0-5.896-2.112-7.084-7.436-1.1-5.06-2.2-6.336-4.048-6.336-1.716 0-3.168 1.54-3.168 4.18 0 2.772 1.76 4.884 4.752 5.412v3.476c-5.412-.66-8.888-4.752-8.888-10.472 0-5.632 3.344-9.196 8.316-9.196h9.944c1.76 0 2.464-.66 2.552-2.288H543c.264.704.44 1.804.44 2.992 0 3.168-1.54 4.928-4.048 5.368 2.64 1.32 4.224 3.96 4.224 7.48m-4.092-2.596c0-2.772-2.024-4.752-5.148-4.752h-4.092c1.144.748 2.024 2.112 2.772 4.268.924 2.596 2.156 3.608 3.74 3.608 1.628 0 2.728-1.188 2.728-3.124M543 749.688h-31.152v-6.204H543zm.66-19.075c0 4.444-3.256 7.436-8.184 7.436h-15.708v-6.204h14.96c2.992 0 4.62-1.364 4.62-3.916s-2.244-4.312-6.072-4.312h-13.508v-6.204H543v5.72h-4.62c3.256 1.188 5.28 4.004 5.28 7.48m-.66-18.866h-23.232v-5.764h4.576c-3.212-1.144-5.236-3.828-5.236-7.172 0-3.3 1.98-5.764 5.148-6.732-3.168-1.144-5.148-3.828-5.148-7.128 0-4.268 3.256-7.128 8.184-7.128H543v6.204h-14.96c-2.992 0-4.62 1.276-4.62 3.608 0 2.376 2.244 4.048 6.072 4.048H543v6.204h-14.96c-2.992 0-4.62 1.276-4.62 3.608 0 2.376 2.244 4.048 6.072 4.048H543zm0-39.36h-23.232v-5.764h4.62c-3.212-1.188-5.28-4.004-5.28-7.524 0-4.444 3.256-7.48 8.184-7.48H543v6.204h-14.96c-2.992 0-4.62 1.408-4.62 4.004 0 2.552 2.244 4.356 6.072 4.356H543zm-26.224-26.124h-4.928v-6.336h4.928zm26.224-.044h-23.232v-6.204H543z" data-color="3"/>
        <path fill="#BECEFB" d="M489.6 461.225c0 5.64-2.68 8.92-7.52 9.68v-3.28c2.6-.72 4-2.84 4-6.24 0-2.24-.96-3.76-2.4-3.76-1.08 0-1.88.72-2.44 3.08l-.72 3.12c-1 4.2-3.32 6.2-6.44 6.2-3.96 0-6.8-3.16-6.8-8.12 0-4.84 2.6-8 6.76-8.72v3.28c-2.12.64-3.36 2.4-3.36 5.16 0 2.08.92 3.24 2.28 3.24 1.08 0 1.96-.68 2.44-2.8l.64-3.04c1.04-4.92 3.12-6.76 6.6-6.76 4.08 0 6.96 3.52 6.96 8.96m6.6-12.586h-28.32v-5.24h3.8c-2.72-1-4.4-3.48-4.4-6.52 0-4.64 4.16-8.24 10.96-8.24 7.08 0 11.36 3.8 11.36 8.32 0 2.64-1.36 4.88-3.6 6.04h10.2zm-10.08-9.72c0-2.52-2.24-4.28-7.52-4.28-5.56 0-7.84 1.96-7.84 4.52 0 2 1.88 3.84 5.32 3.84h4.6c3.44 0 5.44-1.72 5.44-4.08m3.48-23.267c0 6.12-4.28 10.4-11.08 10.4-6.68 0-11.24-4.48-11.24-10.32 0-5.64 4-9.72 11.4-9.72v14.12c4.88-.16 7.2-2.4 7.2-5.8 0-2.56-1.64-4.64-4.44-5.4v-3.16c5.16 1 8.16 4.76 8.16 9.88m-19.16.2c0 2.12 1.68 3.64 5.2 4.12v-7.96c-3.48.28-5.2 1.72-5.2 3.84m19.12-18.494c0 3.68-2.28 6.2-5.52 6.2-3.32 0-5.36-1.92-6.44-6.76-1-4.6-2-5.76-3.68-5.76-1.56 0-2.88 1.4-2.88 3.8 0 2.52 1.6 4.44 4.32 4.92v3.16c-4.92-.6-8.08-4.32-8.08-9.52 0-5.12 3.04-8.36 7.56-8.36h9.04c1.6 0 2.24-.6 2.32-2.08h2.8c.24.64.4 1.64.4 2.72 0 2.88-1.4 4.48-3.68 4.88 2.4 1.2 3.84 3.6 3.84 6.8m-3.72-2.36c0-2.52-1.84-4.32-4.68-4.32h-3.72c1.04.68 1.84 1.92 2.52 3.88.84 2.36 1.96 3.28 3.4 3.28 1.48 0 2.48-1.08 2.48-2.84m3.16-15.07h-28.32v-5.64h16.36l-9.16-8.28v-5.6l7.56 7.48 13.56-7.8v6.48l-9.6 5.24 2.52 2.48H489zm.6-30.604c0 6.12-4.28 10.4-11.08 10.4-6.68 0-11.24-4.48-11.24-10.32 0-5.64 4-9.72 11.4-9.72v14.12c4.88-.16 7.2-2.4 7.2-5.8 0-2.56-1.64-4.64-4.44-5.4v-3.16c5.16 1 8.16 4.76 8.16 9.88m-19.16.2c0 2.12 1.68 3.64 5.2 4.12v-7.96c-3.48.28-5.2 1.72-5.2 3.84m3.04-26.136c-.2.76-.32 1.56-.32 2.4 0 2.8 1.68 4.36 5.12 4.36H489v5.64h-21.12v-5.32h5.8c-3.96-1.04-6.36-3.76-6.4-7.08zm-8.32-2.912h-4.48v-5.76h4.48zm23.84-.04h-21.12v-5.64H489z" data-color="3"/>
        <path fill="#BECEFB" d="M157.512 131.386c-7.282 1.292-13.278-2.896-14.714-10.987-1.411-7.947 2.956-14.319 9.905-15.552 6.71-1.191 12.409 2.706 13.972 11.51l-16.8 2.982c1.221 5.773 4.376 8.06 8.422 7.342 3.045-.541 5.174-2.931 5.487-6.423l3.759-.668c-.1 6.351-3.94 10.714-10.031 11.796m-4.285-22.754c-2.522.448-3.976 2.768-3.803 7.057l9.47-1.681c-1.068-4.082-3.144-5.824-5.667-5.376m16.238 19.895 5.974-14.462-10.054-10.733 7.805-1.385 7.064 8.269 3.596-10.162 5.425-.963-5.608 13.759 10.497 11.293-7.805 1.385-7.546-8.773-3.875 10.801zm37.396-5.902c-6.948 1.234-13-2.994-14.419-10.989-1.445-8.138 2.948-14.366 9.753-15.574 5.854-1.04 11.028 2.116 12.863 8.025l-6.663 1.183c-1.245-4.246-3.287-5.798-5.572-5.393-2.76.49-4.467 3.591-3.31 10.111 1.081 6.092 4.278 8.617 8.228 7.916 3.141-.558 5.222-2.94 5.372-6.795l3.617-.642c-.005 6.333-3.825 11.086-9.869 12.158m26.591-4.72c-7.282 1.293-13.278-2.895-14.714-10.986-1.411-7.947 2.957-14.319 9.905-15.552 6.71-1.191 12.409 2.706 13.972 11.51l-16.8 2.982c1.221 5.773 4.376 8.06 8.422 7.342 3.045-.541 5.174-2.931 5.487-6.423l3.759-.668c-.1 6.351-3.94 10.714-10.031 11.795m-4.285-22.753c-2.522.448-3.976 2.767-3.803 7.057l9.47-1.681c-1.068-4.082-3.144-5.824-5.667-5.376m21.784 27.747-5.981-33.694 6.234-1.107.802 4.521c.616-3.447 3.212-5.97 6.828-6.612 5.521-.98 10.683 3.21 12.119 11.3 1.495 8.424-2.122 14.318-7.5 15.273-3.141.557-6.093-.588-7.946-3.008l2.154 12.136zm9.435-14.046c2.998-.532 4.619-3.569 3.504-9.85-1.174-6.615-3.988-8.914-7.033-8.374-2.38.423-4.172 3.048-3.445 7.14l.971 5.474c.727 4.093 3.195 6.109 6.003 5.61m27.345-.73c-5.616.997-9.051-1.486-10.056-7.149l-2.272-12.802-4.093.726-.583-3.283c4.078-1.362 5.7-3.565 5.742-8.58l3.76-.667 1.132 6.377 5.663-1.005.752 4.235-5.663 1.006 2.129 11.993c.701 3.949 2.438 5.163 5.151 4.681.713-.126 1.315-.331 1.853-.623l.667 3.76c-.98.566-2.421 1.018-4.182 1.331m2.58-30.305-.946-5.33 6.853-1.216.946 5.33zm5.083 28.356-4.461-25.128 6.71-1.191 4.461 25.128zm23.756-3.481c-7.138 1.267-13.229-2.904-14.657-10.947-1.453-8.185 2.9-14.358 10.277-15.668 7.186-1.275 13.19 2.96 14.601 10.908 1.47 8.281-2.939 14.414-10.221 15.707m-.437-3.85c3.045-.54 4.77-3.546 3.579-10.257-1.166-6.567-3.943-9.216-7.132-8.65-3.093.55-4.762 3.595-3.588 10.21 1.175 6.615 3.952 9.263 7.141 8.698m17.486.087-4.461-25.127 6.235-1.107.887 4.997c.668-3.702 3.317-6.48 7.124-7.155 4.806-.854 8.715 2.085 9.661 7.415l3.016 16.99-6.71 1.191-2.872-16.18c-.575-3.237-2.41-4.727-5.218-4.229-2.76.49-4.28 3.264-3.546 7.404l2.594 14.61zm33.989-5.346c-4.378.777-7.858-1.403-8.542-5.258-.701-3.95 1.152-6.782 6.683-9.09 5.261-2.16 6.43-3.596 6.075-5.594-.329-1.856-2.273-3.131-5.129-2.624-2.998.532-4.944 2.84-4.941 6.178l-3.76.668c-.325-5.98 3.434-10.526 9.62-11.624 6.092-1.081 10.589 1.851 11.543 7.229l1.91 10.755c.337 1.904 1.186 2.539 2.964 2.321l.592 3.332c-.711.42-1.867.822-3.152 1.05-3.427.608-5.626-.72-6.583-3.348-.921 3.11-3.472 5.33-7.28 6.005m2.022-4.924c2.999-.532 4.752-3.102 4.152-6.48l-.786-4.427c-.589 1.382-1.896 2.595-4.084 3.818-2.63 1.498-3.488 3.025-3.184 4.738.312 1.76 1.809 2.722 3.902 2.35m18.597.577-5.981-33.694 6.71-1.191 5.981 33.694zm7.744-30.632-.946-5.33 6.853-1.217.946 5.33zm5.083 28.355-4.461-25.128 6.711-1.19 4.46 25.127zm7.744-30.632-.946-5.33 6.853-1.217.947 5.33zm5.083 28.355-4.46-25.128 6.71-1.19 4.46 25.127z" data-color="3"/>
        <path fill="#BECEFB" d="M87.372 575v-25.52h6.332v5.026c1.257-3.528 4.205-5.752 7.879-5.752 3.625 0 6.331 2.176 7.395 5.656 1.256-3.48 4.205-5.656 7.83-5.656 4.688 0 7.83 3.577 7.83 8.991V575h-6.815v-16.434c0-3.286-1.402-5.075-3.963-5.075-2.611 0-4.447 2.465-4.447 6.67V575h-6.815v-16.434c0-3.286-1.402-5.075-3.964-5.075-2.61 0-4.446 2.465-4.446 6.67V575zm54.257.725c-7.395 0-12.567-5.172-12.567-13.389 0-8.071 5.414-13.582 12.47-13.582 6.816 0 11.746 4.834 11.746 13.776h-17.062c.193 5.897 2.9 8.7 7.008 8.7 3.094 0 5.607-1.982 6.525-5.365h3.819c-1.209 6.235-5.752 9.86-11.939 9.86m-.242-23.152c-2.561 0-4.398 2.03-4.978 6.283h9.619c-.339-4.205-2.079-6.283-4.641-6.283M157.986 575v-25.52h6.332v5.026c1.256-3.528 4.205-5.752 7.878-5.752 3.625 0 6.332 2.176 7.395 5.656 1.257-3.48 4.205-5.656 7.83-5.656 4.689 0 7.831 3.577 7.831 8.991V575h-6.816v-16.434c0-3.286-1.401-5.075-3.963-5.075-2.61 0-4.447 2.465-4.447 6.67V575h-6.815v-16.434c0-3.286-1.402-5.075-3.963-5.075-2.61 0-4.447 2.465-4.447 6.67V575zm57.253.725c-3.528 0-6.38-1.837-7.685-4.785V575h-6.332v-34.221h6.815v12.277c1.402-2.706 4.157-4.302 7.444-4.302 5.655 0 9.908 5.269 9.908 13.292 0 8.556-4.398 13.679-10.15 13.679m-2.271-4.205c3.141 0 5.171-2.755 5.171-9.232 0-6.622-2.271-9.425-5.51-9.425-2.417 0-4.592 1.982-4.592 6.38v5.703c0 4.447 2.079 6.574 4.931 6.574m32.078-15.274a11.4 11.4 0 0 0-2.9-.386c-3.383 0-5.268 2.03-5.268 6.186V575h-6.816v-25.52h6.429v7.008c1.257-4.785 4.543-7.685 8.555-7.734zm3.518-10.053v-5.414h6.96v5.414zm.049 28.807v-25.52h6.815V575zm12.979-28.807v-5.414h6.96v5.414zM261.64 575v-25.52h6.815V575zm30.295.677c-4.447 0-7.492-2.755-7.492-6.67 0-4.012 2.32-6.477 8.168-7.782 5.559-1.209 6.96-2.417 6.96-4.447 0-1.885-1.691-3.48-4.591-3.48-3.045 0-5.366 1.933-5.946 5.22h-3.818c.725-5.945 5.22-9.764 11.504-9.764 6.186 0 10.101 3.674 10.101 9.136v10.923c0 1.934.725 2.707 2.514 2.804V575c-.773.29-1.982.483-3.287.483-3.48 0-5.413-1.691-5.897-4.446-1.45 2.9-4.35 4.64-8.216 4.64m2.851-4.495c3.045 0 5.22-2.224 5.22-5.656v-4.495c-.821 1.257-2.32 2.224-4.688 3.045-2.852 1.015-3.964 2.369-3.964 4.109 0 1.788 1.306 2.997 3.432 2.997m28.94 4.543c-7.057 0-12.277-5.22-12.277-13.34 0-8.265 5.413-13.631 12.325-13.631 5.945 0 10.489 4.012 11.262 10.151h-6.767c-.483-4.399-2.223-6.284-4.543-6.284-2.804 0-5.027 2.755-5.027 9.377 0 6.187 2.707 9.232 6.718 9.232 3.19 0 5.655-1.982 6.477-5.752h3.674c-1.112 6.235-5.704 10.247-11.842 10.247m25.942-.145c-5.703 0-8.652-3.045-8.652-8.797v-13.002h-4.156v-3.335c4.253-.628 6.235-2.513 7.153-7.443h3.819v6.477h5.751v4.301h-5.751v12.181c0 4.011 1.498 5.51 4.253 5.51.725 0 1.353-.097 1.933-.29V575c-1.063.387-2.561.58-4.35.58m7.837-29.387v-5.414h6.96v5.414zm.049 28.807v-25.52h6.815V575zm19.262 0-9.231-25.52h7.395l6.428 19.672 6.187-19.672h5.317L383.535 575zm18.923-28.807v-5.414h6.96v5.414zm.048 28.807v-25.52h6.815V575z" data-color="3"/>
        <path fill="#BECEFB" d="M87.513 894.725c-3.529 0-6.38-1.837-7.685-4.785V894h-6.332v-34.221h6.815v12.277c1.402-2.707 4.157-4.302 7.443-4.302 5.656 0 9.909 5.269 9.909 13.292 0 8.555-4.398 13.679-10.15 13.679m-2.272-4.205c3.142 0 5.172-2.755 5.172-9.232 0-6.622-2.272-9.425-5.51-9.425-2.417 0-4.592 1.981-4.592 6.38v5.703c0 4.447 2.078 6.574 4.93 6.574m28.067 4.205c-7.25 0-12.519-5.172-12.519-13.341 0-8.313 5.365-13.63 12.857-13.63 7.299 0 12.47 5.22 12.47 13.292 0 8.41-5.413 13.679-12.808 13.679m.242-3.867c3.093 0 5.316-2.658 5.316-9.474 0-6.67-2.271-9.763-5.51-9.763-3.142 0-5.317 2.707-5.317 9.425s2.272 9.812 5.511 9.812m22.856 3.818c-4.446 0-7.491-2.755-7.491-6.67 0-4.011 2.32-6.477 8.168-7.782 5.558-1.208 6.96-2.416 6.96-4.446 0-1.885-1.692-3.48-4.592-3.48-3.045 0-5.365 1.933-5.945 5.22h-3.818c.725-5.945 5.22-9.764 11.503-9.764 6.187 0 10.102 3.674 10.102 9.135v10.924c0 1.933.725 2.707 2.514 2.803V894c-.774.29-1.982.483-3.287.483-3.48 0-5.413-1.692-5.897-4.447-1.45 2.9-4.35 4.64-8.217 4.64m2.852-4.495c3.045 0 5.22-2.223 5.22-5.655v-4.495c-.821 1.257-2.32 2.224-4.688 3.045-2.852 1.015-3.964 2.369-3.964 4.109 0 1.788 1.305 2.996 3.432 2.996m33.193-14.935a11.3 11.3 0 0 0-2.9-.387c-3.384 0-5.269 2.03-5.269 6.187V894h-6.815v-25.521h6.429v7.009c1.256-4.785 4.543-7.685 8.555-7.734zm12.025 19.479c-5.655 0-9.957-4.93-9.957-13.244 0-8.603 4.544-13.727 10.054-13.727 3.141 0 5.848 1.595 7.298 4.35v-12.325h6.815V894h-6.332v-4.447c-1.208 3.19-4.156 5.172-7.878 5.172m2.755-4.205c2.513 0 4.64-2.272 4.64-6.38v-5.607c0-4.157-1.982-6.574-4.93-6.574-3.142 0-5.172 2.707-5.172 9.087 0 6.719 2.272 9.474 5.462 9.474m40.21 4.205c-7.25 0-12.519-5.172-12.519-13.341 0-8.313 5.366-13.63 12.857-13.63 7.299 0 12.471 5.22 12.471 13.292 0 8.41-5.414 13.679-12.809 13.679m.242-3.867c3.093 0 5.316-2.658 5.316-9.474 0-6.67-2.271-9.763-5.51-9.763-3.141 0-5.316 2.707-5.316 9.425s2.271 9.812 5.51 9.812M246.189 894v-21.219h-4.156v-4.302h4.156v-.58c0-5.655 3.094-8.555 9.136-8.555 1.353 0 2.851.193 3.866.435v3.77a7.5 7.5 0 0 0-2.078-.29c-2.803 0-4.108 1.353-4.108 4.689v.531h5.026v4.302h-5.026V894zm34.956.725c-5.655 0-9.957-4.93-9.957-13.244 0-8.603 4.543-13.727 10.053-13.727 3.142 0 5.849 1.595 7.299 4.35v-12.325h6.815V894h-6.332v-4.447c-1.208 3.19-4.157 5.172-7.878 5.172m2.755-4.205c2.513 0 4.64-2.272 4.64-6.38v-5.607c0-4.157-1.982-6.574-4.93-6.574-3.142 0-5.172 2.707-5.172 9.087 0 6.719 2.272 9.474 5.462 9.474m17.578-25.328v-5.413h6.96v5.413zm.048 28.808v-25.521h6.815V894zm28.011-18.754a11.3 11.3 0 0 0-2.9-.387c-3.383 0-5.268 2.03-5.268 6.187V894h-6.815v-25.521h6.428v7.009c1.257-4.785 4.544-7.685 8.555-7.734zm14.587 19.479c-7.395 0-12.567-5.172-12.567-13.389 0-8.072 5.414-13.582 12.471-13.582 6.815 0 11.745 4.834 11.745 13.775h-17.062c.193 5.897 2.9 8.701 7.008 8.701 3.094 0 5.607-1.982 6.525-5.365h3.819c-1.209 6.235-5.752 9.86-11.939 9.86m-.241-23.152c-2.562 0-4.399 2.03-4.979 6.283h9.619c-.339-4.205-2.079-6.283-4.64-6.283m27.328 23.152c-7.057 0-12.277-5.22-12.277-13.341 0-8.265 5.414-13.63 12.325-13.63 5.946 0 10.489 4.012 11.262 10.15h-6.766c-.484-4.398-2.224-6.283-4.544-6.283-2.803 0-5.027 2.755-5.027 9.377 0 6.187 2.707 9.232 6.719 9.232 3.19 0 5.655-1.982 6.477-5.752h3.673c-1.112 6.235-5.703 10.247-11.842 10.247m25.943-.145c-5.704 0-8.652-3.045-8.652-8.797v-13.002h-4.157v-3.335c4.254-.628 6.235-2.513 7.154-7.444h3.818v6.477h5.752v4.302h-5.752v12.18c0 4.012 1.498 5.51 4.254 5.51.725 0 1.353-.096 1.933-.29V894c-1.063.386-2.562.58-4.35.58m18.763.145c-7.251 0-12.519-5.172-12.519-13.341 0-8.313 5.365-13.63 12.857-13.63 7.298 0 12.47 5.22 12.47 13.292 0 8.41-5.413 13.679-12.808 13.679m.241-3.867c3.094 0 5.317-2.658 5.317-9.474 0-6.67-2.272-9.763-5.51-9.763-3.142 0-5.317 2.707-5.317 9.425s2.272 9.812 5.51 9.812m32.186-15.612a11.3 11.3 0 0 0-2.9-.387c-3.384 0-5.269 2.03-5.269 6.187V894h-6.815v-25.521h6.428v7.009c1.257-4.785 4.544-7.685 8.556-7.734zm13.139 19.479c-6.816 0-10.779-3.239-11.697-9.087h3.963c.87 3.142 3.432 4.833 7.54 4.833 2.707 0 4.544-1.16 4.544-2.9 0-1.305-.87-2.271-3.722-2.948l-3.77-.87c-5.075-1.208-7.492-4.012-7.492-7.782 0-4.785 3.818-8.217 9.812-8.217 5.848 0 9.667 3.142 10.537 8.169h-3.964c-.773-2.562-2.9-4.06-6.235-4.06-2.513 0-3.915 1.111-3.915 2.755 0 1.305.822 2.368 3.384 2.948l3.673.773c5.945 1.257 8.169 3.771 8.169 7.976 0 4.93-4.254 8.41-10.827 8.41" data-color="3"/>
    </g>
</svg>
