<?xml version="1.0" encoding="UTF-8"?>
<svg data-bbox="39.153 -0.008 1410.767 412.801" xmlns="http://www.w3.org/2000/svg" viewBox="0 0 1467 413" height="413" width="1467" data-type="color">
    <g opacity=".2">
        <path fill="#2F54EC" d="M39.153 403.616V80.603h80.142v63.624c15.906-44.66 53.224-72.8 99.718-72.8 45.883 0 80.142 27.529 93.601 71.576 15.905-44.047 53.223-71.577 99.106-71.577 59.341 0 99.106 45.271 99.106 113.789v218.401h-86.259V195.615c0-41.6-17.741-64.235-50.165-64.235-33.035 0-56.283 31.2-56.283 84.424v187.812H231.86V195.615c0-41.6-17.741-64.235-50.165-64.235-33.035 0-56.283 31.2-56.283 84.424v187.812zm618.823 8.565c-56.283 0-94.824-34.871-94.824-84.424 0-50.777 29.365-81.977 103.389-98.494 70.353-15.295 88.094-30.589 88.094-56.283 0-23.859-21.412-44.047-58.118-44.047-38.541 0-67.906 24.47-75.247 66.071h-48.33c9.177-75.248 66.071-123.578 145.601-123.578 78.306 0 127.859 46.495 127.859 115.625V325.31c0 24.471 9.177 34.259 31.812 35.483v42.823c-9.788 3.671-25.082 6.118-41.6 6.118-44.047 0-68.518-21.412-74.636-56.283-18.353 36.707-55.059 58.73-104 58.73m36.094-56.894c38.541 0 66.071-28.142 66.071-71.577v-56.895c-10.4 15.906-29.365 28.142-59.341 38.542-36.095 12.847-50.165 29.976-50.165 52 0 22.636 16.517 37.93 43.435 37.93m420.12-189.037c-11.62-3.058-23.86-4.894-36.7-4.894-42.83 0-66.69 25.695-66.69 78.307v163.953h-86.256V80.603h81.366v88.706c15.91-60.565 57.51-97.27 108.28-97.883zm184.63 246.543c-93.6 0-159.06-65.459-159.06-169.46 0-102.165 68.52-171.907 157.83-171.907 86.26 0 148.66 61.177 148.66 174.354H1230.3c2.45 74.636 36.71 110.119 88.71 110.119 39.15 0 70.96-25.083 82.58-67.907h48.33c-15.29 78.918-72.8 124.801-151.1 124.801m-3.06-293.037c-32.43 0-55.67 25.694-63.01 79.53h121.74c-4.28-53.224-26.31-79.53-58.73-79.53" data-color="1"/>
        <path fill="#2F54EC" d="M50.889 29.618c-5.851 0-10.219-4.368-10.219-11.29 0-7.005 4.45-11.538 10.507-11.538 6.016 0 10.22 4.45 10.22 11.25 0 7.087-4.45 11.578-10.508 11.578m.247-2.967c3.132 0 5.316-2.472 5.316-8.323 0-5.645-2.225-8.57-5.522-8.57-3.173 0-5.315 2.513-5.315 8.281 0 5.687 2.225 8.612 5.521 8.612M81.066 29 73.033 7.409H78.1l5.934 17.306 5.85-17.306h3.874L85.517 29zM96.595 4.236V-.008h4.78v4.244zM96.636 29V7.409h4.656V29zm8.812 0v-3.667l10.754-14.71h-10.507V7.409h15.864v3.131l-11.084 15.287h11.496V29zm20.4-24.764V-.008h4.78v4.244zM125.89 29V7.409h4.656V29zm17.218.618c-4.08 0-6.882-3.05-6.882-7.664V7.409h4.656v13.927c0 3.008 1.525 4.738 4.327 4.738s4.739-2.39 4.739-6.345V7.409h4.656V29h-4.409v-4.45c-1.072 3.09-3.791 5.068-7.087 5.068M160.455 29V7.409h4.368v4.573c1.071-3.131 3.832-5.192 7.17-5.192 4.12 0 6.963 3.05 6.963 7.665V29H174.3V15.114c0-3.008-1.566-4.739-4.409-4.739-2.802 0-4.78 2.349-4.78 6.346V29zm33.003.618c-5.934 0-10.26-4.409-10.26-11.29 0-6.84 4.532-11.538 10.136-11.538 5.522 0 9.601 4.039 9.601 11.538h-14.793c.124 5.315 2.555 7.911 6.305 7.911 2.884 0 5.109-1.813 5.933-4.944h2.844c-1.072 5.274-4.657 8.323-9.766 8.323m-.206-19.86c-2.514 0-4.368 1.895-4.945 5.686h9.519c-.33-3.75-2.061-5.687-4.574-5.687" data-color="1"/>
    </g>
</svg>
