<?xml version="1.0" encoding="UTF-8"?>
<svg data-bbox="0 0.796 85.327 56.112" xmlns="http://www.w3.org/2000/svg" viewBox="0 0 86 57" height="57" width="86" data-type="color">
    <g>
        <path fill="#2F54EC" d="M54.251 43.318v3.909c-8.953.364-17.139 1.52-20.994 9.681C27.125 46.461 11.5 42.418 0 40.868c21.103.49 26.796 4.842 32.485 7.366 6.175-4.467 13.963-5.036 21.766-4.916" data-color="1"/>
        <path fill="#2F54EC" d="M85.327 36.013C79.93 45.853 69.77 46.726 59.68 47.055v-3.578c10.593.368 20.516.636 25.646-7.464" data-color="1"/>
        <path fill="#FFFCF7" d="M67.829 11.343c-4.525 0-6.94 1.811-8.148 3.319h-.301c-.603-1.81-2.111-2.716-5.128-2.716h-.56v-.007H42.153v.007h-.228v-.007H30.25v.009h-.018l-8.447 19.913-5.432-12.974c-2.713-6.336-6.637-7.542-10.258-7.542-.542 0-2.798.301-2.798.301 2.957.184 5.092 2.716 7.024 7.241l9.351 22.024h1.208l11.857-27.766h1.419c4.118 0 4.806 2.414 4.806 6.035v21.73h6.135V19.18c0-3.489.721-5.858 4.958-6.026 3.596.014 4.197 2.421 4.197 6.032v32.586h5.43V39.099c1.81.905 4.225 1.81 7.543 1.81 7.844 0 11.465-6.636 11.465-14.783 0-8.148-3.62-14.783-10.861-14.783m-2.415 27.153c-1.811 0-3.922-.904-5.733-1.811V17.377c1.208-1.81 3.017-3.62 6.336-3.62 4.829 0 7.752 5.43 7.752 12.369s-2.923 12.37-8.355 12.37" data-color="2"/>
        <path fill="#FFFCF7" d="M42.153 11.939h-.228v.006h.228z" data-color="2"/>
        <path fill="#FFFCF7" d="M37.742 5.091a4.185 4.185 0 1 1 8.367.003 4.185 4.185 0 0 1-8.367-.003" data-color="2"/>
        <path fill="#FFFCF7" d="M42.153 11.939h-.228v.006h.228z" data-color="2"/>
    </g>
</svg>
