<?xml version="1.0" encoding="UTF-8"?>
<svg data-bbox="0.715 0.813 295.931 43.082" xmlns="http://www.w3.org/2000/svg" viewBox="0 0 297 44" height="44" width="297" data-type="color">
    <g>
        <g clip-path="url(#c5e09c95-f4ef-4eae-85d6-9a37e6ebadb4)">
            <path fill="#00B3E6" d="M7.895 43.895v-7.18h32.312v7.18zM33.344 7.993H14.756l9.295 12.865zM47.388.813 24.05 33.125.715.813z" clip-rule="evenodd" fill-rule="evenodd" data-color="1"/>
            <path fill="#000000" d="M75.867 36.718V25.193H64.815v11.525h-6.663V7.996h6.663v11.24h11.052V7.99h6.662v28.722z" data-color="2"/>
            <path fill="#000000" d="M90.937 36.718V7.996h18.199v6.107H97.599v5.134h10.505v5.8H97.599v5.605h11.537v6.076z" data-color="2"/>
            <path fill="#000000" d="M117.073 36.718V7.996h6.66v22.652h11.524v6.076z" data-color="2"/>
            <path fill="#000000" d="M140.849 36.718V7.996h6.672v22.652h11.521v6.076z" data-color="2"/>
            <path fill="#000000" d="M177.837 37.188c-8.898 0-14.579-6.388-14.579-14.816s5.957-14.854 14.854-14.854c8.898 0 14.58 6.39 14.58 14.854s-5.996 14.816-14.855 14.816m.111-23.71c-4.545 0-7.602 3.721-7.602 8.894s3.057 8.898 7.602 8.898c4.544 0 7.605-3.764 7.605-8.898s-3.052-8.894-7.605-8.894" data-color="2"/>
            <path fill="#000000" d="M207.088 37.188c-3.252 0-7.18-1.293-9.678-2.941l1.84-6.035c2.312 1.685 5.331 2.783 8.036 2.783 2.351 0 3.252-1.098 3.252-2.508 0-1.495-.745-2.51-5.134-4.272-5.056-2.037-6.813-4.978-6.813-8.428 0-4.188 3.408-8.27 10.11-8.27 3.135 0 6.351 1.099 8.036 2.236l-1.691 5.956c-1.648-1.136-4.311-2.351-6.351-2.351-2.43 0-3.408 1.137-3.408 2.313 0 1.881 1.448 2.51 5.056 4.035 5.368 2.274 6.974 4.862 6.974 8.545 0 4.587-3.33 8.937-10.229 8.937" data-color="2"/>
            <path fill="#000000" d="M224.462 36.718V7.996h6.663v28.722z" data-color="2"/>
            <path fill="#000000" d="M264.34 20.571V34.29a20.7 20.7 0 0 1-10.896 2.899c-8.425 0-15.088-6.035-15.088-14.816 0-8.78 6.74-14.854 15.441-14.854 3.763 0 6.779.981 9.639 2.471l-2.782 5.367a13.96 13.96 0 0 0-6.415-1.606c-5.723 0-8.778 3.566-8.778 8.622 0 5.487 3.683 8.898 8.378 8.898 2.115 0 3.174-.236 4.233-.784v-4.233h-5.765v-5.685z" data-color="2"/>
            <path fill="#000000" d="m295.981 37.266-17.322-15.558v15.01h-6.663V7.598l.897-.158 17.09 15.44V7.99h6.663v29.16z" data-color="2"/>
        </g>
        <defs fill="none">
            <clipPath id="c5e09c95-f4ef-4eae-85d6-9a37e6ebadb4">
                <path fill="#ffffff" d="M296.723.55v43.382H.532V.55z"/>
            </clipPath>
        </defs>
    </g>
</svg>
