<?xml version="1.0" encoding="UTF-8"?>
<svg data-bbox="0.485 0.37 295.761 58.794" xmlns="http://www.w3.org/2000/svg" viewBox="0 0 297 60" height="60" width="297" data-type="color">
    <g>
        <g clip-path="url(#7baf56c5-d26d-4a21-8fd1-b1e39e531032)">
            <path fill="#2A3B47" d="m81.851 11.459-.099.049v15.721H66.82V11.508l-.099-.05a16.6 16.6 0 0 0-6.604 0l-.098.05v36.174l.098.049c1.084.197 2.169.345 3.253.345s2.168-.099 3.302-.345l.098-.05V32.996h14.933v14.687l.099.049c2.168.443 4.386.443 6.604 0l.098-.05V11.509l-.098-.05a16.3 16.3 0 0 0-6.555 0m23.114 10.152c-7.836 0-12.469 4.928-12.469 13.208 0 4.287.986 7.688 2.957 10.053 2.168 2.563 5.372 3.894 9.61 3.894 7.196 0 10.892-4.288 11.385-8.575v-.099l-.099-.05c-1.823-.59-3.499-.739-5.52-.443h-.049v.05c-.443 2.513-2.513 4.04-5.618 4.04-4.288 0-6.407-2.365-6.456-7.195h18.136v-.098c.542-4.78-.444-8.674-2.76-11.286-2.119-2.267-5.273-3.5-9.117-3.5m-.05 4.682c1.775 0 3.302.542 4.337 1.675s1.577 2.81 1.479 4.83H98.706c.098-4.14 2.365-6.505 6.209-6.505m16.313-14.834-.098.049v36.174l.098.049c1.035.197 2.021.345 3.105.345 1.035 0 2.07-.099 3.105-.345l.098-.05V11.509l-.098-.05c-2.021-.492-4.14-.443-6.21 0m24.149 10.152c-2.711 0-5.569 1.035-8.28 3.055l-.394-1.922-.049-.049c-1.528-.444-2.809-.444-4.337 0l-.049.05V58.77l.098.05c1.035.197 2.021.344 3.105.344s2.07-.098 3.105-.345l.098-.049V46.745c2.169 1.38 4.436 2.02 6.998 2.02 7.097 0 11.385-5.026 11.385-13.503-.099-8.624-4.288-13.651-11.68-13.651m-6.851 7.146c1.922-1.282 3.647-1.922 5.569-1.922 4.337 0 6.703 3.006 6.703 8.477 0 5.371-2.316 8.23-6.752 8.23-1.922 0-3.696-.592-5.47-1.873zm45.637-.542a38 38 0 0 0-3.007-1.084c-4.928-1.775-7.885-2.81-7.934-5.47-.05-1.233.345-2.268 1.182-3.155 1.233-1.281 3.302-1.922 5.865-1.922 2.514 0 4.436.69 5.618 1.922.986 1.035 1.43 2.514 1.282 4.288v.098l.098.05c2.169.443 4.288.394 6.604-.148l.099-.05v-.098c.148-3.006-.789-5.668-2.661-7.64-2.317-2.463-6.062-3.745-10.793-3.794h-.148c-8.773 0-14.046 3.893-14.095 10.448-.05 6.506 5.963 8.674 9.561 9.955l.542.197c1.183.444 2.316.789 3.302 1.183 4.879 1.676 7.786 2.71 7.885 5.274q.074 1.995-1.183 3.252c-1.183 1.183-3.203 1.774-5.914 1.774-3.006 0-5.273-.788-6.604-2.168-.936-1.035-1.33-2.415-1.182-3.992v-.099l-.099-.049c-2.168-.443-4.386-.394-6.604.099l-.049.049v.099c-.197 2.907.69 5.52 2.612 7.54 2.513 2.71 6.702 4.14 12.025 4.09 5.224 0 13.848-1.429 13.947-10.546-.099-6.21-5.323-8.181-10.349-10.103m26.07-1.33c4.337 0 5.372 2.808 5.569 4.484v.099h.099c2.02.295 3.893.197 5.717-.346l.098-.049v-.098c-.197-2.514-1.281-4.83-3.055-6.456-2.021-1.873-4.978-2.908-8.428-2.908-8.23 0-12.764 4.83-12.764 13.602 0 8.723 4.485 13.553 12.666 13.553 3.499 0 6.456-1.035 8.575-2.957 1.725-1.626 2.76-3.795 3.006-6.16v-.1l-.098-.048c-1.725-.592-3.647-.69-5.717-.345h-.05v.049c-.542 3.943-4.386 4.238-5.568 4.238-4.436 0-6.506-2.661-6.506-8.329-.049-5.618 2.021-8.23 6.456-8.23m27.106-5.274c-8.083 0-12.567 4.83-12.567 13.602 0 8.723 4.484 13.553 12.567 13.553s12.567-4.83 12.567-13.553c0-8.772-4.485-13.602-12.567-13.602m6.456 13.651c0 5.618-2.119 8.33-6.456 8.33s-6.456-2.712-6.456-8.33c0-5.717 2.02-8.378 6.456-8.378 4.337 0 6.456 2.71 6.456 8.378m26.366-12.468-.098.049V40.83c-2.021 1.774-3.894 2.514-6.062 2.514-3.006 0-4.337-1.725-4.337-5.816V22.744l-.098-.049a13.2 13.2 0 0 0-6.21 0l-.099.05v16.214c0 6.16 3.302 9.708 9.118 9.708 3.104 0 5.815-1.183 8.723-3.893l.591 2.809.049.05a8.65 8.65 0 0 0 4.485 0l.099-.05V22.695l-.099-.05a13.3 13.3 0 0 0-6.062.149m25.775 20.058-.049-.099-.098.05c-2.465.542-3.894.542-4.732-.148-.69-.542-1.035-1.528-1.035-3.105V28.018H295l.049-.099a12.8 12.8 0 0 0 0-5.125l-.049-.099h-4.978v-6.85l-.098-.05a14.4 14.4 0 0 0-6.161 0l-.098.05.049 6.85h-3.154l-.049.099a11.26 11.26 0 0 0 0 5.125l.049.099h3.154l.049 11.088c0 3.105.198 6.21 2.317 8.033 1.183.937 2.858 1.43 5.027 1.43 1.33 0 2.907-.198 4.682-.542h.049l.049-.05c.444-1.675.493-3.4.049-5.125" data-color="1"/>
            <path fill="#1087D8" d="m4.033 34.572 17.101-17.1a11.98 11.98 0 0 0 3.598-8.576c0-3.302-1.33-6.358-3.5-8.526L4.133 17.47a11.98 11.98 0 0 0-3.598 8.575c0 3.352 1.33 6.358 3.5 8.526m41.398-10.004L28.33 41.669a11.98 11.98 0 0 0-3.598 8.575c0 3.302 1.33 6.358 3.5 8.526l17.1-17.101a11.98 11.98 0 0 0 3.598-8.575c0-3.352-1.33-6.358-3.5-8.526m-.099-7.048a11.98 11.98 0 0 0 3.598-8.575c0-3.302-1.33-6.357-3.5-8.526L4.083 41.72C1.865 43.935.485 46.941.485 50.342c0 3.302 1.33 6.357 3.499 8.526z" data-color="2"/>
        </g>
        <defs fill="none">
            <clipPath id="7baf56c5-d26d-4a21-8fd1-b1e39e531032">
                <path fill="#ffffff" d="M296.676.37v59.14H.485V.37z"/>
            </clipPath>
        </defs>
    </g>
</svg>
