<?xml version="1.0" encoding="UTF-8"?>
<svg data-bbox="0.372 0.55 295.777 82.85" xmlns="http://www.w3.org/2000/svg" viewBox="0 0 297 84" height="84" width="297" data-type="color">
    <g>
        <g clip-path="url(#76eb9ed8-3a9c-4bb5-bb5c-a3916c0b9c64)">
            <path fill="#430098" d="M67.274.55H7.829A7.426 7.426 0 0 0 .372 8.006v67.938A7.426 7.426 0 0 0 7.83 83.4h59.445a7.425 7.425 0 0 0 7.457-7.456V8.006A7.426 7.426 0 0 0 67.274.55m3.314 75.394c0 1.864-1.45 3.314-3.314 3.314H7.829c-1.864 0-3.314-1.45-3.314-3.314V8.006c0-1.864 1.45-3.314 3.314-3.314h59.445c1.864 0 3.314 1.45 3.314 3.314zm-51.574-4.971 9.32-8.285-9.32-8.285zm33.554-33.555c-1.657-1.657-4.764-3.728-9.942-3.728-5.593 0-11.392 1.45-15.535 2.9V12.977h-8.285V48.81l5.8-2.692s9.528-4.35 17.813-4.35c4.142 0 5.178 2.278 5.178 4.35v24.855h8.285V46.118c.207-.622.207-5.178-3.314-8.7M41.59 26.441h8.285c3.729-4.35 5.593-8.7 6.214-13.464h-8.285c-.828 4.764-2.9 9.114-6.214 13.464m228.875 19.47V27.682h8.285V45.91c0 4.142 1.45 6.213 4.764 6.213s4.557-1.864 4.557-6.214V27.684h8.078v18.435c0 8.078-3.936 12.841-12.842 12.841-8.906-.207-12.842-4.97-12.842-13.049m-34.797-18.228h8.285v11.185l8.492-11.185h9.528l-10.356 12.014 11.184 18.641h-9.32l-7.25-12.22-2.278 2.692v9.528h-8.285zm-39.354 15.12c0-11.184 7.663-15.948 15.12-15.948s15.12 4.764 15.12 15.949-7.663 15.948-15.12 15.948-15.12-4.556-15.12-15.948m21.748 0c0-5.592-2.485-9.113-6.835-9.113s-6.835 3.521-6.835 9.114c0 5.592 2.485 9.32 6.835 9.32s6.835-3.52 6.835-9.32m-55.096-15.12h12.014c7.871 0 12.634 2.693 12.634 9.942 0 4.764-2.071 7.664-6.006 8.907l6.421 11.806h-8.7l-6.006-10.563h-2.279V58.34h-8.078zm11.807 13.67c3.314 0 4.971-1.035 4.971-3.52s-1.45-3.522-4.971-3.522h-3.522v7.043zm-43.497-13.67h21.955v6.836h-13.67v4.97h9.735v6.422h-9.735v5.592h14.292v6.628h-22.577zm-37.49 0h8.285v11.392h10.149V27.683h8.286v30.655h-8.286V45.91h-10.149v12.428h-8.285z" data-color="1"/>
        </g>
        <defs fill="none">
            <clipPath id="76eb9ed8-3a9c-4bb5-bb5c-a3916c0b9c64">
                <path fill="#ffffff" d="M296.563.55v82.851H.372V.55z"/>
            </clipPath>
        </defs>
    </g>
</svg>
