<?xml version="1.0" encoding="UTF-8"?>
<svg data-bbox="0.007 0.87 225.001 175.86" xmlns="http://www.w3.org/2000/svg" viewBox="0 0 225 177" height="177" width="225" data-type="ugc">
    <g>
        <g clip-path="url(#c3e144e7-3ec6-4b38-b970-e858413c12fd)">
            <path fill="#0A0C14" d="M30.172 87.28c-4.89-6.322-10.055-12.146-16.525-16.698-2.122-1.492-2.022-2.338.23-3.57 13.821-7.57 27.625-15.177 41.493-22.652 2.8-1.51 4.852-3.563 6.974-5.906 3.645-4.031 5.294-8.284 4.678-13.682-.322-2.82.594-3.684 3.389-3.38 5.294.568 9.277-1.276 13.482-4.596C97.736 5.861 113.626.372 131.409.906c20.347.611 42.031 13.512 48.314 37.904.395 1.536 1.098 2.265 2.569 2.777 13.5 4.73 26.974 9.546 40.46 14.32.964.343 2.07.525 2.239 1.74.161 1.137-.841 1.601-1.601 2.117-6.331 4.34-12.467 8.91-17.869 14.403-11.152 11.33-18.955 24.717-24.305 39.601-2.916 8.11-5.203 16.403-6.683 24.882-1.488 8.539-2.508 17.153-2.477 25.858.013 3.142-.556 3.467-3.446 2.222a6689 6689 0 0 0-20.733-8.866c-1.476-.629-3.003-.92-4.639-.915-13.738.034-27.481.039-41.22-.009-1.796-.004-3.436.408-5.033 1.102-10.875 4.73-22.166 8.384-33.088 12.988-1.722.725-2.443.195-2.76-1.671-1.25-7.325-2.469-14.662-4.222-21.892-.17-.694-.221-1.419-.798-1.983-.968.13-1.402.963-1.988 1.545-8.149 8.114-16.255 16.264-24.409 24.374-7.333 7.295-18.268 7.065-25.29-.486-6.048-6.5-5.875-17.114.404-23.389 12.22-12.22 24.43-24.448 36.711-36.607 1.475-1.462 1.692-2.556.677-4.417-3.61-6.61-7.39-13.097-12.042-19.228m70.393-77.6c-14.81 6.976-26.487 17.36-34.684 31.624-7.763 13.513-11.152 27.89-8.18 43.325 2.682 13.916 10.163 24.786 22.448 32.007 15.018 8.826 30.952 8.96 47.125 3.957 16.954-5.242 30.046-15.752 39.974-30.35 10.089-14.84 14.229-31.039 10.562-48.778-4.534-21.944-22.083-34.307-39.267-37.162-12.992-2.161-25.641-.239-37.978 5.372m19.133 144.852c12.579 0 25.155-.052 37.735.048 2.208.017 2.825-.647 2.812-2.83-.083-15.469-.039-30.939-.048-46.409 0-.551.169-1.15-.408-1.844-3.806 3.723-7.537 7.485-11.903 10.961 1.61.716 1.966 1.87 1.957 3.259-.035 4.769 0 9.542-.048 14.311-.026 2.677-.546 3.159-3.193 3.159q-12.361.006-24.722-.013c-3.575-.004-3.844-.273-3.87-3.801-.022-2.851-.204-2.968-2.973-2.374-10.792 2.317-21.523 2.218-32.141-.954-1.298-.387-2.144-.252-3.077.685a657 657 0 0 1-9.113 8.978c-.802.781-.99 1.693-.985 2.747.018 3.615-.017 7.229-.017 10.844q0 3.242 3.155 3.242c15.47 0 30.939-.009 46.843-.013m-51.868-24.852c1.675-1.697 3.302-3.445 5.042-5.081 1.397-1.311 1.58-2.556.477-4.179-1.505-2.217-3.029-4.422-4.86-6.379-3.706-3.966-7.442-7.906-12.31-10.51-1.163-.625-2.418-1.25-3.572-.035-3.975 4.184-8.483 7.872-11.825 12.65-.616.881-.824 1.948-1.692 2.733-4.14 3.745-8.214 7.564-12.293 11.383-.63.585-1.103 1.336-1.723 1.931-4.062 3.875-8.223 7.65-12.19 11.616-2.494 2.495-4.317 5.528-4.287 9.186.044 5.663 2.205 10.328 7.403 13.058 5.364 2.812 10.667 2.846 15.665-1.003 2.422-1.861 4.37-4.205 6.535-6.322 9.812-9.603 19.801-19.02 29.625-29.048m113.171-23.046c8.184-20.083 21.362-36.134 39.835-48.466l-39.735-13.973c.338 3.766-.209 7.103 2.295 10.037 2.144 2.512 3.22 5.606 3.133 9.026-.147 5.806-2.938 10.132-7.403 13.569-1.072.829-2.456 1.336-3.05 2.69-1.832 4.179-3.932 8.21-6.466 12.007-.269.404-.616.881-.143 1.367.399.408.894.425 1.401.2.46-.209.916-.434 1.385-.617 1.067-.42 2.195-1.063 3.241-.1.933.86.634 2.023.321 3.056-.468 1.549-.434 2.929.599 4.296 1.371 1.813.851 3.102-1.428 2.998-2.26-.104-3.484.759-4.326 2.682-.369.842-.872 1.801-2.035 1.644-1.224-.169-1.367-1.31-1.766-2.23-.334-.772.269-1.992-1.033-2.33-.846.503-.581 1.284-.547 1.97.842 17.969 1.671 35.938 2.569 53.903.1 1.957-.078 3.428-3.124 3.368 1.809.872 2.864 1.744 4.517 1.583.712-19.492 4.222-38.338 11.764-56.676M48.714 88.43c-.109-1.887-.881-3.376-2.265-4.734-6.744-6.626-6.28-16.416 1.401-21.996 2.942-2.14 4.734-4.596 5.884-7.859.62-1.762 1.571-3.406 2.34-5.12.247-.551.798-1.05.35-2.027-13.36 7.32-26.669 14.615-40.46 22.17 13.691 10.024 21.875 23.658 29.26 38.043 2.18-2.139 4.089-3.988 5.963-5.867.647-.651.534-1.427.209-2.221-1.315-3.225-2.105-6.588-2.674-10.384m13.162 69.911c.49 3.254.98 6.505 1.523 10.093 3.979-1.636 7.694-3.167 11.408-4.699-1.844-.365-3.576-.382-5.303-.365-5.55.057-4.782.013-4.868-4.743-.035-1.883.29-3.805-.265-5.741-3.007 1.944-3.112 2.161-2.495 5.451m9.499-130.715a1600 1600 0 0 0 3.11-3.176c-.876-.091-1.561-.183-2.251-.23-2.265-.148-3.19 1.245-2.335 3.424.365.924.786.585 1.476-.018"/>
            <path fill="#0A0C14" d="M169.912 53.264c-.442-17.21-8.436-30.02-23.944-37.553-14.325-6.96-28.922-5.328-43.016.79-15.948 6.921-27.026 18.985-34.29 34.858-4.652 11.512-5.524 23.216-2.352 34.988 4.873 18.087 22.226 29.734 39.779 30.055 14.845.269 27.963-4.296 39.254-13.344a68 68 0 0 0 4.222-3.667 80 80 0 0 0 4.578-4.664c10.419-11.552 16.181-25.216 15.769-41.463m-61.063-33.222c10.262-1.32 15.903-1.059 21.475.885-1.506.495-21.106.651-25.029.148 1.397-.404 2.473-.72 3.554-1.033m51.265 55.795c.048 2.57-1.358 4.843-2.408 7.13-1.61 3.52-3.463 6.921-6.028 9.902-1.184-.768-1.41-1.93-2.148-2.707-1.297-1.363-2.469-1.372-3.202.338-.925 2.148-1.914 3.827-4.513 4.344-1.506.3-1.484 1.58-.191 2.803 2.647 2.512 2.625 3.098-.33 5.155-10.562 7.355-22.174 11.356-35.157 10.918-7.92-.269-15.197-2.56-21.806-6.93-.772-.512-1.605-.972-2.135-1.779 1.545-2.278 1.853-2.339 3.997-1.068.911.543 1.888 1.385 2.981.591 1.215-.881.647-2.131.221-3.168-.672-1.632-.464-2.886.994-3.984.738-.55 1.462-1.328 1.21-2.382-.277-1.163-1.331-1.15-2.277-1.237-1.636-.147-2.552-1.197-3.212-2.573-.481-1.011-1.093-2.005-2.352-1.957-1.219.052-1.64 1.172-1.909 2.113-.538 1.866-1.657 2.786-3.558 3.255-2.013.503-2.187 1.722-.564 2.994 1.549 1.21 2.07 2.634 1.427 4.808-2.152-1.384-3.358-3.354-4.703-5.16-3.75-5.029-5.082-10.592-4.622-16.91.452-6.249.2-12.567-.017-18.842-.143-4.092.594-7.867 2.395-11.512 4.023-8.132 9.16-15.383 16.273-21.12 3.797-3.063 7.858-4.916 13.031-4.786 11.777.295 23.563.096 35.344.017 2.048-.017 3.801.495 5.498 1.597 8.344 5.425 14.433 12.576 17.236 22.283 1.041 9.516.347 18.698.525 27.867"/>
            <path fill="#0A0C14" d="M171.943 32.83c4.578 11.321 5.012 22.751 2.204 34.376-.069.282-.173.551-.265.825-.277.816-.711 1.523-1.705 1.228-.924-.273-.837-1.137-.673-1.823.573-2.39.981-4.803 1.38-7.225 1.532-9.251.07-18.103-3.41-26.704-1.129-2.786-2.851-5.181-4.908-7.355-.582-.616-1.432-1.354-.629-2.218.915-.98 1.696-.065 2.386.543 2.552 2.256 4.127 5.181 5.615 8.357z"/>
            <path fill="#0A0C14" d="M63.537 60.901c-1.77 8.527-2.352 16.893-.282 25.277.608 2.46 1.614 4.778 2.79 7.021.4.764.942 1.666-.117 2.27-1.033.586-1.636-.295-2.061-1.024-2.213-3.802-3.328-7.967-3.931-12.285-1.307-9.395-.022-18.547 2.725-27.533.32-1.055.438-2.96 2.043-2.491 1.593.464.669 2.048.378 3.172-.469 1.814-.99 3.619-1.545 5.598z"/>
            <path fill="#0A0C14" d="M150.393 144.317c-1.918 1.532-3.697 2.985-5.507 4.404-.642.504-1.41.955-2.1.161-.794-.916-.104-1.61.573-2.174a635 635 0 0 1 8.006-6.557c.651-.525 1.458-1.276 2.252-.373.838.95.104 1.723-.629 2.365-.811.711-1.645 1.393-2.595 2.178z"/>
            <path fill="#0A0C14" d="M199.619 63.904c.021-1.21.008-2.213.082-3.215.052-.742.495-1.19 1.276-1.142.694.044 1.024.534 1.037 1.159q.057 2.794.017 5.59c-.008.69-.277 1.34-1.076 1.366-.885.03-1.241-.608-1.297-1.402-.048-.716-.031-1.432-.044-2.356z"/>
            <path fill="#0A0C14" d="M35.105 65.974c.716-1.09.495-3.276 2.36-2.517 1.58.642.421 2.14.053 3.207-.803 2.308-1.684 4.587-2.565 6.865-.308.803-.65 1.8-1.779 1.423-1.28-.43-.85-1.475-.534-2.356.781-2.161 1.597-4.314 2.465-6.622"/>
            <path fill="#0A0C14" d="M29.352 72.561c-.096 1.05-.144 2.066-1.324 1.996-1.198-.07-1.115-1.124-1.098-1.97.03-1.345-.178-2.72.36-4.022.2-.49.456-.899 1.06-.894.71.008 1.07.473 1.088 1.084.035 1.207-.047 2.413-.086 3.806"/>
            <path fill="#0A0C14" d="M108.471 34.683c-8.909 2.469-14.663 8.483-16.685 17.41-1.822 8.049-.238 15.309 4.886 21.123a27 27 0 0 0 3.502 3.311c10.167 8.093 23.88 6.4 32.741-3.515a29 29 0 0 0 1.584-1.922c2.812-4.131 4.152-8.583 4.152-13.4 0-15.921-14.797-27.268-30.18-23.007m10.501 24.786c-.716 1.823-2.334 2.604-4.391 2.296-2.243-.343-4.443-.781-5.737-2.903-.768-1.263-.347-2.196 1.12-2.565 3.337-.837 6.67-.946 9.989.113 1.233 1.649-.594 2.083-.981 3.06m14.989 5.884c-4.331-7.494-10.059-12.666-19.315-12.406-8.969.256-15.11 4.552-18.663 12.836-5.26-7.924-1.085-23.68 12.189-28.154 9.234-2.73 18.65.382 23.853 7.685 4.235 5.95 5.234 15.327 1.936 20.04"/>
            <path fill="#0A0C14" d="M128.71 93.117c.473-.903.846-1.68 1.219-2.46.868-1.815 1.94-2.001 3.285-.508a8 8 0 0 1 1.202 1.792c.564 1.14 1.367 1.705 2.686 1.83 2.465.23 3.086 1.48 1.385 3.182-1.636 1.64-1.81 3.215-1.15 5.228.256.777.438 1.788-.387 2.422-.946.725-1.874.147-2.556-.451-1.523-1.328-2.733-1.185-4.282.108-1.545 1.289-2.999.482-2.899-1.614.104-2.226-.156-3.988-2.192-5.42-1.271-.894-.681-2.109.764-2.53 1.059-.308 2.092-.568 2.925-1.58"/>
            <path fill="#0A0C14" d="M95.505 104.29c-.56-.867-.538-1.692-.434-2.46.247-1.81-.239-3.12-1.819-4.244-1.501-1.067-1.171-2.49.63-2.938 1.948-.481 3.206-1.449 3.701-3.445.226-.907.716-1.823 1.81-1.931 1.08-.109 1.761.668 2.195 1.497.946 1.822 2.053 3.107 4.396 3.176 1.389.044 1.831 1.727.586 2.79-2.005 1.71-2.139 3.515-1.206 5.716.299.702.303 1.436-.343 1.983-.716.607-1.58.503-2.205 0-1.805-1.458-3.45-1.745-5.207.104-.507.538-1.35.412-2.109-.252z"/>
            <path fill="#2F54EC" d="M96.343 102.885c-.452-.699-.434-1.363-.352-1.984.2-1.458-.19-2.512-1.462-3.419-1.21-.86-.946-2.005.508-2.365 1.57-.39 2.581-1.167 2.98-2.777.183-.734.578-1.467 1.459-1.554.872-.086 1.419.538 1.766 1.207.759 1.47 1.653 2.504 3.541 2.56 1.119.035 1.475 1.393.473 2.248-1.614 1.38-1.723 2.833-.972 4.604.238.564.247 1.154-.274 1.597-.577.49-1.271.408-1.779 0-1.453-1.176-2.781-1.402-4.192.082-.412.434-1.084.33-1.696-.204z"/>
            <path fill="#2F54EC" d="M80.725 102.885c-.452-.699-.434-1.363-.352-1.984.2-1.458-.19-2.512-1.462-3.419-1.211-.86-.946-2.005.507-2.365C80.99 94.727 82 93.95 82.4 92.34c.183-.734.578-1.467 1.459-1.554.872-.086 1.418.538 1.766 1.207.76 1.47 1.653 2.504 3.54 2.56 1.12.035 1.476 1.393.474 2.248-1.615 1.38-1.723 2.833-.972 4.604.238.564.247 1.154-.274 1.597-.577.49-1.271.408-1.779 0-1.454-1.176-2.781-1.402-4.192.082-.412.434-1.085.33-1.697-.204z"/>
            <path fill="#0A0C14" d="M112.077 93.902c1.063-.864 1.453-1.957 1.931-3.016.972-2.16 2.156-2.291 3.636-.412a8.4 8.4 0 0 1 1.033 1.649c.516 1.12 1.345 1.644 2.564 1.618.899-.017 1.792.074 2.187 1.042.395.959-.104 1.753-.802 2.291-1.675 1.297-2.027 2.799-1.185 4.743.395.911.616 2.07-.447 2.751-1.037.668-2.009.022-2.747-.642-1.232-1.107-2.261-1.232-3.497.013-.638.642-1.541 1.224-2.548.686-1.054-.565-1.284-1.675-.998-2.643.578-1.962.035-3.207-1.631-4.396-1.641-1.167-1.254-2.347.746-2.998.547-.178 1.081-.4 1.753-.695z"/>
            <path fill="#0A0C14" d="M83.186 42.398c-.152.582-.274.998-.374 1.42-.186.785-.355 1.74-1.358 1.657-1.15-.096-1.128-1.133-1.11-2.014.09-4.313 6.044-11.59 10.197-12.48.798-.173 1.666-.316 2.065.616.421.986-.26 1.432-1.084 1.736-4.262 1.571-6.592 4.947-8.336 9.065"/>
            <path fill="#0A0C14" d="M111.014 51.268c-2.942-2.044-4.027-4.769-3.172-8.006.781-2.96 2.903-4.734 5.962-5.285 2.665-.478 5.542.828 7.078 3.198 1.805 2.781 1.462 6.578-.812 8.995-2.282 2.43-5.645 2.877-9.056 1.098"/>
            <path fill="#2F54EC" d="M114.959 51.732a6.258 6.258 0 1 0-.001-12.515 6.258 6.258 0 0 0 .001 12.515"/>
            <path stroke-miterlimit="10" stroke-width=".868" stroke="#0A0C14" fill="#2F54EC" d="M132.919 71.936c-8.861 9.916-22.573 11.608-32.74 3.515a27 27 0 0 1-3.502-3.31c.316-10.45 8.31-18.816 18.125-18.816 9.816 0 17.705 8.258 18.117 18.611Z"/>
            <path fill="#2F54EC" d="M112.598 102.885c-.452-.699-.434-1.363-.352-1.984.2-1.458-.191-2.512-1.462-3.419-1.211-.86-.946-2.005.507-2.365 1.571-.39 2.582-1.167 2.982-2.777.182-.734.577-1.467 1.458-1.554.872-.086 1.419.538 1.766 1.207.759 1.47 1.653 2.504 3.541 2.56 1.119.035 1.475 1.393.473 2.248-1.615 1.38-1.723 2.833-.972 4.604.238.564.247 1.154-.274 1.597-.577.49-1.271.408-1.779 0-1.454-1.176-2.781-1.402-4.192.082-.412.434-1.085.33-1.696-.204z"/>
            <path fill="#2F54EC" d="M128.423 102.885c-.451-.699-.434-1.363-.352-1.984.2-1.458-.191-2.512-1.462-3.419-1.211-.86-.946-2.005.508-2.365 1.57-.39 2.582-1.167 2.981-2.777.182-.734.577-1.467 1.458-1.554.872-.086 1.419.538 1.766 1.207.759 1.47 1.653 2.504 3.541 2.56 1.119.035 1.475 1.393.473 2.248-1.614 1.38-1.723 2.833-.972 4.604.238.564.247 1.154-.274 1.597-.577.49-1.271.408-1.779 0-1.453-1.176-2.781-1.402-4.192.082-.412.434-1.084.33-1.696-.204z"/>
            <path fill="#2F54EC" d="M166.965 92.691c.833-.047 1.402.291 1.896.668 1.172.89 2.283 1.068 3.698.404 1.345-.633 2.208.16 1.809 1.606-.434 1.558-.252 2.825.95 3.962.547.516.994 1.223.638 2.035-.351.802-1.167.972-1.918.946-1.653-.061-2.994.212-3.97 1.826-.582.959-1.94.604-2.192-.694-.408-2.083-1.618-2.894-3.532-3.107-.612-.069-1.128-.351-1.254-1.024-.143-.742.269-1.306.877-1.549 1.735-.69 2.586-1.731 1.987-3.693-.174-.568.243-1.106 1.011-1.38"/>
            <path fill="#2F54EC" d="M144.596 99.817c.082-1.176-.313-2.061-1.389-2.825-1.119-.794-.876-1.858.469-2.192 1.458-.355 2.391-1.08 2.764-2.568.169-.677.534-1.359 1.35-1.441.807-.083 1.319.499 1.635 1.115.421.807.881 1.475 1.558 1.896q.06.039.126.078a124 124 0 0 1-6.539 6.184q.019-.124.026-.247"/>
            <path fill="#2F54EC" d="M185.417 63.184c0 5.819-3.597 10.805-8.687 12.849a.305.305 0 0 1-.404-.386c1.918-5.143 3.545-11.5 3.875-18.833a57 57 0 0 0 .052-3.758.303.303 0 0 1 .508-.23 13.8 13.8 0 0 1 4.656 10.353z"/>
            <path fill="#2F54EC" d="M119.822 132.327h26.982V116.41a45.77 45.77 0 0 1-23.545 11.356l-3.437.556z"/>
            <path fill="#2F54EC" d="m52.95 60.433-2.032 24.14q-.54-.227-1.054-.5a12.72 12.72 0 0 1-6.765-10.726c-.239-5.767 3.398-10.792 8.596-12.559.408-.143.83-.264 1.254-.355"/>
            <path fill="#2F54EC" d="m59.133 102.909 15.122 15.254a4.89 4.89 0 0 1-.03 6.91l-44.133 43.75c-6.124 6.071-16.029 6.027-22.099-.096s-6.027-16.028.097-22.098l44.133-43.751a4.89 4.89 0 0 1 6.91.031"/>
        </g>
        <defs fill="none">
            <clipPath id="c3e144e7-3ec6-4b38-b970-e858413c12fd">
                <path fill="#ffffff" d="M225 .87v175.865H0V.87z"/>
            </clipPath>
        </defs>
    </g>
</svg>
