<?xml version="1.0" encoding="UTF-8"?>
<svg data-bbox="0.008 -0.001 225.001 175.86" xmlns="http://www.w3.org/2000/svg" viewBox="0 0 225 176" height="176" width="225" data-type="ugc">
    <g>
        <g clip-path="url(#0d6e88d9-46d9-4e0f-84fa-9a43c0d2b703)">
            <path fill="#0A0C14" d="M30.173 86.41c-4.89-6.323-10.055-12.146-16.525-16.698-2.121-1.493-2.022-2.34.23-3.572C27.7 58.573 41.503 50.966 55.371 43.49c2.8-1.51 4.852-3.563 6.974-5.906 3.645-4.031 5.294-8.284 4.677-13.682-.32-2.82.595-3.684 3.39-3.38 5.293.568 9.277-1.276 13.482-4.596C97.737 4.99 113.627-.499 131.41.035c20.347.612 42.031 13.512 48.314 37.904.395 1.536 1.098 2.265 2.569 2.777 13.5 4.73 26.974 9.547 40.46 14.32.964.343 2.07.525 2.239 1.74.161 1.137-.841 1.601-1.601 2.118-6.331 4.34-12.467 8.908-17.869 14.402-11.152 11.33-18.955 24.717-24.305 39.601-2.916 8.11-5.203 16.403-6.683 24.882-1.488 8.54-2.508 17.153-2.477 25.858.013 3.142-.556 3.467-3.446 2.222a6689 6689 0 0 0-20.733-8.865c-1.476-.63-3.003-.92-4.639-.916-13.738.035-27.481.039-41.22-.009-1.796-.004-3.436.408-5.033 1.102-10.875 4.73-22.166 8.384-33.088 12.988-1.723.725-2.443.195-2.76-1.671-1.25-7.324-2.469-14.662-4.222-21.892-.17-.694-.221-1.419-.798-1.983-.968.131-1.402.964-1.988 1.545-8.15 8.115-16.255 16.264-24.409 24.374-7.333 7.295-18.268 7.065-25.29-.486-6.048-6.5-5.875-17.114.404-23.389 12.22-12.219 24.43-24.448 36.711-36.607 1.476-1.462 1.693-2.556.677-4.417-3.61-6.609-7.39-13.096-12.042-19.228m70.393-77.6C85.764 15.782 74.087 26.166 65.89 40.43c-7.763 13.513-11.152 27.889-8.18 43.324 2.682 13.916 10.163 24.786 22.448 32.007 15.018 8.826 30.952 8.961 47.125 3.957 16.954-5.241 30.046-15.751 39.974-30.349 10.089-14.84 14.229-31.04 10.562-48.779-4.534-21.944-22.083-34.307-39.267-37.162-12.992-2.16-25.641-.239-37.978 5.372m19.133 144.852c12.579 0 25.155-.052 37.735.048 2.208.017 2.825-.647 2.812-2.829-.083-15.47-.039-30.94-.048-46.41 0-.551.169-1.15-.408-1.844-3.806 3.723-7.538 7.485-11.903 10.961 1.61.716 1.966 1.871 1.957 3.259-.035 4.769 0 9.542-.048 14.311-.026 2.678-.546 3.159-3.193 3.159q-12.361.007-24.722-.013c-3.575-.004-3.844-.273-3.87-3.801-.022-2.851-.204-2.968-2.973-2.374-10.792 2.318-21.523 2.218-32.142-.954-1.297-.386-2.143-.252-3.076.685a663 663 0 0 1-9.113 8.979c-.803.781-.99 1.692-.985 2.746.018 3.615-.017 7.23-.017 10.844q0 3.242 3.155 3.242c15.47 0 30.939-.009 46.843-.013m-51.868-24.852c1.675-1.696 3.302-3.445 5.042-5.081 1.397-1.31 1.58-2.556.477-4.179-1.505-2.217-3.029-4.422-4.86-6.379-3.706-3.966-7.442-7.906-12.31-10.51-1.163-.624-2.418-1.249-3.572-.034-3.975 4.183-8.483 7.871-11.825 12.649-.616.881-.824 1.948-1.692 2.734-4.14 3.745-8.214 7.563-12.293 11.382-.63.586-1.102 1.336-1.723 1.931-4.062 3.875-8.223 7.65-12.19 11.616-2.494 2.495-4.317 5.529-4.287 9.187.044 5.663 2.205 10.327 7.403 13.057 5.364 2.812 10.667 2.847 15.665-1.002 2.422-1.862 4.37-4.205 6.536-6.323 9.81-9.603 19.8-19.019 29.624-29.048M181.01 105.75c8.184-20.082 21.362-36.134 39.835-48.466L181.109 43.31c.338 3.767-.209 7.104 2.295 10.037 2.144 2.513 3.22 5.607 3.133 9.026-.147 5.806-2.938 10.132-7.403 13.569-1.072.829-2.456 1.337-3.05 2.69-1.832 4.18-3.932 8.21-6.466 12.007-.269.404-.616.881-.143 1.367.399.408.894.426 1.401.2.46-.208.916-.434 1.385-.616 1.067-.421 2.195-1.063 3.241-.1.933.86.634 2.022.321 3.055-.468 1.549-.434 2.929.599 4.296 1.371 1.814.851 3.102-1.428 2.998-2.26-.104-3.484.76-4.326 2.682-.369.842-.872 1.801-2.035 1.645-1.224-.17-1.367-1.311-1.766-2.231-.334-.772.269-1.992-1.033-2.33-.846.503-.581 1.284-.547 1.97.842 17.969 1.671 35.939 2.569 53.904.1 1.957-.078 3.428-3.124 3.367 1.809.872 2.864 1.744 4.517 1.584.712-19.493 4.222-38.338 11.764-56.677M48.715 87.559c-.109-1.887-.881-3.376-2.265-4.734-6.744-6.625-6.28-16.415 1.4-21.995 2.942-2.14 4.735-4.595 5.884-7.858.62-1.762 1.571-3.407 2.34-5.121.247-.551.798-1.05.35-2.026-13.36 7.32-26.669 14.615-40.46 22.17 13.691 10.023 21.875 23.658 29.26 38.042 2.18-2.139 4.089-3.987 5.963-5.866.647-.651.534-1.428.209-2.222-1.315-3.224-2.105-6.587-2.674-10.384m13.162 69.911c.49 3.255.98 6.505 1.523 10.094 3.979-1.636 7.694-3.168 11.408-4.7-1.844-.364-3.576-.382-5.303-.364-5.55.056-4.782.013-4.869-4.743-.034-1.884.291-3.806-.264-5.741-3.007 1.944-3.111 2.161-2.495 5.45m9.499-130.715c.993-1.01 1.983-2.022 3.11-3.176-.876-.091-1.561-.182-2.251-.23-2.265-.148-3.19 1.245-2.335 3.424.365.924.786.586 1.475-.018"/>
            <path fill="#0A0C14" d="M169.912 52.393c-.442-17.21-8.436-30.02-23.944-37.552-14.325-6.96-28.922-5.33-43.016.79-15.948 6.92-27.026 18.984-34.29 34.857-4.652 11.513-5.524 23.216-2.352 34.989 4.873 18.086 22.226 29.733 39.779 30.054 14.845.269 27.963-4.296 39.254-13.343a68 68 0 0 0 4.222-3.667 80 80 0 0 0 4.578-4.665c10.419-11.551 16.181-25.216 15.769-41.463m-61.063-33.222c10.262-1.319 15.903-1.058 21.475.886-1.506.494-21.106.65-25.029.147 1.397-.404 2.473-.72 3.554-1.033m51.265 55.796c.048 2.569-1.358 4.843-2.408 7.13-1.61 3.519-3.463 6.92-6.028 9.902-1.184-.768-1.41-1.931-2.148-2.708-1.297-1.363-2.469-1.371-3.202.338-.925 2.148-1.914 3.828-4.513 4.344-1.506.3-1.484 1.58-.191 2.803 2.647 2.513 2.625 3.099-.33 5.156-10.562 7.355-22.174 11.356-35.157 10.917-7.92-.269-15.197-2.56-21.806-6.93-.772-.512-1.605-.972-2.135-1.779 1.545-2.278 1.853-2.339 3.997-1.067.911.542 1.888 1.384 2.981.59 1.215-.881.647-2.131.221-3.168-.672-1.631-.464-2.886.994-3.983.738-.552 1.462-1.328 1.21-2.383-.277-1.163-1.331-1.15-2.277-1.236-1.636-.148-2.552-1.198-3.212-2.574-.481-1.01-1.093-2.004-2.352-1.957-1.219.052-1.64 1.172-1.909 2.114-.538 1.865-1.657 2.785-3.558 3.254-2.013.504-2.187 1.723-.564 2.994 1.549 1.211 2.07 2.634 1.427 4.808-2.152-1.384-3.358-3.354-4.703-5.16-3.75-5.028-5.082-10.592-4.622-16.91.452-6.248.2-12.567-.017-18.841-.143-4.092.594-7.867 2.395-11.513 4.023-8.131 9.16-15.382 16.273-21.12 3.797-3.063 7.858-4.916 13.031-4.785 11.777.295 23.563.095 35.344.017 2.048-.017 3.801.495 5.498 1.597 8.344 5.424 14.433 12.575 17.236 22.282 1.041 9.517.347 18.699.525 27.868"/>
            <path fill="#0A0C14" d="M171.942 31.96c4.578 11.32 5.012 22.75 2.204 34.376-.069.282-.173.55-.265.824-.277.816-.711 1.523-1.705 1.228-.924-.273-.837-1.137-.673-1.822.573-2.391.981-4.804 1.38-7.225 1.532-9.252.07-18.104-3.41-26.705-1.129-2.786-2.851-5.18-4.908-7.355-.582-.616-1.432-1.354-.629-2.217.915-.98 1.696-.065 2.386.542 2.552 2.257 4.127 5.181 5.615 8.358z"/>
            <path fill="#0A0C14" d="M63.537 60.03c-1.77 8.528-2.352 16.894-.282 25.277.608 2.46 1.614 4.778 2.79 7.022.4.763.942 1.666-.117 2.269-1.033.586-1.636-.295-2.061-1.024-2.213-3.801-3.328-7.967-3.931-12.285-1.307-9.395-.022-18.546 2.725-27.533.32-1.055.438-2.96 2.043-2.49 1.593.463.669 2.047.378 3.171-.469 1.814-.99 3.62-1.545 5.598z"/>
            <path fill="#0A0C14" d="M150.394 143.446c-1.918 1.532-3.697 2.986-5.507 4.405-.642.503-1.41.954-2.1.16-.794-.916-.104-1.61.573-2.174a644 644 0 0 1 8.006-6.557c.651-.525 1.458-1.275 2.252-.373.838.95.104 1.723-.629 2.365-.811.712-1.645 1.393-2.595 2.178z"/>
            <path fill="#0A0C14" d="M199.62 63.034c.021-1.211.008-2.213.082-3.216.052-.742.495-1.189 1.276-1.141.694.043 1.024.534 1.037 1.158.039 1.862.043 3.728.017 5.59-.008.69-.277 1.34-1.076 1.366-.885.03-1.241-.607-1.297-1.401-.048-.716-.031-1.432-.044-2.357z"/>
            <path fill="#0A0C14" d="M35.106 65.103c.716-1.089.495-3.276 2.36-2.516 1.58.642.422 2.139.053 3.206-.803 2.309-1.684 4.587-2.565 6.865-.308.803-.65 1.801-1.78 1.424-1.28-.43-.85-1.476-.533-2.357.781-2.16 1.597-4.313 2.465-6.622"/>
            <path fill="#0A0C14" d="M29.35 71.69c-.095 1.05-.143 2.066-1.323 1.997-1.198-.07-1.115-1.124-1.098-1.97.03-1.346-.178-2.721.36-4.023.2-.49.456-.898 1.06-.894.71.009 1.071.473 1.088 1.085.035 1.206-.047 2.413-.087 3.805"/>
            <path fill="#0A0C14" d="M108.47 33.812c-8.909 2.47-14.662 8.484-16.685 17.41-1.822 8.05-.238 15.309 4.886 21.124a27 27 0 0 0 3.502 3.31c10.168 8.094 23.88 6.401 32.741-3.514a29 29 0 0 0 1.584-1.922c2.812-4.132 4.152-8.584 4.152-13.4 0-15.922-14.797-27.269-30.18-23.008M118.971 58.6c-.715 1.822-2.334 2.603-4.391 2.295-2.243-.343-4.443-.78-5.737-2.903-.768-1.263-.347-2.196 1.12-2.564 3.337-.838 6.67-.946 9.989.112 1.233 1.65-.594 2.083-.981 3.06m14.989 5.884c-4.331-7.494-10.059-12.667-19.315-12.406-8.969.256-15.11 4.552-18.663 12.835-5.26-7.923-1.085-23.68 12.189-28.153 9.234-2.73 18.65.382 23.853 7.685 4.235 5.949 5.234 15.326 1.936 20.039"/>
            <path fill="#0A0C14" d="M128.709 92.246a71 71 0 0 0 1.219-2.46c.868-1.814 1.94-2 3.285-.508.478.53.885 1.154 1.202 1.792.564 1.141 1.367 1.706 2.686 1.831 2.465.23 3.086 1.48 1.385 3.181-1.636 1.64-1.81 3.216-1.15 5.229.256.777.438 1.788-.387 2.421-.946.725-1.874.148-2.555-.451-1.524-1.328-2.734-1.185-4.283.109-1.545 1.288-2.999.481-2.899-1.615.104-2.226-.156-3.988-2.191-5.42-1.272-.893-.682-2.109.763-2.53 1.059-.308 2.092-.568 2.925-1.579"/>
            <path fill="#0A0C14" d="M95.505 103.42c-.56-.868-.538-1.692-.434-2.46.247-1.81-.239-3.12-1.819-4.244-1.501-1.068-1.171-2.491.63-2.938 1.948-.482 3.206-1.45 3.701-3.446.226-.906.716-1.822 1.81-1.93 1.08-.11 1.761.668 2.195 1.496.946 1.823 2.053 3.108 4.396 3.177 1.389.043 1.831 1.727.586 2.79-2.005 1.71-2.139 3.515-1.206 5.715.299.703.303 1.436-.343 1.983-.716.608-1.58.503-2.205 0-1.805-1.458-3.45-1.744-5.207.104-.507.538-1.35.413-2.109-.251z"/>
            <path fill="#D1500C" d="M96.342 102.014c-.451-.699-.434-1.363-.352-1.983.2-1.458-.19-2.513-1.462-3.42-1.21-.859-.946-2.004.508-2.365 1.57-.39 2.582-1.167 2.98-2.777.183-.733.578-1.466 1.459-1.553.872-.087 1.419.538 1.766 1.206.759 1.471 1.653 2.504 3.541 2.56 1.119.035 1.475 1.393.473 2.248-1.614 1.38-1.723 2.834-.972 4.604.238.564.247 1.154-.274 1.597-.577.49-1.271.408-1.779 0-1.453-1.176-2.781-1.402-4.192.083-.412.433-1.084.329-1.696-.204z"/>
            <path fill="#D1500C" d="M80.725 102.014c-.452-.699-.434-1.363-.352-1.983.2-1.458-.19-2.513-1.462-3.42-1.211-.859-.946-2.004.507-2.365C80.99 93.857 82 93.08 82.4 91.47c.183-.733.578-1.466 1.459-1.553.872-.087 1.418.538 1.766 1.206.76 1.471 1.653 2.504 3.54 2.56 1.12.035 1.476 1.393.474 2.248-1.615 1.38-1.723 2.834-.972 4.604.238.564.247 1.154-.274 1.597-.577.49-1.271.408-1.779 0-1.454-1.176-2.781-1.402-4.192.083-.412.433-1.085.329-1.697-.204z"/>
            <path fill="#0A0C14" d="M112.078 93.032c1.063-.864 1.453-1.958 1.931-3.016.972-2.161 2.156-2.291 3.636-.413a8.4 8.4 0 0 1 1.033 1.65c.516 1.119 1.345 1.644 2.564 1.618.899-.017 1.792.074 2.187 1.041.395.96-.104 1.753-.802 2.292-1.675 1.297-2.027 2.799-1.185 4.742.395.912.616 2.07-.447 2.752-1.037.668-2.009.021-2.747-.643-1.232-1.106-2.261-1.232-3.497.013-.638.643-1.541 1.224-2.548.686-1.054-.564-1.284-1.675-.998-2.643.577-1.961.035-3.206-1.631-4.395-1.641-1.168-1.254-2.348.746-2.999.547-.178 1.081-.4 1.753-.694z"/>
            <path fill="#0A0C14" d="M83.185 41.528c-.152.581-.274.998-.374 1.419-.186.785-.355 1.74-1.358 1.657-1.15-.095-1.128-1.132-1.11-2.013.09-4.313 6.044-11.59 10.197-12.48.798-.174 1.666-.317 2.065.616.421.985-.26 1.432-1.085 1.736-4.26 1.57-6.591 4.947-8.335 9.065"/>
            <path fill="#0A0C14" d="M111.014 50.397c-2.942-2.044-4.027-4.769-3.172-8.006.781-2.96 2.903-4.734 5.962-5.285 2.665-.477 5.542.829 7.078 3.198 1.805 2.781 1.462 6.578-.812 8.995-2.282 2.43-5.645 2.877-9.056 1.098"/>
            <path fill="#D1500C" d="M114.959 50.862a6.258 6.258 0 1 0-.001-12.516 6.258 6.258 0 0 0 .001 12.516"/>
            <path stroke-miterlimit="10" stroke-width=".868" stroke="#0A0C14" fill="#D1500C" d="M132.918 71.066c-8.861 9.915-22.573 11.607-32.74 3.514a27 27 0 0 1-3.502-3.31c.317-10.45 8.31-18.816 18.125-18.816 9.816 0 17.705 8.258 18.117 18.612Z"/>
            <path fill="#D1500C" d="M112.598 102.014c-.452-.699-.434-1.363-.352-1.983.2-1.458-.191-2.513-1.462-3.42-1.211-.859-.946-2.004.507-2.365 1.571-.39 2.582-1.167 2.982-2.777.182-.733.577-1.466 1.458-1.553.872-.087 1.419.538 1.766 1.206.759 1.471 1.653 2.504 3.541 2.56 1.119.035 1.475 1.393.473 2.248-1.615 1.38-1.723 2.834-.972 4.604.238.564.247 1.154-.274 1.597-.577.49-1.271.408-1.779 0-1.454-1.176-2.781-1.402-4.192.083-.412.433-1.085.329-1.696-.204z"/>
            <path fill="#D1500C" d="M128.424 102.014c-.452-.699-.434-1.363-.352-1.983.2-1.458-.191-2.513-1.462-3.42-1.211-.859-.946-2.004.508-2.365 1.57-.39 2.582-1.167 2.981-2.777.182-.733.577-1.466 1.458-1.553.872-.087 1.419.538 1.766 1.206.759 1.471 1.653 2.504 3.541 2.56 1.119.035 1.475 1.393.473 2.248-1.614 1.38-1.723 2.834-.972 4.604.238.564.247 1.154-.274 1.597-.577.49-1.271.408-1.779 0-1.453-1.176-2.781-1.402-4.192.083-.412.433-1.084.329-1.696-.204z"/>
            <path fill="#D1500C" d="M166.966 91.82c.833-.047 1.402.292 1.896.67 1.172.889 2.283 1.067 3.697.403 1.346-.634 2.209.16 1.81 1.605-.434 1.558-.252 2.825.95 3.962.547.516.994 1.224.638 2.035-.351.803-1.167.972-1.918.946-1.653-.061-2.994.213-3.97 1.827-.582.959-1.94.603-2.192-.694-.408-2.083-1.618-2.895-3.532-3.107-.612-.07-1.128-.352-1.254-1.024-.143-.742.269-1.306.877-1.55 1.735-.69 2.586-1.73 1.987-3.692-.174-.569.243-1.107 1.011-1.38"/>
            <path fill="#D1500C" d="M144.596 98.946c.082-1.176-.313-2.061-1.389-2.825-1.119-.794-.876-1.857.469-2.191 1.458-.356 2.391-1.08 2.764-2.57.169-.676.534-1.357 1.35-1.44.807-.082 1.319.5 1.635 1.115.421.808.881 1.476 1.558 1.897q.06.039.126.078a124 124 0 0 1-6.539 6.183q.019-.123.026-.247"/>
            <path fill="#D1500C" d="M185.417 62.313c0 5.82-3.597 10.805-8.687 12.85a.305.305 0 0 1-.404-.387c1.918-5.142 3.545-11.5 3.875-18.833.061-1.289.074-2.543.052-3.758a.303.303 0 0 1 .508-.23 13.8 13.8 0 0 1 4.656 10.354z"/>
            <path fill="#D1500C" d="M119.822 131.456h26.982V115.54a45.8 45.8 0 0 1-23.545 11.356l-3.437.555z"/>
            <path fill="#D1500C" d="m52.95 59.562-2.032 24.14q-.54-.227-1.054-.5a12.72 12.72 0 0 1-6.765-10.726c-.239-5.767 3.398-10.792 8.596-12.558.408-.143.83-.265 1.254-.356"/>
            <path fill="#D1500C" d="m59.133 102.038 15.122 15.255a4.89 4.89 0 0 1-.03 6.91l-44.133 43.75c-6.124 6.07-16.029 6.027-22.099-.097-6.07-6.123-6.027-16.028.097-22.098l44.133-43.75a4.89 4.89 0 0 1 6.91.03"/>
        </g>
        <defs fill="none">
            <clipPath id="0d6e88d9-46d9-4e0f-84fa-9a43c0d2b703">
                <path fill="#ffffff" d="M225 0v175.865H0V0z"/>
            </clipPath>
        </defs>
    </g>
</svg>
