<?xml version="1.0" encoding="UTF-8"?>
<svg data-bbox="0 -0.112 85.326 56.112" xmlns="http://www.w3.org/2000/svg" viewBox="0 0 86 56" height="56" width="86" data-type="color">
    <g>
        <path fill="#2F54EC" d="M54.251 42.41v3.908c-8.953.364-17.139 1.521-20.994 9.682C27.125 45.552 11.5 41.51 0 39.96c21.103.49 26.796 4.842 32.485 7.366 6.175-4.467 13.963-5.037 21.766-4.916" data-color="1"/>
        <path fill="#2F54EC" d="M85.326 35.105c-5.395 9.84-15.555 10.713-25.646 11.041v-3.578c10.593.369 20.516.637 25.646-7.463" data-color="1"/>
        <path fill="#0A0C14" d="M67.828 10.435c-4.525 0-6.94 1.81-8.147 3.318h-.302c-.603-1.809-2.11-2.715-5.128-2.715h-.56v-.007H42.153v.007h-.228v-.007H30.25v.009h-.018l-8.446 19.913-5.432-12.974c-2.714-6.336-6.638-7.542-10.258-7.542-.543 0-2.798.301-2.798.301 2.957.183 5.092 2.716 7.023 7.241l9.352 22.023h1.208l11.857-27.765h1.418c4.119 0 4.807 2.414 4.807 6.034v21.731h6.135v-21.73c0-3.489.721-5.859 4.958-6.026 3.596.013 4.196 2.42 4.196 6.032v32.585h5.43V38.191c1.81.905 4.225 1.81 7.544 1.81 7.844 0 11.464-6.636 11.464-14.784s-3.62-14.782-10.86-14.782m-2.414 27.153c-1.812 0-3.922-.904-5.733-1.811V16.469c1.208-1.811 3.017-3.62 6.336-3.62 4.828 0 7.752 5.43 7.752 12.368 0 6.94-2.924 12.371-8.355 12.371" data-color="2"/>
        <path fill="#0A0C14" d="M42.153 11.03h-.228v.007h.228z" data-color="2"/>
        <path fill="#0A0C14" d="M37.742 4.183a4.185 4.185 0 1 1 8.367.003 4.185 4.185 0 0 1-8.367-.003" data-color="2"/>
        <path fill="#0A0C14" d="M42.153 11.03h-.228v.007h.228z" data-color="2"/>
    </g>
</svg>
