<?xml version="1.0" encoding="UTF-8"?>
<svg data-bbox="0.926 0.174 175.005 155.002" xmlns="http://www.w3.org/2000/svg" viewBox="0 0 176 156" height="156" width="176" data-type="color">
    <g>
        <g clip-path="url(#a216e1f2-3eb4-4c81-b758-490b800ac452)">
            <path fill="#0A0C14" d="M.93 65.54c.326-5.981 1.48-11.56 4.358-16.717.793-1.418 1.667-2.372 3.275-2.91 6.385-2.136 6.311-2.162 9.48 3.587 4.226 7.672 8.544 15.289 12.814 22.935.353.63.658 1.29 1.113 2.184 1.788-1.086 3.488-2.118 5.192-3.149 2.72-1.65 5.393-3.377 8.177-4.913 1.516-.836 1.571-1.654.789-3.068-4.37-7.871-8.673-15.779-12.983-23.683-.995-1.826-1.869-3.723-2.916-5.52-.686-1.183-.451-1.827.823-2.13 3.8-.898 7.678-1.554 11.393-2.721 5.765-1.812 10.688-.217 15.352 3.079.389.276.796.527 1.37.906.961-3.175 1.773-6.25 2.826-9.237 2.163-6.118 4.458-12.188 6.69-18.28.606-1.65 1.85-2.08 3.48-2.066 6.915.06 13.829.048 20.739.092 1.145.008 1.89-.17 2.669-1.304.591-.861 2.174-1.362 3.352-1.44C105.694.743 112.472.434 119.25.18c2.294-.089 4.292.84 5.933 2.475 3.991 3.974 8.015 7.915 11.951 11.94 3.07 3.142 3.316 5.352 1.498 9.256-5.661 12.147-9.447 24.824-10.501 38.246-.22 2.803-.789 5.267-4.138 5.852-.337.059-.807.626-.837.987-.418 5.057-.774 10.118-1.145 15.178l.598.424c.544-.442 1.282-.774 1.597-1.34 3.723-6.69 7.267-13.477 11.111-20.092a40 40 0 0 1 5.713-7.573c8.496-8.813 17.143-17.483 25.753-26.19 2.409-2.435 4.869-4.821 7.333-7.197.4-.387.951-.619 1.7-1.094.047.759.176 1.175.08 1.532-3.098 11.908-6.227 23.804-9.329 35.712-1.234 4.74-2.042 9.631-3.72 14.205-1.461 3.982-3.811 7.647-5.871 11.392-10.835 19.69-21.703 39.362-32.56 59.037-1.744 3.16-3.525 6.305-5.221 9.491-1.087 2.037-2.784 2.755-4.987 2.748-8.749-.026-17.495-.011-26.245-.011-6.18 0-12.355-.033-18.534.018-1.502.011-2.369-.666-3.044-1.908a24337 24337 0 0 0-22.225-40.61c-2.177-3.974-4.428-7.907-6.594-11.889-.577-1.06-1.311-1.396-2.5-1.3-15.562 1.256-28.361-9.605-32.146-22.957-.996-3.506-1.348-7.196-1.994-10.972m99.693 70.554c.063-2.328.272-4.667.133-6.98-.077-1.3-1.135-1.878-2.53-1.745-1.15.107-2.32.073-3.477.007-1.16-.066-1.469.46-1.425 1.54q.14 3.575.125 7.149a1341 1341 0 0 1-.169 14.872c-.018 1.156.4 1.606 1.6 1.654 1.4.055 1.855-.453 1.734-1.805-.426-4.726-.672-9.399 3.316-13.035.378-.346.282-1.215.385-1.852 0 0 .018.015.316.199M95.061 30.672c-3.797 7.617-6.599 15.598-7.718 24.036-.87 6.549-1.172 13.171-1.778 19.757-.05.57-.499 1.108-.76 1.66-.44-.511-1.042-.96-1.277-1.554-.232-.593-.125-1.33-.114-2.003.132-8.427 1.043-16.755 3.117-24.939 2.324-9.16 5.662-17.859 11.338-25.516.129-.173.155-.416.35-.973-4.234 0-8.251-.025-12.268.034-.444.007-1.02.394-1.289.78-.59.848-1.08 1.783-1.516 2.722-8.511 18.386-10.659 37.822-9.517 57.81.077 1.334.595 1.783 1.916 1.783 14.258.011 28.515.059 42.768.132 1.208.008 1.752-.324 1.807-1.646.187-4.593.543-9.182.69-13.775.026-.828-.448-1.885-1.043-2.478-2.203-2.192-3.763-4.656-4.068-7.809-.209-2.161-.411-4.32-.617-6.482l-.506-.177c-.959 2.656-2.328 5.238-2.791 7.978-.822 4.876-1.076 9.845-1.63 14.77-.07.622-.525 1.196-.804 1.793-.349-.593-.973-1.179-.992-1.786-.091-2.571-.132-5.153.041-7.716.393-5.934 1.56-11.672 4.949-16.722.683-1.016.14-1.532-.448-2.357-1.612-2.265-3.264-4.567-4.424-7.079-.955-2.066-1.23-4.45-1.858-6.902-.514 1.005-.969 1.801-1.34 2.633-3.624 8.144-5.61 16.714-6.41 25.554-.386 4.269-.434 8.567-.724 12.846-.033.494-.64.947-.98 1.418-.353-.416-.76-.799-1.036-1.26-.136-.227-.03-.6-.033-.905-.125-7.013.36-13.978 1.696-20.865 1.502-7.738 3.602-15.307 7.751-22.07 1.957-3.185 1.289-6.548 2.005-10.062-1.454 0-2.552.107-3.62-.025-1.623-.2-2.857.265-3.767 1.65-1.645 2.504-3.316 4.994-5.09 7.738m-5.246 55.958c-5.629-.023-11.258-.015-16.886-.089-1.267-.018-1.715.361-1.7 1.672.12 11.782.202 23.565.257 35.343.003 1.142.415 1.44 1.52 1.437 16.335-.096 32.67-.181 49.006-.17 1.905 0 2.353-.578 2.331-2.405a2866 2866 0 0 1-.154-33.69c0-1.48-.485-1.885-1.902-1.889-10.703-.03-21.406-.128-32.472-.21M21.539 76.247c-4.74-8.615-9.484-17.233-14.408-26.18-.55.955-.977 1.54-1.248 2.188-4.51 10.78-3.698 21.094 2.463 31.075 8.21 13.307 25.18 17.793 38.872 10.567 3.004-1.588 5.563-3.348 4.594-7.374-.015-.059-.026-.14 0-.18.503-.726 1.01-1.452 1.527-2.166.367-.512.947-.958 1.09-1.521.22-.873.14-1.823.199-2.74.69-10.947 1.403-21.89 2.03-32.84.052-.872-.242-1.984-.79-2.636-4.313-5.145-9.832-8.38-16.36-9.816-2.038-.449-4.146-.582-6.22-.861q-.16.27-.316.54c.724 1.448 1.403 2.918 2.178 4.336a8102 8102 0 0 0 13.967 25.45c.822 1.492.716 2.505-.896 3.473-7.178 4.32-14.294 8.74-21.432 13.13-1.278.789-2.317.601-3.095-.718-.683-1.16-1.351-2.331-2.166-3.727M129.74 40.801c2.287-6.062 4.479-12.165 6.91-18.173 1.039-2.57 1.197-3.775-.749-5.793-4.12-4.273-8.236-8.563-12.568-12.618-1.128-1.054-3.052-1.794-4.59-1.765-5.181.096-10.358.604-15.535.947-1.917.125-3.83.232-5.926.357.21.53.246.781.382.947 3.275 3.963 6.506 7.963 9.869 11.848 1.675 1.938 2.284 3.985 2.137 6.56-.249 4.383-.429 8.81-.114 13.182.58 8.029 8.346 13.428 13.097 14.128.746.11 1.847.542 2.02 1.072.202.63-.213 1.742-.738 2.265-.738.737-1.763 1.36-2.769 1.602-1.12.273-2.357.063-3.675.063.29 3.757 1.105 7.204 4.27 9.569.602.449 1.762.942 2.174.67.76-.501 1.575-1.529 1.634-2.387.499-7.565 2.206-14.887 4.163-22.474m-20.686 97.949c.011 3.495.015 6.994.04 10.489.022 3.37.055 3.127 3.422 3.44 2.967.276 4.436-.877 5.794-3.422 6.165-11.568 12.506-23.045 18.854-34.514 6.345-11.469 12.774-22.89 19.163-34.338.246-.442.419-.924.742-1.653-5.284.751-8.544-1.337-10.061-6.339-.33.494-.514.73-.657.983-6.135 11.098-12.348 22.15-18.318 33.336-1.039 1.949-1.329 4.438-1.458 6.707-.209 3.665.052 7.355.022 11.035-.014 2.011-.668 2.626-2.687 2.666a172 172 0 0 1-7.707 0c-1.241-.025-2.049.358-2.625 1.525-1.032 2.085-2.281 4.063-3.305 6.151-.551 1.123-.822 2.383-1.219 3.926m56.478-85.665c.925-3.599 1.85-7.197 2.82-10.961q-7.692 2.862-11.555 1.068c-5.276 5.466-10.622 10.928-15.836 16.515-.525.56-.558 1.992-.268 2.829.94 2.714 4.175 4.305 7.542 3.952 2.617-.273 2.886.084 1.861 2.504-1.329 3.138.154 6.328 3.393 7.296 2.79.833 6.568-1.554 7.391-4.758 1.553-6.044 3.055-12.103 4.652-18.449m-98.64 95.908c.885 3.105 2.952 4.217 6.047 3.635.356-.066.735-.04 1.098-.003 1.19.114 1.663-.402 1.6-1.602-.102-2.019-.15-4.044-.164-6.066-.044-5.278-.077-10.553-.074-15.831 0-1.09-.194-1.701-1.501-1.69-5.934.055-11.871.026-17.804.04-.21 0-.419.107-1.003.269 3.955 7.131 7.81 14.073 11.797 21.252M39.666 99.878c3.969 7.116 7.942 14.232 12.017 21.539V93.812c-3.642 2.45-7.277 4.272-11.378 5.02-.265.048-.456.494-.636 1.046M75.781 9.675c2.485 2.538 4.953 5.097 7.471 7.598.592.59 1.355 1.378 2.068 1.403 3.616.144 7.24.067 10.86.067l.353-.582c-2.908-2.78-6.051-5.36-8.65-8.405-2.49-2.917-5.299-3.963-8.982-3.543-1.997.228-4.046.04-6.069.04l-.235.56c1.003.888 2.005 1.775 3.184 2.858m19.746 4.505c1.263 1.24 2.5 2.512 3.8 3.712.426.394.995.833 1.527.87 1.671.11 3.353.04 5.155.04-.157-.38-.19-.56-.29-.689-2.981-3.712-5.959-7.432-8.984-11.112-.301-.368-.907-.666-1.38-.681-2.468-.066-4.94-.033-7.443-.033 2.544 2.648 4.982 5.182 7.615 7.893m-4.34 119.332c0-1.406-.07-2.821.018-4.224.092-1.477-.584-1.867-1.95-1.926-1.501-.067-1.692.652-1.677 1.885.084 6.917.102 13.838.176 20.755.03 2.762.558 3.094 3.433 2.165v-18.658m10.457 13.137c-.143-2.924.668-5.476 2.445-7.878 2.442-3.304 2.86-7.171 2.401-11.274h-3.737c.051.383.033.707.143.973 1.817 4.327.709 8.427-1.942 11.749-1.943 2.434-2.369 4.773-2.156 7.569.07.913.008 1.837.015 2.758.011 2.221.158 2.324 2.537 1.709a322 322 0 0 1 .298-5.609m5.026-6.681c-2.067 1.009-2.552 2.961-2.743 4.964-.183 1.945-.095 3.916-.172 5.875-.048 1.164.213 1.805 1.601 1.801 1.332 0 1.487-.633 1.468-1.705-.066-3.554-.08-7.109-.154-10.935" data-color="1"/>
            <path fill="#E2ECFF" d="M95.12 30.547c1.718-2.618 3.385-5.108 5.03-7.613.907-1.38 2.144-1.845 3.767-1.65 1.069.13 2.167.026 3.621.026-.716 3.51-.048 6.873-2.005 10.062-4.153 6.763-6.253 14.331-7.751 22.07-1.337 6.89-1.821 13.855-1.696 20.864.003.306-.103.678.033.906.275.46.683.844 1.035 1.26.342-.471.947-.924.98-1.418.29-4.28.338-8.578.724-12.847.804-8.843 2.79-17.413 6.411-25.553.37-.833.826-1.628 1.34-2.634.628 2.453.903 4.836 1.858 6.903 1.16 2.508 2.808 4.813 4.424 7.078.587.822 1.127 1.338.448 2.358-3.385 5.05-4.553 10.788-4.95 16.721-.168 2.564-.132 5.149-.04 7.716.022.608.646 1.19.991 1.786.276-.596.731-1.174.805-1.793.554-4.925.807-9.897 1.63-14.77.462-2.74 1.828-5.322 2.79-7.977l.507.177c.206 2.162.407 4.32.617 6.482.305 3.153 1.865 5.617 4.068 7.808.598.593 1.068 1.654 1.043 2.479-.143 4.593-.503 9.182-.691 13.775-.055 1.322-.594 1.653-1.806 1.646-14.257-.07-28.51-.122-42.768-.133-1.322 0-1.84-.449-1.916-1.782-1.142-19.988 1.01-39.424 9.517-57.81.437-.943.925-1.875 1.516-2.722.268-.383.844-.773 1.289-.78 4.017-.06 8.033-.034 12.267-.034-.195.552-.22.8-.349.972-5.676 7.657-9.014 16.357-11.338 25.517-2.075 8.184-2.985 16.511-3.117 24.938-.011.674-.118 1.415.113 2.004.235.593.838 1.042 1.278 1.554.265-.552.709-1.09.76-1.661.606-6.585.907-13.208 1.777-19.756 1.12-8.442 3.925-16.42 7.777-24.161z" data-color="2"/>
            <path fill="#E2ECFF" d="M90.005 86.623c10.883.077 21.585.176 32.292.206 1.417.004 1.906.412 1.902 1.89-.007 11.229.026 22.459.154 33.689.022 1.826-.429 2.405-2.331 2.405-16.336-.015-32.67.073-49.006.169-1.11.007-1.517-.295-1.52-1.436a5955 5955 0 0 0-.257-35.343c-.015-1.308.433-1.687 1.7-1.673 5.628.074 11.257.067 17.066.089z" data-color="2"/>
            <path fill="#2F54EC" d="M21.609 76.361c.745 1.282 1.414 2.45 2.096 3.613.779 1.319 1.814 1.507 3.096.719 7.134-4.39 14.253-8.81 21.431-13.13 1.609-.97 1.715-1.986.896-3.474a7428 7428 0 0 1-13.967-25.45c-.775-1.418-1.454-2.888-2.177-4.335q.16-.27.316-.541c2.074.276 4.182.412 6.22.861 6.528 1.437 12.046 4.667 16.36 9.816.548.652.838 1.764.79 2.637-.628 10.95-1.34 21.892-2.03 32.838-.06.918.021 1.868-.199 2.74-.143.564-.72 1.014-1.09 1.522-.518.714-1.021 1.44-1.528 2.165-.03.041-.018.122 0 .181.97 4.03-1.586 5.79-4.593 7.374-13.692 7.226-30.662 2.743-38.872-10.567C2.2 73.345 1.389 63.032 5.894 52.255c.272-.648.698-1.233 1.249-2.187 4.923 8.95 9.667 17.564 14.477 26.297m19.497.302c-2.699 1.153-3.881 3.624-2.978 6.224.86 2.472 3.29 3.801 5.669 3.098 2.644-.78 4.083-3.344 3.393-6.044-.676-2.644-2.86-3.9-6.084-3.274z" data-color="3"/>
            <path fill="#2F54EC" d="M129.706 40.945c-1.924 7.44-3.631 14.765-4.13 22.327-.055.858-.874 1.886-1.634 2.386-.411.273-1.575-.22-2.174-.67-3.165-2.364-3.984-5.812-4.27-9.569 1.318 0 2.556.21 3.675-.062 1.006-.243 2.035-.866 2.769-1.602.525-.523.94-1.636.738-2.266-.173-.53-1.274-.96-2.02-1.071-4.751-.704-12.513-6.103-13.096-14.129-.316-4.372-.136-8.795.113-13.182.147-2.574-.462-4.622-2.137-6.56-3.363-3.885-6.594-7.885-9.87-11.848-.139-.166-.175-.42-.38-.946 2.096-.126 4.012-.229 5.925-.358 5.177-.342 10.351-.85 15.535-.946 1.542-.03 3.462.71 4.59 1.764 4.332 4.055 8.445 8.342 12.568 12.618 1.946 2.019 1.788 3.223.749 5.794-2.431 6.007-4.623 12.106-6.947 18.316m-4.076-15.977c-2.739-.663-5.437-1.356-7.526-3.5-.441-.452-1.385-.42-2.093-.607-.118.78-.511 1.646-.305 2.328.995 3.318 3.51 5.079 6.715 5.823 1.109.258 1.451.814 2.031 1.672.947 1.4 2.302 2.59 3.686 3.587.445.32 1.81.015 2.225-.464.378-.438.173-1.532-.011-2.28-.29-1.163-.995-2.25-1.142-3.414-.374-2.972-.29-2.983-3.58-3.145" data-color="3"/>
            <path fill="#2F54EC" d="M109.046 138.576c.396-1.37.668-2.629 1.219-3.753 1.024-2.088 2.273-4.066 3.304-6.15.581-1.172 1.388-1.555 2.626-1.525 2.566.055 5.136.051 7.707 0 2.015-.041 2.669-.656 2.687-2.667.03-3.679-.231-7.37-.022-11.034.129-2.269.419-4.759 1.458-6.707 5.97-11.186 12.183-22.243 18.318-33.336.143-.258.323-.49.657-.984 1.517 5.002 4.777 7.09 10.061 6.339-.327.73-.496 1.216-.742 1.654-6.385 11.447-12.814 22.868-19.163 34.337-6.348 11.47-12.689 22.946-18.854 34.515-1.355 2.545-2.823 3.698-5.794 3.421-3.367-.313-3.4-.073-3.422-3.44-.022-3.495-.025-6.994-.036-10.662z" data-color="3"/>
            <path fill="#E2ECFF" d="M165.483 53.224c-1.56 6.199-3.058 12.258-4.615 18.302-.822 3.204-4.601 5.59-7.391 4.758-3.242-.969-4.725-4.158-3.393-7.296 1.025-2.42.76-2.78-1.861-2.505-3.367.354-6.606-1.233-7.542-3.952-.29-.836-.253-2.268.268-2.828 5.214-5.588 10.56-11.05 15.836-16.515q3.863 1.793 11.555-1.068c-.969 3.764-1.895 7.362-2.857 11.108z" data-color="2"/>
            <path fill="#2F54EC" d="M66.814 148.863c-3.921-7.06-7.773-14.003-11.731-21.133.587-.162.793-.269 1.002-.269 5.934-.011 11.87.018 17.804-.041 1.308-.011 1.502.601 1.502 1.691-.004 5.278.03 10.556.073 15.83.019 2.022.063 4.048.166 6.066.062 1.201-.411 1.713-1.601 1.602-.364-.033-.745-.063-1.098.004-3.095.585-5.162-.531-6.117-3.753z" data-color="3"/>
            <path fill="#2F54EC" d="M39.648 99.73c.201-.404.396-.85.657-.898 4.101-.748 7.736-2.57 11.378-5.02v27.605c-4.075-7.307-8.044-14.423-12.035-21.683z" data-color="3"/>
            <path fill="#E2ECFF" d="M75.693 9.58c-1.09-.984-2.093-1.872-3.095-2.763l.235-.56c2.023 0 4.072.188 6.069-.04 3.679-.42 6.492.622 8.98 3.543 2.6 3.046 5.747 5.624 8.651 8.405-.117.195-.235.386-.352.582-3.62 0-7.244.077-10.86-.067-.713-.03-1.477-.817-2.068-1.403-2.523-2.5-4.986-5.06-7.56-7.694z" data-color="2"/>
            <path fill="#E2ECFF" d="M100.33 135.906c-.125.626-.029 1.496-.407 1.842-3.988 3.635-3.742 8.309-3.316 13.034.121 1.352-.334 1.86-1.733 1.805-1.2-.048-1.62-.493-1.601-1.654.08-4.957.143-9.914.169-14.872.015-2.383-.033-4.77-.125-7.149-.04-1.079.265-1.606 1.425-1.539 1.156.066 2.328.099 3.477-.008 1.399-.132 2.452.446 2.53 1.746.139 2.317-.07 4.652-.423 6.806-.209-1.44.055-2.732-.099-3.966-.158-1.256-1.06-2.162-2.445-1.927-1.715.291-2.339 1.728-2.545 3.212-.202 1.459-.146 3.05 1.403 3.864 1.399.736 2.445 0 3.268-1.164.051-.074.275-.026.418-.033z" data-color="2"/>
            <path fill="#E2ECFF" d="M95.432 14.087c-2.534-2.622-4.972-5.156-7.52-7.804 2.5 0 4.972-.037 7.443.033.473.011 1.08.313 1.38.681 3.026 3.68 6 7.4 8.985 11.112.103.13.136.31.29.69-1.807 0-3.488.07-5.155-.041-.529-.037-1.102-.476-1.528-.87-1.3-1.2-2.537-2.471-3.895-3.8" data-color="2"/>
            <path fill="#E2ECFF" d="M91.187 133.693v18.474c-2.875.928-3.403.597-3.433-2.166-.073-6.916-.092-13.837-.176-20.754-.015-1.237.18-1.952 1.678-1.886 1.366.059 2.041.446 1.95 1.927-.089 1.403-.019 2.817-.019 4.408z" data-color="2"/>
            <path fill="#E2ECFF" d="M101.618 146.808a609 609 0 0 0-.271 5.44c-2.38.615-2.526.516-2.537-1.709-.004-.921.055-1.845-.015-2.759-.213-2.799.213-5.137 2.155-7.568 2.651-3.322 3.76-7.422 1.942-11.749-.113-.266-.091-.59-.143-.973h3.738c.459 4.103.044 7.97-2.401 11.274-1.777 2.402-2.589 4.954-2.471 8.048z" data-color="2"/>
            <path fill="#E2ECFF" d="M106.696 140.094c.052 3.69.067 7.245.133 10.799.022 1.072-.133 1.701-1.469 1.705-1.388 0-1.649-.637-1.601-1.801.081-1.956-.007-3.926.173-5.874.187-2.004.672-3.956 2.761-4.829z" data-color="2"/>
            <path fill="#0A0C14" d="M41.256 76.641c3.08-.596 5.265.66 5.944 3.304.69 2.7-.749 5.263-3.392 6.044-2.38.703-4.81-.626-5.67-3.098-.902-2.6.28-5.071 3.118-6.25m2.871 2.645c-1.814-.796-3.01-.553-3.76.817-.66 1.208-.345 2.28.694 3.065 1.098.828 2.299.836 3.298-.18 1.108-1.132 1.19-2.347-.232-3.702" data-color="1"/>
            <path fill="#0A0C14" d="M125.789 24.982c3.136.147 3.052.158 3.422 3.13.147 1.168.852 2.255 1.142 3.415.188.748.393 1.841.011 2.28-.415.478-1.78.784-2.225.464-1.384-.998-2.739-2.188-3.686-3.588-.58-.858-.922-1.414-2.03-1.672-3.206-.74-5.717-2.504-6.716-5.823-.206-.685.187-1.547.305-2.327.712.191 1.652.154 2.093.607 2.089 2.144 4.787 2.836 7.681 3.514z" data-color="1"/>
            <path fill="#0A0C14" d="M100.318 135.902c-.132.015-.356-.033-.407.041-.823 1.164-1.87 1.897-3.268 1.164-1.55-.814-1.605-2.409-1.403-3.864.206-1.484.83-2.924 2.545-3.211 1.384-.236 2.291.67 2.445 1.926.154 1.237-.11 2.526-.048 3.874.143.085.121.07.132.074z" data-color="1"/>
            <path fill="#2F54EC" d="M44.234 79.382c1.314 1.26 1.23 2.475.121 3.605-.999 1.017-2.2 1.01-3.297.18-1.035-.784-1.351-1.855-.694-3.064.749-1.37 1.942-1.613 3.866-.721z" data-color="3"/>
        </g>
        <defs fill="none">
            <clipPath id="a216e1f2-3eb4-4c81-b758-490b800ac452">
                <path fill="#ffffff" d="M175.93.176v155H.93v-155z"/>
            </clipPath>
        </defs>
    </g>
</svg>
