<?xml version="1.0" encoding="UTF-8"?>
<svg data-bbox="0.086 0.855 1429.504 227.435" xmlns="http://www.w3.org/2000/svg" viewBox="0 0 1430 229" height="229" width="1430" data-type="color">
    <g>
        <path fill="#222531" d="M.086 222.176V6.97H53.48v42.797C64.485 20.013 90.57.855 123.177.855c41.167 0 69.29 30.161 69.29 75.811v145.509h-57.47V83.596c0-27.716-13.043-42.796-37.09-42.796-23.64 0-40.351 20.787-40.351 56.247v125.129zm309.248 6.114c-41.167 0-68.883-30.161-68.883-75.811V6.969h57.47V145.55c0 27.716 12.635 42.796 36.275 42.796s39.944-20.787 39.944-56.247V6.969h57.47v215.207h-52.986V179.38c-11.005 30.161-37.091 48.91-69.29 48.91m174.762-6.114V6.97h53.395v42.389C548.088 19.605 572.951.856 603.927.856c30.569 0 53.394 18.341 62.361 47.688C676.886 19.197 701.749.856 732.318.856c39.536 0 66.029 30.161 66.029 75.811v145.509h-57.47V83.596c0-27.716-11.82-42.796-33.422-42.796-22.01 0-37.498 20.787-37.498 56.247v125.129h-57.47V83.596c0-27.716-11.82-42.796-33.422-42.796-22.01 0-37.499 20.787-37.499 56.247v125.129zm457.531 6.114c-62.361 0-105.973-43.612-105.973-112.902 0-68.067 45.65-114.532 105.158-114.532 57.47 0 99.048 40.759 99.048 116.163H895.977c1.63 49.725 24.455 73.365 59.1 73.365 26.086 0 47.283-16.711 55.023-45.242h32.2c-10.19 52.579-48.502 83.148-100.673 83.148m-2.038-195.235c-21.602 0-37.091 17.12-41.982 52.987h81.11c-2.853-35.46-17.526-52.987-39.128-52.987m266.321 30.977c-7.74-2.038-15.9-3.26-24.46-3.26-28.53 0-44.42 17.118-44.42 52.171v109.233h-57.47V6.97h54.21v59.1c10.59-40.351 38.31-64.806 72.14-65.214zm123.01 164.258c-62.37 0-105.98-43.612-105.98-112.902 0-68.067 45.65-114.532 105.16-114.532 57.47 0 99.04 40.759 99.04 116.163h-143.87c1.63 49.725 24.45 73.365 59.1 73.365 26.08 0 47.28-16.711 55.02-45.242h32.2c-10.19 52.579-48.5 83.148-100.67 83.148m-2.04-195.235c-21.6 0-37.09 17.12-41.98 52.987h81.11c-2.86-35.46-17.53-52.987-39.13-52.987" data-color="1"/>
    </g>
</svg>
