<?xml version="1.0" encoding="UTF-8"?>
<svg data-bbox="0.801 0.163 285.001 154.008" xmlns="http://www.w3.org/2000/svg" viewBox="0 0 286 155" height="155" width="286" data-type="color">
    <g>
        <g clip-path="url(#cc04d20f-ec3d-4b46-80e5-f08b501b896c)">
            <path fill="#0A0C14" d="M123.017 150.294c-3.804-1.204-6.943-3.248-10.499-5.165-3.514 6.374-8.739 9.761-16.07 8.914-7.577-.877-10.916-6.054-12.216-12.9-13.934 2.419-17.08.593-20.81-12.089-5.057 1.923-9.61.937-13.638-2.667-2.256-2.02-3.992-4.445-4.307-7.421-.278-2.631-1.524-3.139-3.767-2.951-5.812.496-9.75-2.528-12.78-7.064-1.433-2.147-2.207-4.578-1.935-7.167.236-2.261-.78-3.223-2.806-3.882-6.701-2.19-13.354-4.542-20.019-6.828-.574-.194-1.16-.357-1.705-.61-1.077-.49-2.014-1.21-1.536-2.541.484-1.349 1.675-1.312 2.8-.937A725 725 0 0 1 14.3 90.614c1.505.526 2.86.69 4.209-.52 6.417-5.77 13.735-5.413 21.282-2.933 2.88.95 5.6 2.34 7.99 4.21 1.379 1.076 2.467 1.19 4.076.41 9.918-4.826 22.038-2.419 29.46 5.776.99 1.095 2.176 1.288 3.525 1.33 6.284.194 11.17 3.091 14.932 7.965 2.988 3.871 3.798 8.177 1.948 12.81-.581 1.451-.587 2.437.75 3.677 4.904 4.535 9.386 9.428 10.686 16.353.176.937.726 1.657 1.494 2.195 5.679 3.992 11.854 6.393 18.93 5.915.369-.024.726-.206 1.064-.309.121-1.336-.865-1.899-1.457-2.642-5.25-6.599-9.471-13.771-12.199-21.778-.23-.666-.453-1.343-.593-2.026-.229-1.186.037-2.25 1.168-2.855 1.258-.665 2.092.115 2.836 1.01 2.256 2.709 4.415 5.509 6.786 8.116 6.725 7.39 14.515 13.069 24.645 14.817 1.185.206 2.401.236 3.611.254.556.006 1.215.212 1.772-.496-1.851-1.512-3.799-2.909-5.522-4.542-9.798-9.259-14.66-21.245-18.446-33.795-.381-1.27-.738-3.042 1.028-3.665 1.597-.568 2.232.992 2.963 2.027 4.76 6.755 9.411 13.607 15.483 19.298 8.14 7.632 17.388 12.724 28.957 12.156 3.556-.175 6.858-1.216 9.713-3.393-.393-1.457-1.566-1.56-2.395-1.941-14.406-6.532-24.832-17.291-32.755-30.717-1.434-2.425-2.958-4.814-3.859-7.511-.447-1.337-1.167-2.86.327-3.847 1.657-1.1 2.546.49 3.441 1.5 9.435 10.614 19.976 19.916 32.235 27.155 5.722 3.38 11.407 6.882 18.47 6.719 8.195-.194 12.55-7.626 8.661-14.853-1.784-3.309-4.602-5.576-7.451-7.82a1704 1704 0 0 0-55.743-42.05c-1.76-1.27-3.423-1.742-5.607-1.361-4.856.853-9.749 1.53-14.654 2.05-1.941.206-3.066.986-3.979 2.661-6.477 11.842-16.765 17.218-30.01 17.321a19.96 19.96 0 0 1-9.053-2.093c-5.353-2.642-7.185-7.106-5.28-12.772 2.697-8.02 5.51-15.99 8.763-23.81 2.371-5.691 6.072-10.173 11.425-13.251 4.542-2.613 9.09-5.207 13.656-7.777 4.56-2.559 9.32-4.712 14.454-6.9-2.195-1.743-4.572-2.142-6.822-2.704-9.09-2.262-18.186-4.47-27.699-3.962-10.227.55-19.71 3.932-29.108 7.542-13.064 5.026-26.303 8.927-40.51 8.473-6.58-.212-13.038-.98-19.328-2.963-1.27-.4-2.752-.805-2.298-2.565.471-1.826 1.971-1.324 3.241-.992 5.86 1.512 11.77 2.48 17.866 2.686 12.313.417 23.986-2.244 35.38-6.598 6.398-2.444 12.846-4.748 19.395-6.78 13.475-4.179 26.847-2.994 40.207.562 4.868 1.295 9.682 2.758 14.406 4.494 1.627.599 3.278 1.052 5.019.822 8.365-1.106 16.178.956 23.811 4.089 3.913 1.608 7.838 3.187 11.745 4.808 11.442 4.765 22.752 4.324 33.995-.744 8.63-3.889 17.503-7.27 25.595-12.265 1.439-.89 2.582-.744 3.677.617 13.305 16.534 25.449 33.825 33.958 53.396 3.617 8.321 6.708 16.824 7.222 26.053.108 1.93-.43 2.964-2.141 3.78-10.995 5.262-21.942 10.62-32.931 15.894-2.709 1.3-5.449 1.167-8.116-.285-2.673-1.451-5.08-3.266-7.282-5.358-.732-.69-1.439-1.554-2.606-1.095-3.72 1.464-7.554 2.601-11.243 3.52-.369 1.427.393 2.099.834 2.837 3.242 5.382 3.302 10.783-.363 15.875-3.755 5.225-9.283 6.181-15.15 4.923-2.431-.52-3.513-.285-4.53 2.129-2.981 7.069-9.132 9.488-16.202 10.281-.895.103-1.82.109-2.715.018-3.562-.357-6.097.623-8.891 3.429-6.048 6.072-13.964 6.749-21.972 4.584-2.727-.738-4.336-.157-6.386 1.615-6.792 5.86-14.696 5.739-23.067 3.471m90.827-54.968c2.093 2.141 4.427 2.522 7.421 1.911 9.108-1.862 16.825-6.513 24.5-11.388 2.008-1.276 2.443-2.449 1.506-4.65-8.655-20.339-20.533-38.742-33.56-56.474-1.373-1.869-2.975-1.966-5.044-1.421-7.644 2.032-15.295 2.14-22.933-.206-6.175-1.893-12.078-4.475-18.017-6.98-10.414-4.39-21.04-5.563-31.745-1.324-8.534 3.381-16.281 8.376-24.409 12.586C99.72 33.499 98.395 45.54 93.617 56.148c10.209 1.651 10.494 8.104 8.038 15.978 4.264-.574 7.082-2.54 9.489-5.195 3.986-4.396 6.641-9.585 8.721-15.089.865-2.28 2.183-3.55 4.76-3.937 6.882-1.034 13.801-1.397 20.738-1.657 2.099-.079 3.974.52 5.655 1.754 3.405 2.51 6.961 4.844 10.172 7.584 6.768 5.77 14.418 8.98 23.357 9.325 7.403.285 14.473-.544 20.902-4.56 1.052-.659 2.122-1.923 3.477-.701 1.18 1.058.672 2.443.248 3.677-1.524 4.493-4.868 7.541-8.406 10.438-2.401 1.972-5.208 3.296-8.419 4.911a14088 14088 0 0 1 21.494 16.625M71.961 137.49c5.237 2.347 8.038 1.905 12.053-1.935 3.786-3.622 7.476-7.336 10.796-11.406 2.25-2.758 3.114-4.445 3.326-6.888-4.354 4.789-9.428 6.918-12.858 5.219-2.25-1.119-3.907-2.903-4.36-5.467-.417-2.347.042-4.669 1.125-7.608-5.062 3.967-8.225 8.539-11.697 12.803-4.094 5.025-3.55 10.547 1.615 15.282m-6.768-27.783c-2.63-2.667-2.854-5.933-1.953-9.592-4.143 2.111-11.969 10.064-13.523 13.529-1.56 3.478-.35 7.663 3.018 10.439 3.078 2.54 7.947 3.072 10.541.399 3.998-4.125 7.481-8.757 11.177-13.172-3.327.465-6.266.762-9.266-1.609m-27.1-12.295c2.419 1.796 4.838 3.604 7.27 5.394 2.122 1.561 3.894 3.248 2.165 6.351 3.38-3.399 4.034-6.871 2.225-10.24-2.389-4.45-7.554-7.202-12.01-6.392-3.218.587-5.686 3.302-6.182 6.798 2.794-3.762 3.048-3.852 6.526-1.911m62.202 40.738c1.397.562 2.788 1.149 4.203 1.681 2.256.847 2.946 2.292 1.803 4.493-.726 1.397-1.44 2.8-2.226 4.324 4.173-2.225 6.06-6.102 5.098-10.257-1.01-4.366-5.304-7.342-10.565-7.317-5.05.024-8.788 2.8-10.076 7.886.732-1.107 1.192-1.839 1.687-2.54 2.027-2.855 3.351-3.024 6.2-.889 1.124.847 2.322 1.603 3.87 2.619z" data-color="1"/>
            <path fill="#2F54EC" d="m283.166 81.452-26.732 14.569-2.583-6.937a243 243 0 0 0-31.956-59.159l-5.734-7.795 26.732-14.57 5.957 8.123a243 243 0 0 1 31.896 59.244l2.42 6.531z" data-color="2"/>
            <path fill="#2F54EC" d="M30.28 103.871c.181-1.451 1.034-3.744 3.036-5.17.599-.43 1.216-.872 2.105-.944 1.844-.151 2.624 1.487 5.485 3.526 3.363 2.401 4.832 1.959 5.691 3.761.913 1.923-.006 4.01-.278 4.627-1.046 2.364-3.466 4.203-5.975 4.511-5.274.642-10.657-5.533-10.058-10.311z" data-color="2"/>
            <path fill="#2F54EC" d="M82.188 115.126c-.272-2.026.69-3.556 2.613-6.604 1.65-2.613 2.606-4.131 4.53-4.76 1.856-.611 3.52-.03 5.146.539.696.241 6.205 2.231 6.296 5.449.006.326-.03.937-1.228 2.763-1.505 2.299-3.574 5.443-7.68 7.143-1.748.726-3.296 1.367-5.147.846-2.407-.677-4.21-3.017-4.53-5.376" data-color="2"/>
            <path fill="#2F54EC" d="M92.5 135.658c-1.954.478-2.535 4.766-2.8 6.737-.224 1.639-.4 2.921.23 4.391.882 2.068 2.908 3.465 4.922 3.858 3.387.666 6.018-1.639 7.342-2.8 2.02-1.766 3.998-4.675 3.254-5.679-.448-.61-1.53-.012-3.103-.078-5.134-.2-7.233-7.076-9.84-6.435z" data-color="2"/>
            <path fill="#2F54EC" d="M94.792 58.392c-3.024.448-4.505 3.332-5.122 4.536-.496.968-1.524 2.97-.986 5.322.671 2.94 3.332 4.409 5.455 5.588 1.633.901 2.613 1.445 3.677 1.119 1.688-.514 2.298-2.806 3.091-5.782.913-3.441 1.373-5.159.592-6.9-1.052-2.34-3.852-4.294-6.7-3.877z" data-color="2"/>
            <path fill="#2F54EC" d="M70.195 92.52c-3.35.828-5.654 5.128-6.162 8.926-.151 1.125-.605 4.487.98 6.392 1.396 1.682 3.652 2.734 5.479 2.335.986-.218 4.39-2.583 6.743-6.508.708-1.179 1.391-2.322 1.427-3.9.085-3.333-2.776-5.843-4.832-6.762-.69-.308-1.99-.889-3.64-.484z" data-color="2"/>
        </g>
        <defs fill="none">
            <clipPath id="cc04d20f-ec3d-4b46-80e5-f08b501b896c">
                <path fill="#ffffff" d="M285.79.176v154H.79v-154z"/>
            </clipPath>
        </defs>
    </g>
</svg>
