<?xml version="1.0" encoding="UTF-8"?>
<svg data-bbox="0 0.958 218.031 153.436" xmlns="http://www.w3.org/2000/svg" viewBox="0 0 218 155" height="155" width="218" data-type="color">
    <g>
        <g clip-path="url(#3ed50989-77c4-4f57-a9d3-ed227e102e86)">
            <path fill="#F0FFF2" d="M35.789 46.248a17.4 17.4 0 0 1-6.098-1.081c-1.91-.71-3.604-1.729-5.02-2.995-1.418-1.296-2.557-2.87-3.389-4.754s-1.262-3.92-1.262-6.144h8.685c0 1.883.678 3.52 2.033 4.878s3.203 2.038 5.605 2.038 4.035-.463 5.298-1.39 1.879-2.099 1.879-3.55c0-.71-.216-1.39-.647-2.006a6.7 6.7 0 0 0-1.602-1.637c-.647-.463-1.478-.957-2.556-1.45-1.078-.495-2.064-.958-3.018-1.328q-1.433-.555-3.512-1.39a120 120 0 0 1-3.542-1.482c-2.34-1.08-4.28-2.593-5.82-4.507s-2.31-4.168-2.31-6.792c0-3.458 1.447-6.267 4.311-8.428C27.69 2.069 31.323.958 35.758.958c2.834 0 5.42.463 7.73 1.358a12.93 12.93 0 0 1 5.668 4.23c1.448 1.914 2.187 4.198 2.187 6.853h-8.655c0-1.327-.678-2.5-2.064-3.488s-2.987-1.482-4.866-1.482q-2.587 0-4.62 1.296c-1.355.865-2.033 1.914-2.033 3.18 0 1.143.709 2.192 2.156 3.15 1.448.956 3.42 1.913 5.945 2.87a102 102 0 0 1 6.776 2.964c2.371 1.173 4.312 2.717 5.82 4.662 1.51 1.945 2.28 4.199 2.28 6.76 0 3.83-1.602 6.947-4.774 9.386-3.265 2.44-7.115 3.643-11.55 3.643z" data-color="1"/>
            <path fill="#F0FFF2" d="M74.627 45.537h-8.008V9.447H53.591V1.36h34.064v8.088H74.627z" data-color="1"/>
            <path fill="#F0FFF2" d="M109.709 45.692c-5.914 0-10.934-2.161-15.092-6.484-4.158-4.291-6.222-9.54-6.222-15.745S90.46 12.071 94.617 7.78c4.158-4.322 9.178-6.483 15.092-6.483s10.903 2.16 15.061 6.483c4.158 4.291 6.221 9.509 6.221 15.683 0 6.175-2.063 11.423-6.221 15.745q-6.237 6.484-15.061 6.483m-8.901-12.874c2.433 2.531 5.421 3.797 8.901 3.797s6.468-1.266 8.87-3.797c2.433-2.532 3.635-5.65 3.635-9.324s-1.202-6.7-3.635-9.261c-2.433-2.563-5.39-3.829-8.87-3.829q-3.465 0-6.376 1.76c-1.94 1.173-3.45 2.779-4.558 4.785-1.109 2.007-1.663 4.168-1.663 6.545 0 3.674 1.232 6.792 3.665 9.324z" data-color="1"/>
            <path fill="#F0FFF2" d="M181.933 46.525c-6.375 0-12.135-1.296-17.217-3.92-5.082-2.594-9.763-6.576-14.014-11.886h-6.837v14.788h-8.039V1.235h19.342c4.405 0 8.07 1.42 10.903 4.26 2.834 2.841 4.282 6.453 4.282 10.806q0 4.816-2.588 8.243-2.586 3.427-6.929 5.001c3.049 3.427 6.221 5.897 9.486 7.348 3.265 1.482 7.115 2.192 11.58 2.192 5.883 0 10.472-1.266 13.799-3.828l4.219 5.804c-2.032 1.729-4.65 3.056-7.884 4.013s-6.622 1.42-10.134 1.42zm-29.105-23.864c1.724 0 3.172-.185 4.404-.556 1.232-.37 2.279-1.019 3.234-1.976 1.016-1.019 1.509-2.377 1.509-4.044s-.493-2.964-1.447-4.044-2.126-1.79-3.512-2.192a16 16 0 0 0-4.219-.556h-8.963v13.368zm37.298 9.663h-7.392V22.136l-11.704-20.9h8.747l6.622 12.719 6.068-12.72h8.747l-11.119 20.901v10.188z" data-color="1"/>
            <path fill="#F0FFF2" d="M21.036 99.564h-8.008v-36.09H0v-8.088h34.064v8.088H21.036z" data-color="1"/>
            <path fill="#F0FFF2" d="M65.911 99.564H39.054V55.386H65.91v8.088H47.092V74.96H61.26l-1.17 7.996H47.092v8.552h18.819v8.088z" data-color="1"/>
            <path fill="#F0FFF2" d="M98.682 99.564c-1.448 0-3.573-.247-6.468-.771-2.803-.495-5.821-.741-9.025-.741-3.203 0-6.56.493-10.287 1.512V55.386h8.07v35.812q2.818-.278 4.99-.278c2.001 0 3.85.123 5.543.401q5.499.834 7.208.834c4.743 0 8.716-.895 11.888-2.717l2.649 7.132c-3.45 2.006-8.285 2.994-14.507 2.994zm11.365-14.479H89.719V55.417h7.454v22.197h12.874z" data-color="1"/>
            <path fill="#F0FFF2" d="M126.247 99.564h-8.069V55.386h8.069z" data-color="1"/>
            <path fill="#F0FFF2" d="m169.891 100.336-27.967-26.335v25.563h-8.038V54.428l28.027 27.075V55.354h7.978z" data-color="1"/>
            <path fill="#F0FFF2" d="M196.902 99.688c-5.882 0-10.934-2.161-15.092-6.484-4.158-4.29-6.221-9.54-6.221-15.745s2.063-11.392 6.221-15.683c4.158-4.322 9.21-6.483 15.092-6.483 3.511 0 6.561.556 9.209 1.667 2.618 1.111 5.082 2.84 7.331 5.156l-6.407 5.464c-2.587-2.593-5.975-3.89-10.194-3.89-2.372 0-4.528.618-6.437 1.883q-2.864 1.853-4.436 5.002-1.57 3.15-1.57 6.854c0 2.47.523 4.754 1.601 6.822s2.557 3.736 4.466 4.97c1.91 1.236 4.035 1.853 6.406 1.853 3.82 0 6.838-.895 9.086-2.717 2.249-1.79 3.542-4.075 3.85-6.853h-10.872V73.63h19.096v7.873c0 4.908-2.064 9.169-6.222 12.75-4.127 3.55-9.086 5.341-14.876 5.341z" data-color="1"/>
            <path fill="#F0FFF2" d="M59.166 154.394 31.2 128.06v25.562h-8.04v-45.136l28.028 27.076v-26.149h7.977z" data-color="1"/>
            <path fill="#F0FFF2" d="M76.014 153.622h-8.07v-44.179h8.07z" data-color="1"/>
            <path fill="#F0FFF2" d="M103.302 153.745c-5.883 0-10.934-2.161-15.092-6.483-4.158-4.291-6.222-9.54-6.222-15.745s2.064-11.392 6.222-15.683c4.158-4.322 9.209-6.483 15.092-6.483 3.511 0 6.56.555 9.209 1.667 2.618 1.111 5.082 2.84 7.33 5.155l-6.406 5.465c-2.587-2.593-5.975-3.89-10.195-3.89-2.372 0-4.527.617-6.437 1.883q-2.865 1.852-4.435 5.001t-1.571 6.854c0 2.47.524 4.755 1.602 6.823s2.556 3.736 4.466 4.97c1.91 1.235 4.034 1.853 6.406 1.853 3.819 0 6.837-.895 9.086-2.717 2.248-1.791 3.542-4.075 3.85-6.854h-10.873v-7.872h19.096v7.872c0 4.909-2.063 9.169-6.221 12.751-4.127 3.55-9.086 5.341-14.877 5.341z" data-color="1"/>
            <path fill="#F0FFF2" d="M162.345 153.622h-8.069v-13.028h-17.094v13.028h-8.07v-44.179h8.07v23.031h17.094v-23.031h8.069z" data-color="1"/>
            <path fill="#F0FFF2" d="M187.446 153.622h-8.008v-36.09H166.41v-8.089h34.065v8.089h-13.029z" data-color="1"/>
        </g>
        <defs fill="none">
            <clipPath id="3ed50989-77c4-4f57-a9d3-ed227e102e86">
                <path fill="#ffffff" d="M218 .896v153.498H0V.896z"/>
            </clipPath>
        </defs>
    </g>
</svg>
