<?xml version="1.0" encoding="UTF-8"?>
<svg data-bbox="0.38 0.937 1598.9 199.661" xmlns="http://www.w3.org/2000/svg" viewBox="0 0 1600 201" height="201" width="1600" data-type="color">
    <g>
        <path fill="#2F54EC" d="M73.562 199.77c-32.586 0-49.432-17.398-49.432-50.26V75.224H.38V56.169c24.303-3.59 35.625-14.36 40.872-42.528h21.816v37.005h32.863v24.578H63.068v69.591c0 22.921 8.561 31.482 24.302 31.482 4.142 0 7.732-.553 11.046-1.657v21.816c-6.075 2.209-14.636 3.314-24.854 3.314m107.477.828c-42.252 0-71.801-29.548-71.801-76.495 0-46.118 30.929-77.6 71.248-77.6 38.938 0 67.106 27.616 67.106 78.705h-97.483c1.105 33.691 16.569 49.708 40.043 49.708 17.674 0 32.034-11.322 37.281-30.653h21.816c-6.904 35.624-32.863 56.335-68.21 56.335M179.658 68.32c-14.637 0-25.13 11.598-28.444 35.9h54.955c-1.933-24.026-11.875-35.9-26.511-35.9m150.604 132.278c-38.938 0-61.583-18.502-66.83-51.917h22.645c4.971 17.95 19.607 27.616 43.08 27.616 15.465 0 25.959-6.628 25.959-16.57 0-7.456-4.971-12.979-21.264-16.845l-21.54-4.971c-28.997-6.904-42.804-22.921-42.804-44.461 0-27.34 21.816-46.947 56.059-46.947 33.415 0 55.232 17.95 60.202 46.67h-22.644c-4.419-14.636-16.57-23.196-35.625-23.196-14.36 0-22.368 6.351-22.368 15.74 0 7.457 4.694 13.532 19.331 16.846l20.988 4.419c33.967 7.18 46.67 21.54 46.67 45.565 0 28.168-24.302 48.051-61.859 48.051m143.241-.828c-32.587 0-49.432-17.398-49.432-50.26V75.224h-23.75V56.169c24.302-3.59 35.625-14.36 40.872-42.528h21.816v37.005h32.862v24.578h-32.862v69.591c0 22.921 8.561 31.482 24.302 31.482 4.142 0 7.732-.553 11.046-1.657v21.816c-6.076 2.209-14.636 3.314-24.854 3.314m44.776-167.903V.937h39.766v30.93zm.276 164.589V50.646h38.938v145.81zm74.433 0V50.646h36.176v28.72c7.18-20.16 24.026-32.863 45.013-32.863 20.712 0 36.177 12.427 42.252 32.31 7.18-19.883 24.026-32.31 44.738-32.31 26.787 0 44.737 20.436 44.737 51.365v98.588h-38.938v-93.893c0-18.779-8.009-28.996-22.645-28.996-14.912 0-25.406 14.084-25.406 38.109v84.78h-38.938v-93.893c0-18.779-8.009-28.996-22.645-28.996-14.912 0-25.406 14.084-25.406 38.109v84.78zm309.717 4.142c-41.423 0-71.524-29.548-71.524-76.219 0-47.499 30.653-77.876 73.457-77.876 41.7 0 71.248 29.825 71.248 75.943 0 48.051-30.929 78.152-73.181 78.152m1.381-22.092c17.674 0 30.377-15.189 30.377-54.127 0-38.11-12.979-55.783-31.482-55.783-17.95 0-30.377 15.465-30.377 53.85s12.979 56.06 31.482 56.06m98.284 17.95V50.646h36.17v28.996c7.46-20.16 25.13-33.139 47.23-33.139 27.89 0 46.94 20.436 46.94 51.365v98.588h-38.94v-93.893c0-18.779-8.83-28.996-25.13-28.996-16.01 0-27.33 14.084-27.33 38.109v84.78zm163.96-164.589V.937h39.76v30.93zm.27 164.589V50.646h38.94v145.81zm106.75 3.866c-25.41 0-42.81-15.741-42.81-38.109 0-22.921 13.26-37.005 46.67-44.461 31.76-6.904 39.77-13.808 39.77-25.407 0-10.77-9.67-19.883-26.23-19.883-17.4 0-30.66 11.046-33.97 29.825h-21.82c4.14-33.967 29.83-55.784 65.73-55.784 35.34 0 57.71 20.988 57.71 52.194v62.411c0 11.046 4.15 15.465 14.36 16.017v19.331c-4.41 1.657-11.32 2.762-18.78 2.762-19.88 0-30.92-9.666-33.69-25.407-8.28 16.57-24.85 26.511-46.94 26.511m16.29-25.682c17.4 0 29.83-12.703 29.83-32.311v-25.682c-4.7 7.18-13.26 12.703-26.79 17.398-16.29 5.799-22.65 13.531-22.65 23.473 0 10.218 7.46 17.122 19.61 17.122m104.04 21.816V.938h38.94v195.518zm137.39 4.142c-42.25 0-71.8-29.548-71.8-76.495 0-46.118 30.93-77.6 71.25-77.6 38.94 0 67.11 27.616 67.11 78.705h-97.49c1.11 33.691 16.57 49.708 40.05 49.708 17.67 0 32.03-11.322 37.28-30.653h21.81c-6.9 35.624-32.86 56.335-68.21 56.335m-1.38-132.278c-14.63 0-25.13 11.598-28.44 35.9h54.95c-1.93-24.026-11.87-35.9-26.51-35.9" opacity=".2" data-color="1"/>
    </g>
</svg>
