<?xml version="1.0" encoding="UTF-8"?>
<svg data-bbox="-2399.297 2.077 5338.36 1352.997" xmlns="http://www.w3.org/2000/svg" viewBox="0 0 1920 1358" height="1358" width="1920" data-type="ugc">
    <g>
        <path stroke-miterlimit="10" stroke-width="4" stroke="#2F54EC" d="M-2385.6 44.12c505.87 203.782 1496.752 673.624 1708.048 1295.94 5.821 17.35 28.838 20.49 38.649 5.06 88.771-138.91 467.607-541.228 1788.443-282.33 1087.56 213.21 1580.7-52.25 1782.45-238.584 18.32-16.972-2.19-46.488-24.61-35.079-228.59 115.931-787.98 238.133-2099.817-47.041C246.361 620.03-379.657 705.203-573.711 818.15c-7.83 4.618-17.701 3.43-24.657-2.655-84.874-74.669-634.422-528.054-1773.772-812.667-26.13-6.493-38.57 30.95-13.58 41.114z" opacity=".3" fill="none"/>
    </g>
</svg>
